<mxfile host="app.diagrams.net" agent="Mozilla/5.0 (X11; CrOS x86_64 14541.0.0) AppleWebKit/537.36 (KHTML, like Gecko) Chrome/135.0.0.0 Safari/537.36" version="27.0.3" pages="2">
  <diagram name="Page-1" id="HRpu3EaC42IvbJVHx1s2">
    <mxGraphModel dx="3500" dy="1003" grid="1" gridSize="10" guides="1" tooltips="1" connect="1" arrows="1" fold="1" page="1" pageScale="1" pageWidth="827" pageHeight="1169" math="0" shadow="0">
      <root>
        <mxCell id="0" />
        <mxCell id="1" parent="0" />
        <mxCell id="RlMwHVK00WtKHuY0EOSX-26" value="Cluster (essentially  ser of machines)" style="swimlane;startSize=0;" vertex="1" parent="1">
          <mxGeometry y="100" width="1540" height="650" as="geometry">
            <mxRectangle y="20" width="50" height="40" as="alternateBounds" />
          </mxGeometry>
        </mxCell>
        <mxCell id="RlMwHVK00WtKHuY0EOSX-35" value="Server" style="swimlane;whiteSpace=wrap;html=1;" vertex="1" parent="RlMwHVK00WtKHuY0EOSX-26">
          <mxGeometry x="560" y="40" width="489" height="580" as="geometry">
            <mxRectangle x="570" y="40" width="80" height="30" as="alternateBounds" />
          </mxGeometry>
        </mxCell>
        <mxCell id="KGChQR1K5hRhyjWdONPX-29" style="edgeStyle=orthogonalEdgeStyle;rounded=0;orthogonalLoop=1;jettySize=auto;html=1;strokeColor=#66FF66;strokeWidth=2;entryX=0.5;entryY=0;entryDx=0;entryDy=0;" edge="1" parent="RlMwHVK00WtKHuY0EOSX-35" target="KGChQR1K5hRhyjWdONPX-19">
          <mxGeometry relative="1" as="geometry">
            <mxPoint x="360" y="430" as="targetPoint" />
            <mxPoint x="300" y="150" as="sourcePoint" />
            <Array as="points">
              <mxPoint x="300" y="180" />
              <mxPoint x="361" y="180" />
              <mxPoint x="361" y="445" />
            </Array>
          </mxGeometry>
        </mxCell>
        <mxCell id="RlMwHVK00WtKHuY0EOSX-12" value="Broker ( essentially a server)&lt;br&gt;( essentially a node)&lt;div&gt;(Really a Computer)&lt;/div&gt;" style="verticalLabelPosition=bottom;verticalAlign=top;html=1;shape=mxgraph.basic.heart" vertex="1" parent="RlMwHVK00WtKHuY0EOSX-35">
          <mxGeometry x="179.5" y="90" width="130" height="110" as="geometry" />
        </mxCell>
        <mxCell id="KGChQR1K5hRhyjWdONPX-22" value="" style="edgeStyle=orthogonalEdgeStyle;rounded=0;orthogonalLoop=1;jettySize=auto;html=1;fillColor=#ffcc99;strokeColor=#6666FF;strokeWidth=2;" edge="1" parent="RlMwHVK00WtKHuY0EOSX-35" source="RlMwHVK00WtKHuY0EOSX-14" target="RlMwHVK00WtKHuY0EOSX-16">
          <mxGeometry relative="1" as="geometry">
            <Array as="points">
              <mxPoint x="160" y="420" />
              <mxPoint x="160" y="420" />
            </Array>
          </mxGeometry>
        </mxCell>
        <mxCell id="RlMwHVK00WtKHuY0EOSX-14" value="Store" style="whiteSpace=wrap;html=1;aspect=fixed;" vertex="1" parent="RlMwHVK00WtKHuY0EOSX-35">
          <mxGeometry x="130" y="300" width="60" height="60" as="geometry" />
        </mxCell>
        <mxCell id="RlMwHVK00WtKHuY0EOSX-13" value="Manage (xx)" style="whiteSpace=wrap;html=1;aspect=fixed;" vertex="1" parent="RlMwHVK00WtKHuY0EOSX-35">
          <mxGeometry x="281" y="300" width="60" height="60" as="geometry" />
        </mxCell>
        <mxCell id="RlMwHVK00WtKHuY0EOSX-21" value="&lt;font style=&quot;color: rgb(255, 153, 153);&quot;&gt;Replicate&lt;/font&gt;&lt;div&gt;&lt;span style=&quot;color: light-dark(rgb(255, 153, 153), rgb(157, 69, 69)); background-color: transparent;&quot;&gt;(Essentially how many copies with someone else to lead)&amp;nbsp;&lt;/span&gt;&lt;/div&gt;" style="whiteSpace=wrap;html=1;aspect=fixed;" vertex="1" parent="RlMwHVK00WtKHuY0EOSX-35">
          <mxGeometry x="410" y="290" width="70" height="70" as="geometry" />
        </mxCell>
        <mxCell id="RlMwHVK00WtKHuY0EOSX-16" value="topic1&lt;div&gt;(essentially partition conatining msg)&lt;/div&gt;" style="shape=process;whiteSpace=wrap;html=1;backgroundOutline=1;" vertex="1" parent="RlMwHVK00WtKHuY0EOSX-35">
          <mxGeometry x="110" y="440" width="140" height="50" as="geometry" />
        </mxCell>
        <mxCell id="KGChQR1K5hRhyjWdONPX-17" value="" style="endArrow=classic;html=1;rounded=0;exitX=0;exitY=0.5;exitDx=0;exitDy=0;entryX=0.07;entryY=0.5;entryDx=0;entryDy=0;entryPerimeter=0;fillColor=#ffcc99;strokeColor=#6666FF;strokeWidth=2;" edge="1" parent="RlMwHVK00WtKHuY0EOSX-35" source="RlMwHVK00WtKHuY0EOSX-35" target="RlMwHVK00WtKHuY0EOSX-12">
          <mxGeometry width="50" height="50" relative="1" as="geometry">
            <mxPoint x="220" y="280" as="sourcePoint" />
            <mxPoint x="270" y="230" as="targetPoint" />
          </mxGeometry>
        </mxCell>
        <mxCell id="KGChQR1K5hRhyjWdONPX-19" value="Disk" style="ellipse;whiteSpace=wrap;html=1;" vertex="1" parent="RlMwHVK00WtKHuY0EOSX-35">
          <mxGeometry x="300" y="445" width="69.5" height="40" as="geometry" />
        </mxCell>
        <mxCell id="KGChQR1K5hRhyjWdONPX-20" value="" style="endArrow=classic;startArrow=classic;html=1;rounded=0;entryX=0;entryY=0.5;entryDx=0;entryDy=0;exitX=1;exitY=0.5;exitDx=0;exitDy=0;" edge="1" parent="RlMwHVK00WtKHuY0EOSX-35" source="RlMwHVK00WtKHuY0EOSX-16" target="KGChQR1K5hRhyjWdONPX-19">
          <mxGeometry width="50" height="50" relative="1" as="geometry">
            <mxPoint x="220" y="430" as="sourcePoint" />
            <mxPoint x="270" y="380" as="targetPoint" />
          </mxGeometry>
        </mxCell>
        <mxCell id="KGChQR1K5hRhyjWdONPX-21" style="edgeStyle=orthogonalEdgeStyle;rounded=0;orthogonalLoop=1;jettySize=auto;html=1;exitX=0.5;exitY=1;exitDx=0;exitDy=0;exitPerimeter=0;entryX=0.636;entryY=-0.015;entryDx=0;entryDy=0;entryPerimeter=0;fillColor=#ffcc99;strokeColor=#6666FF;strokeWidth=2;" edge="1" parent="RlMwHVK00WtKHuY0EOSX-35" source="RlMwHVK00WtKHuY0EOSX-12" target="RlMwHVK00WtKHuY0EOSX-14">
          <mxGeometry relative="1" as="geometry" />
        </mxCell>
        <mxCell id="KGChQR1K5hRhyjWdONPX-18" style="edgeStyle=orthogonalEdgeStyle;rounded=0;orthogonalLoop=1;jettySize=auto;html=1;fillColor=#cdeb8b;strokeColor=#66FF66;strokeWidth=2;" edge="1" parent="RlMwHVK00WtKHuY0EOSX-26" source="RlMwHVK00WtKHuY0EOSX-36">
          <mxGeometry relative="1" as="geometry">
            <mxPoint x="1060" y="310" as="targetPoint" />
          </mxGeometry>
        </mxCell>
        <mxCell id="RlMwHVK00WtKHuY0EOSX-36" value="Client" style="swimlane;whiteSpace=wrap;html=1;" vertex="1" parent="RlMwHVK00WtKHuY0EOSX-26">
          <mxGeometry x="1270" y="50" width="210" height="520" as="geometry">
            <mxRectangle x="680" y="60" width="70" height="30" as="alternateBounds" />
          </mxGeometry>
        </mxCell>
        <mxCell id="RlMwHVK00WtKHuY0EOSX-9" value="&lt;div&gt;Essentially&amp;nbsp;&lt;/div&gt;&lt;div&gt;App or Service&lt;/div&gt;" style="whiteSpace=wrap;html=1;aspect=fixed;" vertex="1" parent="RlMwHVK00WtKHuY0EOSX-36">
          <mxGeometry x="80" y="200" width="87" height="87" as="geometry" />
        </mxCell>
        <mxCell id="KGChQR1K5hRhyjWdONPX-14" value="Consumer" style="text;html=1;align=center;verticalAlign=middle;resizable=0;points=[];autosize=1;strokeColor=none;fillColor=none;" vertex="1" parent="RlMwHVK00WtKHuY0EOSX-36">
          <mxGeometry x="10" y="30" width="80" height="30" as="geometry" />
        </mxCell>
        <mxCell id="KGChQR1K5hRhyjWdONPX-15" style="edgeStyle=orthogonalEdgeStyle;rounded=0;orthogonalLoop=1;jettySize=auto;html=1;entryX=0;entryY=0.5;entryDx=0;entryDy=0;fillColor=#ffcc99;strokeColor=#6666FF;strokeWidth=2;" edge="1" parent="RlMwHVK00WtKHuY0EOSX-26" source="KGChQR1K5hRhyjWdONPX-12" target="RlMwHVK00WtKHuY0EOSX-35">
          <mxGeometry relative="1" as="geometry" />
        </mxCell>
        <mxCell id="KGChQR1K5hRhyjWdONPX-12" value="Client" style="swimlane;whiteSpace=wrap;html=1;" vertex="1" parent="RlMwHVK00WtKHuY0EOSX-26">
          <mxGeometry x="50" y="60" width="250" height="520" as="geometry" />
        </mxCell>
        <mxCell id="KGChQR1K5hRhyjWdONPX-28" value="&lt;div&gt;Essentially App or service&lt;/div&gt;" style="whiteSpace=wrap;html=1;aspect=fixed;" vertex="1" parent="KGChQR1K5hRhyjWdONPX-12">
          <mxGeometry x="75" y="190" width="80" height="80" as="geometry" />
        </mxCell>
        <mxCell id="KGChQR1K5hRhyjWdONPX-13" value="Producer" style="text;html=1;align=center;verticalAlign=middle;resizable=0;points=[];autosize=1;strokeColor=none;fillColor=none;" vertex="1" parent="KGChQR1K5hRhyjWdONPX-12">
          <mxGeometry x="5" y="30" width="70" height="30" as="geometry" />
        </mxCell>
        <mxCell id="KGChQR1K5hRhyjWdONPX-23" value="" style="endArrow=classic;html=1;rounded=0;entryX=0.93;entryY=0.5;entryDx=0;entryDy=0;entryPerimeter=0;fillColor=#cdeb8b;strokeColor=#66FF66;strokeWidth=2;" edge="1" parent="1" target="RlMwHVK00WtKHuY0EOSX-12">
          <mxGeometry width="50" height="50" relative="1" as="geometry">
            <mxPoint x="1050" y="410" as="sourcePoint" />
            <mxPoint x="860" y="290" as="targetPoint" />
          </mxGeometry>
        </mxCell>
        <mxCell id="KGChQR1K5hRhyjWdONPX-30" value="Cluster (essentially  ser of machines)" style="swimlane;startSize=0;" vertex="1" parent="1">
          <mxGeometry x="-1150" y="970" width="3730" height="1233" as="geometry">
            <mxRectangle y="20" width="50" height="40" as="alternateBounds" />
          </mxGeometry>
        </mxCell>
        <mxCell id="KGChQR1K5hRhyjWdONPX-31" value="Server" style="swimlane;whiteSpace=wrap;html=1;" vertex="1" parent="KGChQR1K5hRhyjWdONPX-30">
          <mxGeometry x="1000" y="100" width="1360" height="980" as="geometry">
            <mxRectangle x="570" y="40" width="80" height="30" as="alternateBounds" />
          </mxGeometry>
        </mxCell>
        <mxCell id="KGChQR1K5hRhyjWdONPX-33" value="Broker 1" style="verticalLabelPosition=bottom;verticalAlign=top;html=1;shape=mxgraph.basic.heart" vertex="1" parent="KGChQR1K5hRhyjWdONPX-31">
          <mxGeometry x="195" y="112" width="130" height="110" as="geometry" />
        </mxCell>
        <mxCell id="KGChQR1K5hRhyjWdONPX-37" value="&lt;font style=&quot;color: rgb(0, 0, 0);&quot;&gt;Replicates&lt;/font&gt;&lt;div&gt;&lt;font style=&quot;color: rgb(0, 0, 0);&quot;&gt;( 3 times)&lt;/font&gt;&lt;/div&gt;" style="whiteSpace=wrap;html=1;aspect=fixed;" vertex="1" parent="KGChQR1K5hRhyjWdONPX-31">
          <mxGeometry x="1010" y="320" width="60" height="60" as="geometry" />
        </mxCell>
        <mxCell id="KGChQR1K5hRhyjWdONPX-38" value="topic1" style="shape=process;whiteSpace=wrap;html=1;backgroundOutline=1;" vertex="1" parent="KGChQR1K5hRhyjWdONPX-31">
          <mxGeometry x="197" y="460" width="140" height="50" as="geometry" />
        </mxCell>
        <mxCell id="KGChQR1K5hRhyjWdONPX-62" value="Broker 3" style="verticalLabelPosition=bottom;verticalAlign=top;html=1;shape=mxgraph.basic.heart" vertex="1" parent="KGChQR1K5hRhyjWdONPX-31">
          <mxGeometry x="325" y="287" width="130" height="110" as="geometry" />
        </mxCell>
        <mxCell id="KGChQR1K5hRhyjWdONPX-61" value="Broker 2" style="verticalLabelPosition=bottom;verticalAlign=top;html=1;shape=mxgraph.basic.heart" vertex="1" parent="KGChQR1K5hRhyjWdONPX-31">
          <mxGeometry x="60" y="292" width="130" height="110" as="geometry" />
        </mxCell>
        <mxCell id="KGChQR1K5hRhyjWdONPX-66" value="&lt;font style=&quot;color: rgb(0, 0, 0);&quot;&gt;Store&lt;/font&gt;" style="whiteSpace=wrap;html=1;aspect=fixed;" vertex="1" parent="KGChQR1K5hRhyjWdONPX-31">
          <mxGeometry x="620" y="350" width="60" height="60" as="geometry" />
        </mxCell>
        <mxCell id="KGChQR1K5hRhyjWdONPX-67" value="&lt;font style=&quot;color: rgb(0, 0, 0);&quot;&gt;Manage&lt;/font&gt;" style="whiteSpace=wrap;html=1;aspect=fixed;" vertex="1" parent="KGChQR1K5hRhyjWdONPX-31">
          <mxGeometry x="770" y="305" width="120" height="120" as="geometry" />
        </mxCell>
        <mxCell id="KGChQR1K5hRhyjWdONPX-69" value="" style="endArrow=classic;startArrow=classic;html=1;rounded=0;exitX=0.5;exitY=0.115;exitDx=0;exitDy=0;exitPerimeter=0;entryX=0.07;entryY=0.5;entryDx=0;entryDy=0;entryPerimeter=0;" edge="1" parent="KGChQR1K5hRhyjWdONPX-31" source="KGChQR1K5hRhyjWdONPX-61" target="KGChQR1K5hRhyjWdONPX-33">
          <mxGeometry width="50" height="50" relative="1" as="geometry">
            <mxPoint x="330" y="392" as="sourcePoint" />
            <mxPoint x="380" y="342" as="targetPoint" />
          </mxGeometry>
        </mxCell>
        <mxCell id="KGChQR1K5hRhyjWdONPX-70" value="" style="endArrow=classic;startArrow=classic;html=1;rounded=0;entryX=0.01;entryY=0.408;entryDx=0;entryDy=0;entryPerimeter=0;exitX=1;exitY=0.363;exitDx=0;exitDy=0;exitPerimeter=0;" edge="1" parent="KGChQR1K5hRhyjWdONPX-31" source="KGChQR1K5hRhyjWdONPX-61" target="KGChQR1K5hRhyjWdONPX-62">
          <mxGeometry width="50" height="50" relative="1" as="geometry">
            <mxPoint x="200" y="332" as="sourcePoint" />
            <mxPoint x="214" y="177" as="targetPoint" />
          </mxGeometry>
        </mxCell>
        <mxCell id="KGChQR1K5hRhyjWdONPX-89" value="" style="endArrow=classic;startArrow=classic;html=1;rounded=0;exitX=0.983;exitY=0.383;exitDx=0;exitDy=0;exitPerimeter=0;entryX=0.484;entryY=0.054;entryDx=0;entryDy=0;entryPerimeter=0;" edge="1" parent="KGChQR1K5hRhyjWdONPX-31" source="KGChQR1K5hRhyjWdONPX-33" target="KGChQR1K5hRhyjWdONPX-62">
          <mxGeometry width="50" height="50" relative="1" as="geometry">
            <mxPoint x="280" y="187" as="sourcePoint" />
            <mxPoint x="433" y="182" as="targetPoint" />
          </mxGeometry>
        </mxCell>
        <mxCell id="KGChQR1K5hRhyjWdONPX-109" value="partition 1" style="shape=process;whiteSpace=wrap;html=1;backgroundOutline=1;" vertex="1" parent="KGChQR1K5hRhyjWdONPX-31">
          <mxGeometry x="50" y="540" width="140" height="50" as="geometry" />
        </mxCell>
        <mxCell id="KGChQR1K5hRhyjWdONPX-111" value="partition 3" style="shape=process;whiteSpace=wrap;html=1;backgroundOutline=1;" vertex="1" parent="KGChQR1K5hRhyjWdONPX-31">
          <mxGeometry x="350" y="540" width="140" height="50" as="geometry" />
        </mxCell>
        <mxCell id="KGChQR1K5hRhyjWdONPX-110" value="partition 2" style="shape=process;whiteSpace=wrap;html=1;backgroundOutline=1;" vertex="1" parent="KGChQR1K5hRhyjWdONPX-31">
          <mxGeometry x="205" y="540" width="140" height="50" as="geometry" />
        </mxCell>
        <mxCell id="KGChQR1K5hRhyjWdONPX-112" value="Controller - Essentailly a Special Broker&amp;nbsp;&lt;div&gt;(Essentially gets to choose&amp;nbsp;&lt;/div&gt;&lt;div&gt;Leader and Follower Brokers)&lt;/div&gt;&lt;div&gt;(It&#39;s one of the three brokers here not a New Broker)&lt;/div&gt;" style="verticalLabelPosition=bottom;verticalAlign=top;html=1;shape=mxgraph.basic.heart" vertex="1" parent="KGChQR1K5hRhyjWdONPX-31">
          <mxGeometry x="745" y="100" width="130" height="110" as="geometry" />
        </mxCell>
        <mxCell id="KGChQR1K5hRhyjWdONPX-113" value="" style="shape=image;verticalLabelPosition=bottom;labelBackgroundColor=default;verticalAlign=top;aspect=fixed;imageAspect=0;image=data:image/png,iVBORw0KGgoAAAANSUhEUgAABNwAAAFTCAIAAABtcIbtAAAAAXNSR0IArs4c6QAAIABJREFUeAHs3fljTNf/P/DvP3AmewQRiT1SS0KFSFCpWiqkrdQbtaS2FqG11Butd6sIrVq6WNr4IJQSS1G0b33H1lrehBC1VWoZiiASjSSSzJyvb1/f9+tz3vdOJjPTCTPmOT9w5txzzz33cSf33te95577fyQ+EIAABCAAAQhAAAIQgAAEIACBJyTwf57QcrFYCEAAAhCAAAQgAAEIQAACEICARFCKHwEEIAABCEAAAhCAAAQgAAEIPDEBBKVPjB4LhgAEIAABCEAAAhCAAAQgAAEEpfgNQAACEIAABCAAAQhAAAIQgMATE0BQ+sTosWAIQAACEIAABCAAAQhAAAIQQFCK3wAEIAABCEAAAhCAAAQgAAEIPDEBBKVPjB4LhgAEIAABCEAAAhCAAAQgAAEEpfgNQAACEIAABCAAAQhAAAIQgMATE0BQ+sTosWAIQAACEIAABCAAAQhAAAIQQFCK3wAEIAABCEAAAhCAAAQgAAEIPDEBBKVPjB4LhgAEIAABCEAAAhCAAAQgAAEEpfgNQAACEIAABCAAAQhAAAIQgMATE0BQ+sTosWAIQAACEIAABCAAAQhAAAIQeNqC0nPnzu36zycvL8+WDezALLZUizIQgAAEIOAWApcvX/7PcWOX0Wh0izajkRCAAAQ8XODgwYO8666oqCCNiooKzjx48ODTSnTy5ElezcLCQrtWc+/evTTv7t277ZqxugvbEZSWlJRkVvLZu3fv8ePHb926Vd3NrbL+qVOniv98du3aVWV5KaUDs9hSLcpAAAIQ8FgB9Xjx888/u7jDF1988Z/jhkhLS3Px1qJ5EIAABFxZQN3/VxI3/G92WVmZw+sSFxfHu+6ioiKqp6ioiDPj4uIcrtyVZzQajTVr1qTVfP75500mk12tXbhwIROlp6fbNW+1FrYjKL1y5QqvQ2WJZs2azZkzp7i4uFobLaUsKiqiX3R+fr66LCsRpgOzqDUjDQEIQAACNgqox4v69evbONeTKoag9EnJY7kQgMDTJ6Du/yuLFzj/zp07Dgt4bFDar18/AvT29v7ll1/sBXx0Mzk6OppqqFOnjiaSsrc2J5Z3clBKa9iiRYvq7gGVlpZGy8rMzFQ5du3aNfU/n3PnzqmTHJhFnR1pCEAAAhCwUUA9KUFQaiMaikEAAhB4CgTU/T+dq1v5F0GpvVv8559/Zs/Ro0fbOzuV/+c//8mVTJ482bFKnD6Xg0Gpt7d3c+VTr149XjdKtG/f3t67yXatW7du3WhBmqDUSiUOzGKlNkyCAAQgAIHKBNSTEgSllSkhHwIQgMDTJ6Du/zXxghI6/P/kvXv3HBbwzDulvXr1ogjI29v70qVLf10vMDDwr1wacLgB+hkdDEr1JxmFhYUffvihGppu375dvzwppclkevDggV0hq9lsvn//vtlspgqvX79uMBjsCkodmEXf+JKSkvLycn1+lTllZWWPoUtzlc1AAQhAAAKPR0A9KdEfL2xsQ1lZ2cOHD20sbNeRpaKiQn2QycbuuyaTyd49eUVFxR9//GHjKqAYBCAAgadAwCn7fyllcXExn/lbZPmLQakDu3SLzbArs6Sk5K9EQOfOneNQa8CAAVYWXVJSUlhYyOM/6UuuW7eOq5o3b56+wOPPcVpQSk1/7bXXeA0nTJigrs+lS5cmTpzYsmVLLy8vIYTBYIiKinrvvfdu376tFpNS9unTJ+7Pz/Dhw6WUa9euDQsLE0L07dt369atcXFxzZs356VERkZSYXrEefHixfQ1Li6OBt1yYBa1PQ8ePPj0009feOGFGjVqULNDQ0NfffXVzZs3639Vs2bN4qUXFxebTKbPP/88MjKSVjkiIuKjjz5yLKxVm4Q0BCAAARcX+CsnJfv27Rs4cCDt9oUQ9erVGzp06OnTpy2usu1HFillRUXF4sWL27Rp4+XlZTAYIiIiPvzww+Li4sWLF/MxRT/QUW5u7ltvvdWsWTPakwcFBSUmJn733Xea9ly/fp33/4sXLzaZTJMnTw4ICBBCfP7555rC+AoBCEDgaRX4K/t/o9E4derU6OhoPz8/IYS3t3fTpk1Hjhx57NgxPZdjQemxY8dGjBgRHh5Ou3Q/P7927dpNmzZNffAwJyeH9+c//PCDumg10BgxYoQ66dHgNR06dKAZ16xZw5MqKipWr17ds2fPoKAgIYSXl1fz5s2nTp2qvz9pJQKi2t5//30+Wu3YsYMXwYktW7a88sorISEhVMzLyysyMnLKlCnq2lHh4uJiao8QolWrVlzDE0w4OSj98ssvGatfv368Ylu3bqVjM0/lRIMGDS5cuMAlpZStW7emqZGRkdnZ2fSjEUIkJibyc6E8OycKCgosDqXrwCzcmOPHjzdu3JgXoUl069ZNE1G//fbbXOb69etDhgzhr5wYPHgw148EBCAAgadSwLGTkvLy8rFjx/LeUk14e3urx3hCs+vIUl5e/uqrr6p1UrpTp07qUISaoDQ9Pd3X11c/lxAiJSVFvYqfl5fHxcaOHaveff3kk0+eyq2MlYIABCCgF3Bs/y+lXLNmjb+/P+9INYmJEydq7vvZG5SWl5dPmDBBUy1/DQgIWLt2La1OaWlpYGAgTdI8ctmpUyeexdfX98GDByywZ88ensRvo7l9+3bnzp05X02EhoaePHmSZ7ceAVExXmUfHx9Nz52ysjIeAEldCqVr1qz5448/qsuSUr788stcUh+1ago/hq9ODko///xzXr1hw4bRCly+fJk3rY+PT0pKyoIFC1566SUuGRcXpx7a27dvT5MaNGgwePBgLpaYmEi3PRs0aMCZmjul+tF3HZiFmn3x4sVatWrxglq2bPnmm28mJyfXqVOHM+Pj49U+YH//+9950vTp04UQtWrVioqK8vb25nwhxD//+c/HsGmxCAhAAAJPSsCxkxL1GnBMTMyCBQsWLVrUrl072n96eXmpF8vtPbIsWrRI3Q/37t17woQJXbt2FUKoFx/VoPTHH3/kR0VCQ0Nnzpy5bNmypKQkrmfRokUsXFhYyPkDBw5s1KgRf0VQykpIQAACT72AY/v/TZs28T5TCNGlS5cxY8b06dNHvSw4depUVY8jNCGELa+Eeeutt3gR/v7+SUlJKSkp8fHxnGkwGHbu3EmLSEhIoPz4+HheaGFhoeaUXn3V55w5c2iWGjVqUHRQUVHxwgsvcP1JSUnLli2bNWtW3bp1KbNRo0b379/n+q1EQNSf2cfHh2aMjY3luSgxf/58XlDnzp2nT5+empo6evTo2rVrU37NmjXz8vLUuebOncuzbNq0SZ30RNJODkp79uzJq5eamkqrNG3aNM589913eT3V7ZSdnc35/CPz+/OTnJyclZWVk5PDpyMU71GdmoGO9EEpVevALOq6TJo0iTvr3rlzp23btrxGX331FbdcXbq3t/eoUaNKSkqklNeuXePbv0KIkSNH8ixIQAACEHj6BBw4KTEajXywb9u2LV8DLikpadOmDe1yu3XrxlZ2HVkqKirUAfnUyFM9Kgvxv+8pNZvNkZGRtFx/f//ffvuNFz169GjKDwoK4kdG1ZfjBQUFeXt7z5kz5+zZs0ePHr148SLPiwQEIACBp1vAgf3/H3/8ERwcTPtVg8GgBkjHjx/nd3IaDIazZ8+yHscLtgSl6qC1YWFhaj3/8z//Q4uma5QUT3788ceUGRAQwPeftm3bRpk8eOq0adO4PXy/7eWXX6bM9evXc81jxozhkrm5uXxPeNasWZzPa2QxAlJXQfOMpJSSA9oePXpwhVLKX375hfqcGgyGZcuWqZP27t3Lzfv73/+uTnoiaacFpTdu3EhJSeF1MxgMubm5tEr79+9fuXLlF198MXfu3PPnz/N6qqcCar8s3iRCiBdffFG9iUrzOhBh2jvLmTNneF2aNGnCP0dqgLoV27Vrx2ukBqWaubZu3coVPq0v82UHJCAAAQ8XcOCkhK8xCyFWrlypAq5evZr2nwaD4erVqzTJriPLTz/9xHvgyMhI9bBSUVERERHBUzleVQ//Q4cOVdtz+fJlLs/dvdSgVAgxe/ZsdRakIQABCHiIgLr/r1u37snKPxwpLFu2jHeq+sfcZs6cyVMnTZrEjGq8UOWd0oEDB3Il6v0kqo16zVCBbdu2SSn//e9/c/njx49TsfHjx1Pmli1bKNLjO5Zms5m7Un766adUXr2/xStLk0aMGEFVPfPMM5QjpVTXSB8BrVixgpvEhyqel7v8vPDCC+oxTkqZnZ195coV/cCBt2/f5goTExO5qieVcDAo9fLyaqx8+PIGr9u4ceOqXKWvvvqKyy9evJjLq5tk69atnM8JeyNMKaW9s6jjXrz99tu8aEqYTCZ+ONhgMPB41mpQ+uGHH6pz5efn88o2b95cnYQ0BCAAgadMQD0psXH03cTERN5JZmZmFigfNT7MyMiwbmXxyKLu0sePH6+pQR0OgI/0n3zyCbdn1qxZSnP+X5If7hg7dizVpgalBoNBP4KFZqH4CgEIQOCpFFD3/7wXtZjo0qULCagPQ6q3SWnqsWPHePb27dszmhovWA9KzWYzj/0jhLh16xZXQokFCxbwIugh0oqKCt7P8w1G6j7j5eVVWFhIj5Z4eXnl5+dLKc+ePcs10JOij4bW46cX/f397927V6B85s2bx+Vv3LhBzVDXSB8BqY3UK/HNWyFEbGzsggULDh8+TB02qXL9v+Xl5dyGTp066Qs85hwHg1JeB4uJfv36acLxwsLCzz///KWXXmrevHloaGhwcHBQUJDaTfyLL77gNVc3yZUrVzifE/ZGmA4EpeqT0GrAzG1Qe/DyY8pqULpu3TouTAkaSUwI0bRpU80kfIUABCDwNAmoJyU2BqWtWrWyeEDRZKo9nWw/srz33ntcz8KFCzXU6mgIHJSqTx/xvPoE9yhWg1Ls5DXC+AoBCHiOgLr/1+8z1RwOSvkZDSHEqVOnNFbqfZ3atWvzVDVesB6U3rlzh5cbHBzMNXBC7c/4t7/9jfJ5BAF6G8i1a9eoEro7OmnSJPr67bffSilXrlxJX0NDQ+lG5a1bt3ih1hP79u2jJaprpI+A/vGPf3A9mqcXpZTffvstT+WEn5/fCy+8sGDBAo57eZUpwV2jW7ZsqZn0+L86Myj18vLq0aOH/jL2yZMnGzZsyEAWE5UFperjv6zzGILSYcOGcTvT09N50ZxQh9I6cOAA5atB6a5du7gwJeilMghKNSz4CgEIPH0C6kmJjUEpdz3ifa/FBPfdsuvIol5n/PLLLzXgy5cv52VxUDp06FDOtJLgJzjUoJQ7dGkWhK8QgAAEnnoBdf9vMBhqV/556aWXSKNJkya8m7106ZKGqLS0lKcaDAaeqoZw1oPS3377jWsIDw/nGjjx448/cgF+JpOvV1LAxg+S0Pg43333Hc1CvW9GjRpFXwcNGkTV5ubmcp3WE9RhWNN9Vx8BqZdKs7KyuPGcSEtL43uzmiUGBgZavMcWHh5OJcPCwrieJ5VwMCgNCQn5t/I5duxYbm4uj0uhrkxZWZn6WtHhw4d///33J0+ePHPmzOzZs5mssqCUf2RqnY8hKB03bhy3TX8GI6WMiYnhAjxKE4JSdTMhDQEIeKyAelJiY1DKowoJIRYvXpxRyYeOxPYeWaZMmcJ7bP1bQ/nMQx3oSH05zdixYytpTsb3339PW1kNSjFwgMf+8rHiEICAA/v/qKgo3kWrQxARZkFBAU+tWbMmC9selN68eZNrsBh9bd++nQu8+uqrtIhTp05xZn5+Pl+p/Ne//iWl5JF4o6KipJTc2Wf58uU0+40bN3j2kJCQyg4iGRkZPFaCxTXi9Z08eTJXyK+c4amUuH379rJly1599VV+wJVnEUJs3rxZU56HALQYq2sKV/dXB4NSG08ypJT79u1jDnVUZSml2p3a1YJSHnRLCKEZgfpRZ2Cz2cwjLAsh+G2lCEqr+/eK+iEAAbcQcOCkpHv37nyw4FElKltZe48snygPiE6ZMkVTrXofle+UqpdN1Ve/aOblrwhKmQIJCEDAkwUc2P/36tWL9//6nobZ2dk8tU2bNmxrMYSzuCsuLy9XbyHyqOlclXppkge2NZvNoaGhtOjdu3fTTUU/Pz++CdexY0eaeu7cOX5/GA9oVFZWxg8qBgUF8bKsJCyuEZdXj0o7duzgfIsJs9l88eLFlStXdunShfW6du2qKcwt5F4/mgKP82u1B6Xcx1oIoY6GLKVUT0HUS9fWN4nmAVHNq2ArCwvVm6u2zHLo0CHehG3bttVskiNHjvDUZ599lqdWtnQqgO67DIUEBCDwdAs4cFLy7rvv8n5VMzRiRUUFv5SL3Ow9suzatYsr79ixo4pvNptbtGjBUzko/eGHHzhTPxqkZtwEKaXFMyF1QUhDAAIQ8AQBB/b/H330Ee9vOSZkK/UmljpSncV4obJdsRr30lOgXL+Usnfv3twA9XbioEGDKJ/Hw+POvY9m54c8eVRezf1GjlqFEOfOnVOXqHmvB02yuEY815IlS7iRX3/9Nedzory8XP8kqslk4kcOmzRpwoU1hy0eH0Et8JjT1R6Url27lgXVO6Vff/015wshZs6cyWtufZNIKWfMmMHzanpIVxYW2juL2WxWn7pW31jz8OFDdeToJUuWcMsrWzoVQFDKUEhAAAJPt4B6UhIaGnrF6oeGBzxx4gTv2Fu1asWXoqWUM2fO9PLyqlevXtu2bekitL1Hlj/++CMgIIDrV4eIUN9Qp3bfLS0t5Wvkfn5+6vkEvRUsODg4MjKSh0Cs7Ezo6d7QWDsIQAACGgF1/29jz8pr167xLbvAwEC1B6/RaAwLC+O9tzoMksV4obJd8aZNm7iSNm3aPHjwgJv9z3/+kyc1aNCgtLSUJ6WlpdEkHhBo7ty5PDUzM1Mz9c033+SpUspFixZxzTRaEk01m83du3f38/Nr3LhxQkJCeXk55VtcI65w8+bNXNu8efM4X0r5ww8/tGrVigz5oUIuwG+m0dwO/fXXX7nCIUOGcPknlaj2oPTcuXO8wkKIIUOGfPbZZ4MGDTIYDK1atWrQoAFNjYqK+vnnn6lTtfVNIqVUzyHq1KmTmpo6f/58ejC6srDQgVn27t1L7yASQnh5eY0aNWrVqlULFy6Mjo7mNYqNjVVHW65s6bR1EZQ+qV85lgsBCDxmAfWkhHeYlSX2799Pzevbty+XiYmJWbly5ebNm8ePH8/dovr27UslHTiyjB49misPDAycPn16enr62LFjvby86taty5N46H8ppdqhKywsbMGCBVu3bv3oo4/4WZ2GDRvymU1lZ0KPWR6LgwAEIPBkBdT9v41BqZRS7ZsaHBz8wQcfpKenz5gxgy8OCiE072i0GC9Utis2mUwcmwkhoqKiFi1atHLlypSUFI6HhRAbN25U9dSwjQ4T//73v7lAcXGxv78/Hz6EEOvXr+ep9NwpjyQkhOjXr19GRsa6devUV6DZ3ldUheWjIS0uLy+P31VZv379+fPn79y5c/fu3d98883gwYO5hWpELaVUL+/yu1XV9j/mdLUHpVLK/v37MwcnatasmZ2dPXz4cM7ht41b/JGpLpcuXdL8CIQQ9MhvZWGhA7NIKVevXq3+UtWmCiFiYmKuXbumNqyypVMZBKWqFdIQgMBTLKAeOzV7Tv1XDkrv3LkTGxurL0A5HTt2VF/+ae+RJS8vTz054KU888wz6ltM1fMDs9nM7zfn8pwICwtTn32t7EzoKd7KWDUIQAACegF1/297UGoymdTh5XhPy4nk5GTNcxMW4wUru+I7d+5wR1aulhPe3t7qADe8XurIwLVq1aqoqOBJmkcRhRD6N68cO3ZMve7Ji6PEmDFj1AotrpG6OL6Zpx+uaePGjT4+Ppr61a8JCQnqTWAppTqc76FDh9QFPZH04whKi4qK3njjDW9vb6bp0aMH3Zo3Go3t27enfC8vL/o1VLlJpJTr168PDg7mCmvXrk0vC7USFjowi5Ty1KlTAwYMUPt9PbqO8swzz8yfP1/tXUYbz8rSpZQISp/ITxwLhQAEHr+AelLCO+rKEhyUSikfPHgwa9YsPu7SLI0bN05NTeV7krQ69h5ZpJSXL19WHyvy8fEZMGDArVu3du/ezW2bM2eOhuvrr79Wn+YQQtSoUWPs2LGaR3esnAlpKsRXCEAAAk+xgLr/tz0oJZDt27fHx8dzR0UhhMFg6Nixo+YGJhW2GC9Y3xWXlpZ+/vnn6mtBhBABAQF9+/a1+JIVKaV6aVJzf1JKOWfOHD58qKPMqNv36tWrI0eO5CiAysfGxuqfC7W4RmpVAwYM4MVduHBBnSSlzMrKSkpK0sQsQog2bdosW7aMOwnzXNz3MyAgQO34yQUec8KOoPQvtuzevXsH//z8/vvvmqpu3rz566+/Wnz7i6ak+rW0tPT06dNHjx7Nzc3VjIGhFlPTDsxCs5eUlJw6dWrv3r1HjhwxGo1qnUhDAAIQgIDTBS5evPjTTz8dPnzYaDRa2cM7cGS5du3agQMHsrKy8vPzbW/277//fuTIkQMHDuTm5mouNtteCUpCAAIQgECVAvn5+VlZWXv27LF3R11lzVzAaDQePnx47969p06dejzxWFlZWU5Ozr59+06cOJGXl8ctsSuRkZHBQWlqaqrFeUtLS8+cObN///7MzMx///vfag8jtfzZs2e5Kn63qlrg8acfX1D6+NcNS4QABCAAAQhAAAIQgAAEIPAUCBQXF/NDtuHh4fqbn7av46RJkzgoVQf/s70Gp5dEUOp0UlQIAQhAAAIQgAAEIAABCEDAyQKpqakcTGrGVbJ9SXfv3uXuxDExMbbPWK0lEZRWKy8qhwAEIAABCEAAAhCAAAQg4ASB+/fv8ztymjVrphn8ycYFTJ48mSPbH374wca5qrsYgtLqFkb9EIAABCAAAQhAAAIQgAAEnCCwcuVKDikXLFhgb43nz5/38/OjGl5++WV7Z6++8ghKq88WNUMAAhCAAAQgAAEIQAACEHCagNlsTk5OjvnzEx8ff+/ePbuqnjBhAs0bFxd39epVu+at1sIISquVF5VDAAIQgAAEIAABCEAAAhCAgDUBBKXWdDANAhCAAAQgAAEIQAACEIAABKpVAEFptfKicghAAAIQgAAEIAABCEAAAhCwJoCg1JoOpkEAAhCAAAQgAAEIQAACEIBAtQogKK1WXlQOAQhAAAIQgAAEIAABCEAAAtYEEJRa08E0CEAAAhCAAAQgAAEIQAACEKhWAQSl1cqLyiEAAQhAAAIQgAAEIAABCEDAmgCCUms6mAYBCEAAAhCAAAQgAAEIQAAC1SqAoLRaeVE5BCAAAQhAAAIQgAAEIAABCFgTQFBqTQfTIAABCEAAAhCAAAQgAAEIQKBaBRCUVisvKocABCAAAQhAAAIQgAAEIAABawIISq3pYBoEIAABCEAAAhCAAAQgAAEIVKsAgtJq5UXlEIAABCAAAQhAAAIQgAAEIGBNAEGpNR1MgwAEIAABCEAAAhCAAAQgAIFqFUBQWq28qBwCEIAABCAAAQhAAAIQgAAErAkgKLWmg2kQgAAEIAABCEAAAhCAAAQgUK0CCEqrlReVQwACEIAABCAAAQhAAAIQgIA1AVuD0vP4QAACEIAABCAAAQhAAAIQgAAEnC2AoNTZoqgPAhCAAAQgAAEIQAACEIAABGwWsDUotXa3FdMgAAEIQAACEIAABCAAAQhAAAIOCSAodYgNM0EAAhCAAAQgAAEIQAACEICAMwQQlDpDEXVAAAIQgAAEIAABCEAAAhCAgEMCCEodYsNMEIAABCAAAQhAAAIQgAAEIOAMAQSlzlBEHRCAAAQgAAEIQAACEIAABCDgkACCUofYMBMEIAABCEAAAhCAAAQgAAEIOEMAQakzFFEHBCAAAQhAAAIQgAAEIAABCDgkgKDUITbMBAEIQAACEIAABCAAAQhAAALOEEBQ6gxF1AEBCEAAAhCAAAQgAAEIQAACDgkgKHWIDTNBAAIQgAAEIAABCEAAAhCAgDMEEJQ6QxF1QAACEIAABCAAAQhAAAIQgIBDAghKHWLDTBCAAAQgAAEIQAACEIAABCDgDAEEpc5QRB0QgAAEIAABCEAAAhCAAAQg4JAAglKH2DATBCAAAQhAAAIQgAAEIAABCDhDAEGpMxRRBwQgAAEIQAACEIAABCAAAQg4JICg1CE2zAQBCEAAAhCAAAQgAAEIQAACzhBAUOoMRdQBAQhAAAIQgAAEIAABCEAAAg4JICh1iA0zQQACEIAABCAAAQhAAAIQgIAzBBCUOkMRdUAAAhCAAAQgAAEIQAACEICAQwIISh1iw0wQgAAEIAABCEAAAhCAAAQg4AwBBKXOUEQdEIAABCAAAQhAAAIQgAAEIOCQAIJSh9gwEwQgAAEIQAACEIAABCAAAQg4QwBBqTMUUQcEIAABCEAAAhCAAAQgAAEIOCSAoNQhNswEAQhAAAIQgAAEIAABCEAAAs4QQFDqDEXUAQEIQAACEIAABCAAAQhAAAIOCSAodYgNM0EAAhCAAAQgAAEIQAACEICAMwQQlDpDEXVAAAIQgAAEIAABCEAAAhCAgEMCCEodYsNMEIAABCAAAQhAAAIQgAAEIOAMAQSlzlBEHRCAAAQgAAEIQAACEIAABCDgkACCUofYMBMEIAABCEAAAhCAAAQgAAEIOEMAQakzFFEHBCAAAQhAAAIQgAAEIAABCDgkgKDUITbMBAEIQAACEIAABCAAAQhAAALOEEBQ6gxF1AEBCEAAAq4tcPDgwV3/+VRUVLh2Y9E6CEAAAhBwXCAnJ2fXrl379+93vArM+dgFEJQ+dnKXXGBxcfH27dvnz58/Y8aMJUuWnDx50iWbiUZBAALuIVBSUpJZyWfPnj2HDx++cOFCWVnZ41yZuLg48Z9PUVHR41y07csymUwHDhwguUOHDtk+I0pCAAIQcB2BU6dO6Y8HWwQNAAAgAElEQVQA+/fvz8rKunXr1mNo5+jRo4UQUVFRj2FZdi2irKzsX//61/z58//xj3/MnTt348aNd+7csauGp7gwgtKnauMWFhZeu3bNZDLZtVYrVqyoVavWf87W/v//L7zwwuXLl+2qB4UhAAEIkMCVK1c0uxT9V19f3169em3fvv3xoLl+UHr27NnOnTszVNOmTR+PDJYCAQhAwLkCffr04V2ZPtG4ceNp06ZVazDmmkHpxo0bGzZsqAHx9/efNm3aY75K69zN7azaEJQ6S9Il6unfv78Q4ubNm7a3ZsmSJfTn0aJFi3ffffeTTz4ZMWJEYGCgECI8PPzxXNCyvbUoCQEIuIWALUEpH5hHjRr1GFbKlYPSsrKyOXPm+Pn5sYkQAkHpY/hVYBEQgEB1CFBQ6uPj00b5REZGqrdAwsPDr169Wh1Ll1K6YFC6bNky2sMHBQUNHz585syZo0ePbtCgAWW++eab1UThRtUiKHWjjVV1Uxs1amRXUGo0Guk0aODAgQ8fPuQF/PLLL8HBwUKI4cOHcyYSEIAABGwUUINSPz+/BOXTo0ePZ5991tvbWw3A1q9fb2PNDhdz2aD05MmT7dq1UzUojaDU4W2NGSEAgScrQEFp/fr19c04f/78iBEjaC/32muv6Qs4JcfVgtJLly7R+Xb79u3V+z3379/v2rUraWRnZztl3d23EseDUtOfHxvXvLi42K6BJUwmkxojqUspKSmxsXtqSUmJXQtVl6JJFxcXa3Kc8rW8vLy0tNSuqioqKkpKSizOYjQa6Wdt+53SqVOnCiFq1659//59TZ1Lly4VQnh7e1+7dk0zCV8hAAEIWBdQg1KL5yVGozEmJoZ2WUKIV155xXqFZrP5/v37ZrO5smLFxcVWpkop/2JQavuhh1pYZYN5RSZMmEAODRs23LRpk7+/P31FUMpESEAAAu4lYCUolVKazWbaIfv7+1vfb1s5SbYeWTgclJrNZrvO+c1msy09b2fOnEk79rNnz2o2ZU5ODk36+OOPNZM87at9QanZbM7IyEhMTAwNDTUYDEKIunXrJiYmZmRk6H9VJpNp7dq1PXv2DAoKEkIYDIaGDRsmJydnZWVplOfMmRMXFzd58mQp5c6dOzt16uTr62swGBo3bjxjxozy8nIpZX5+/vjx4+vVq0eR0vPPP3/gwAFNPfR1x44dL7/8MvUQMBgM4eHhY8eOvXTpksXCVjJLS0sXL1783HPP0SmCr69v27ZtZ8+ercZvaWlpcXFxHTp0uH37tsWqPvnkk7i4uOeff16NJHNycoYPH96wYUMyDAkJ6d+/v351bt26Fffn59y5c2VlZR999FGLFi3o9kK9evXGjh179+5dWmhhYWFcXFxUVBT9rGNiYuLi4oYMGWKxSWpmy5YthRCjR49WMyldUFDg5eX1KGT96quv9FORAwEIQMCKQJVBqZRy8+bNtMsSQsTExKi19enTh/Z+1Flj7dq1YWFhQoi+ffuqxYxG49SpU6Ojo+kKtLe3d9OmTUeOHHns2DG1GKUrC0rv3r3bq1cvWlzXrl2NRiPPW1FRsXr1aj6KeXl5NW/efOrUqfpHoWxsMNesJiZMmODl5fXWW28VFhZKKRGUqjhIQwAC7ihgPSiVUvLFuAcPHvAK7ty5My4urmvXrlLKTZs2RURECCHeeustLmB7ZFFZUHrnzh3a4ScnJ6sRb15e3rRp06Kioug0OzAwsHv37qtXr9bfBktKSoqLi/vmm2/u3r07aNCggIAALy+v33//nRtpMbFu3brRf370U00mE+32J0yYoJ/qUTn2BaXJycl0DuHv79/0z4+vry/lDBkyRI1LHzx40Lt3b5pUp06d5557LiYmhgobDIbPPvtMVaafZo8ePTZs2GAwGIKDgyMiIigiEkKMGzeuoKAgMjLSYDA0a9aMupUKIXx9fU+dOqXWU15ePnz4cFpocHBw586d27ZtSz+vgICAXbt2qYWtp2/evNm+fXuqqkmTJvHx8c2aNaOvERERubm5NPupU6coc/ny5foKH/3xUH/agQMH8tQvv/ySVs3Pzy82NrZjx470AKcQYsaMGVxMSnnnzh2qfM+ePQkJCUKIevXqtWjRgstHR0fTXxSXpPL0b5s2bdTa9Gmea82aNfqpUsq2bdsKIYYOHWpxKjIhAAEIVCZgS1D6/fff8y6rT58+alWtW7emSZGRkdnZ2Xw4SExM5GJr1qzh+I3r4cTEiRM1PWUsBqWlpaXcdcrb23vnzp1c/+3bt9Vhh7hmIURoaKhmiHJbGsw1axJfffXVkSNHOJNXCndK2QQJCEDAvQSqDEqHDh1Kp7Xqem3YsEEI4eXldfLkSd7t840TuyILi0HpgwcPOnXqRGOmqI+zHj58OCQkhO6ftW7dOj4+ni6DCiF69+6tuXFKt3PmzJkzYMAAPi78lU6F5eXlFKp8+OGHqoYHpu0ISnfu3En68+fP5y10//79uXPn0h2/DRs2sGBKSgr9sJYuXUq3OqWUd+/e7devH2119d1BkyZNEkI0a9YsLCxsxYoVdCZx+/btLl26UPD56quvdurUiQeD3bZtm4+PjxBi5MiRvEQp5YwZM6jy+fPn80KvX79OEV2NGjWuXLmilq8sbTKZ6DQlODj4+++/52JHjx4NDw+ni/pcP0VuL774IhfjxL59+0iM4+HMzEyyGjJkSH5+PpUsLi6eMmUKldy8eTPPfu/ePcrs3LnzM888w68HKC4uHjduHE365ptvuPw333xDmTZ23z106BCVP3jwIFeiJmjYpA4dOqiZSEMAAhCoUqDKoNRkMtHhgPZCK1euVOvka4INGjQYPHgwlRFCcFC6adMmzhRCdOnSZcyYMX369OHrpEKIqVOnqnXqg1Kz2fz6669zPatWreLyFRUVL7zwAk9KSkpatmzZrFmz6tatS5mNGjVSe81U2WCuucoEgtIqiVAAAhBwcQHrQemNGzfoDtOUKVPUFfn2229pB/vaa6+1bdt2y5Ytx48f5/6udkUW+qC0vLz8pZdeokj4119/5eXevHkzNDRUCNGuXbtz585RvtlsXrt2Le2Nx48fz4WllNHR0UKIAQMG+Pj4vPfee4cPHz548KDaHVItbEuar8/qu0zaMvvTVMaOoPSdd94RQkRGRurXf8KECd27d//yyy9p0pUrVyj00vzapJSlpaVNmjQRQvTq1YvroZqFEJo71z///DP9OgMDAzV3xvv27SuEaNmyJVeSl5dHPbj4mgpPun//fv369emmK2daSWzbto2Wq4Z8VP7o0aM0KSMjg3IWLlxI4bf64DJNor+f+vXrcwRLz1BFRUVxDjfj5ZdfFkK0atWKcwoKCmhZfn5+Fy5c4HwpZXFxMd0vVVfW3qB0y5YtVP9vv/2mVs7p8ePHCyEaNmzIOUhAAAIQsEVADUpr1KgxW/nMnDlz3LhxzZs3p/0Pdcqt7K6m358feu4jJyeH+uX+8ccf3GXmUQ+aTZs2cZOOHz9es2ZNqtlgMPDZjMVnSuk6JhWeO3cuVyKlXL9+PTdvzJgxPCk3N5eDxlmzZnE+R7wWG8zFbElw/bhTagsXykAAAi4oQEFpvXr17iifvLy8M2fOLF++vGnTpkKI+Pj4goICtfHbt2+nHW+jRo00T0nYG1loglKz2UxdKevUqZOTk6MulG6M+fn56U+G58+fT2f4169f51noTN7X13f27Nmc6XCipKTk2WefFUJ07txZ7XDqcIVuPaMdQSl1sm3UqFGVT/RSnCaEuHjxol7n0XtHaBvzZWYOSjWhF0dl+uG56GQiKCiI66eBeYQQFm+HTps2TQgREhJiyyanO/IREREWC3fo0EEI0b9/f1r09evXqY/BsmXLuDFSyrKyMuoMwFfrT58+TX9sFrvL8pUS/mvh1edlqfVTM1566SXOtDco/frrr6k9moCfKyS0WrVqcQ4SEIAABGwRUINSju70iXbt2qWnp+sf2uEYTwjx4osvanbFPLC+EGLw4MGa9vB4EkKISZMm8VS1zqKiojVr1nB73n77bS5GiZ49e/JUfl6DJvG4kc888wzPpVaubzAXsyWBoNQWJZSBAARcWYCCUt6LahL169f/4osv1Ec6aV04KJ0+fbpm7eyNLDRBKZ3QBgUFHT16VK3ZbDbTbVJN10sqU1hYSB1rlyxZwnNxUMpRDE+yN/Hw4UO6xxYUFKReQrW3nqemvB1BKd9Y69mz56FDh/SnEYxCva1CQkI4R01s3LiRfp3ca5SCUh8fH83FcpPJRCVTU1PVGqSUCxYsEEL4+PhwPvXCqlu3Lueoia1bt1JVtox4RA+C6iNhqnDixInUH53r79WrlxCiW7dunPPo/v6uXbtoib/88gvlr1ixQpOjls/Pz6ep6enplM9B6bx589SSlKaF9ujRgyfZG5Ryeyobpen9998XQvj7+/MikIAABCBgi4CNQSl1eJk3b56m75Ma423dulWzRLXfr3qblIodO3aM9qVCiPbt2/O8ap07duzgjr4DBgzQHM4qKir40X1/f/979+4VKJ958+Zx/Tdu3KD61cr1DeY22JJAUGqLEspAAAKuLMBBqf9/f6gfpRAiODj4rbfe0jxuxkGp+ugcraa9kYUalH722WdCiICAgH379mnQLl68SPtzzY0lLkbP6KnvR6Sg9K8/2lZQUNCjRw86zf7xxx95iZ6csCMo5XvftP1CQ0MHDx68YsUK9aY2UdKzoJrRFFn54MGDVMOWLVsok4JSi91EqeTnn3/Os1Ni0aJFNAwv53fr1k0IUaNGjS6WPvSrenR/nJ5lvXTp0nTdZ8eOHVJKk8lEfzONGjWyVFMXeqzUYDDweczatWvp3q96y5GC5NjYWG7hrFmzaHU6d+5ssWaayv0BOCi1OP5tYmKiEKJ79+5cv8WgNDMzU7ei0ylO5v5p6miTXNujvtZ///vf6faymok0BCAAgSoF1KA0KCho7n9/pk+f/vrrr9euXZt2etRziYcq0HS11Xd+adOmDc+oGe6OhmrnqbVr1+amqnFjjRo1uIw6tCMVvnXrFk+1nuBTHLVyfYNTUlLq6j78wAu3kBIISjUg+AoBCLidQGXPlJpMpitXrqxYsYJ68DZq1IjHi5FSclCq37HbG1lwULp+/Xo6q//iiy/0jDz4S+vWrS2emdNxSj3ZpqC0X79+mtqsRBaaklLKS5cutWrVioJzPErKPnYEpTTP+vXr4+Pj+VIHDSz0yiuv8MPBUkraYPHx8bwYNXHixAk6zH/99deUT0Fp48aN1WKUppL6X5I+KFXPCaycRnz33XdSyv379+vL0BOtRUVF+kkWc2j4fillUVERXVbn+/vFxcX0IpylS5fyStFLQS1WpWbSq3GklByUpqWlcSWcsDEonT17tlo5pelywI4dO+jrmTNnuFo1MWrUKCFERESEmok0BCAAgSoF1KDU4ntKpZQPHjzo3r0776DUgQfV/bm+ixQNTEAz6ju/lJaWcp0Gg4GbqtbJBeh6oqZDV25urlrASnrbtm1Uv1q5vsFDhgzRV7Jo0SJum5pAUKpqIA0BCLijQGVBKa/LrVu36C2PvXv35kwOSs+fP8+ZlLA3sqCgNCgoiDvFNG/eXL9z5l6N+l20mqN2uqGW6F+7aCWy0KzLzz//TH2GmzVrpkZPmmIe+NXuoJSMbty4sXbt2mHDhhGrEKJmzZr8BCkNo6/eJFRlDx8+TFuaR5p1SlBKd0qjo6OvWP3QxfizZ88O0X1Wr16t3ikdM2aM1Zqu8J1SKSWNbd2lSxdaU+qi7Ovry68SlVLyndIzZ85YqZlH5XVKULplyxbdig6hM7AzZ87Qhqis2wD1EE5ISKCVwr8QgAAEbBSwJSiVUvJodkKI1q1bc+VqjFdUVMT5lOB3Mj8aJEn/HA7vOenAxPOqdQYEBEybNo1fORATE6M+PHLjxg0+HQkJCcmo/MMvFVAr1zcYQSlvBSQgAAFPEKgyKJVSTp48me5s8amylaDU3siCglLqHDtr1iy62Ddo0CANPt8pXbVq1ZXKP2pHyMqCUiuRhbrQHTt20LCsPXr04BVXC3hy2sGglMnKy8vT09NpYyclJVH+3/72NyFEgwYNuJia4Mc7+a0wTglKqbt5eHi4uizH0nTxZsSIEbbP/uOPP9KfFr2qiAQ0AxR99dVXdKKj9lWwsgg+tford0qt1P/w4UP6w1i4cKHFYvSapnfeecfiVGRCAAIQqEzAxqD0/PnzHP7VqVOHa7Me49H1MpqRX7jF82ZnZ3Od6uua1Tqzs7OllG+//TaXVN+eXVZWxhfX1eH0eBH6hFq5PijNzMxM0330/dOoWtwp1fMiBwIQcC8BW4JSGh1GCHH69GlaOytBqb2RBQWlNWvWpLdA8/B4mmdHz507R0cBui9lC3JlQakt82ZmZtIe/vXXX3/48KEts3hUmb8alBIWvWazZs2a9DU1NZW2sXppgVn5baI8ErRTglL+cfPIE7xEexP0dpaoqCjbZ6yoqGjQoMGjC/PLli0rLCyk3xw9pMqV8PAb/DoZnmQxUd1BqZSSzu3U1/NwS44fP04bsbL7qFwSCQhAAAIaARuD0sWLF3NYqO5yrcd4H330Ec+leZGYlFIdiEh9v5y+zvz8fH7vaFBQkPr2844dO/IiNN2rLI4/r69cA2L7VwSltluhJAQg4JoCtgSlY8eOpd0sj01jJSi1N7LgZ0rZh96s4e/vTxclKd9kMtHTduPGjeOS1hMOB6UnTpygZ/3efPNNzZDy1pfoOVNtDUrz8/PHjBkTFxfHfXRVI/qthIaGUia/+2TBggVqMSllRUVFixYtNCP0OCUozc3NpSdd1XfH8dLT09OHDRv27bffco6VxMqVK+nvhAexUAtP+vOTlZWlZkopKTJPTExct26dECIsLEzzMlKTyUSDJKkPTHMlOTk5ffr0Wbp0KY9CaW9QWuXARbwsTtBbYQwGg/onSlMHDRokhGjcuDGu5TAXEhCAgI0C1oPS8vJyo9G4ZMmSgIAAjv3UThnWY7xr167xnczAwEC1B6/RaKQuHlStejfSYp1paWncALVvCw1bQJPUcRfNZnP37t39/PwaN26ckJDAO3mLldtopSmGoFQDgq8QgIDbCVQZlObm5lI0GBkZyWtnJSi1N7LQB6UFBQURERFCCM3DpfT8XZ06dfjpOW5PSUlJUlLS7Nmz1UuWjgWlxcXFkZGRQoiEhAT1aRFeFhJSSluDUrPZ3KxZM3rX7a1bt1Q7o9FIsZbaVzspKUkIERQUdPjwYS5cXl5OLzt9NFL/7t27Od8pQamUMjk5WQjh5+fHT6vSInbt2kU//RkzZvBCrSSKi4tpZZs0aaIOAlReXs5X6DMzMzU1nDx5koacpnXn8YrUYsuXL6eznHfffZfPZqSUFy5coKek+KlUBwY62r17N1W+fft2daFW0hUVFa1btxZCNGvWjOPShw8f8ov+Vq5caWV2TIIABCBgUUANSjnqs5IICwtTjyxVxnjqEG7BwcEffPBBenr6jBkzeJgDIYTm7aMW6zSZTLGxsdww7gxcWFhIxzWa1K9fv4yMjHXr1tEIc5SpDgtvsXKLMvrMESNGNFc+PI6gj4+Pkt3c4kVSfW3IgQAEIPDEBSgoDQsLu/nfH6PRePTo0Y8//ph7qajv0LISlEop7Yos9EGplPLo0aN0QVMNWE6fPk3PsiUkJKhxaUFBAb1+rHbt2nfu3GFSx4JSutDp4+Nz7Nix/yb53295eXm8FM9M2BqUSikzMzNpW/r6+vbo0WP48OGjRo3q1asXXequV6/eb7/9xog3btxo2bIlvbWld+/eEydOfOONN2gAaCGEOsqilNJZQWl+fj6fXsTGxo4aNWro0KH8Mphu3brpH/XhBmsSJ06cCAkJoVehJiQkpKSkDBw4kN5fKoSYMmWKpjx9jY6O5pMb9Qq9WnjkyJFUJjw8fNiwYW+++Wb37t1pvI0mTZqo/cTsvVN68+ZNusQeEBDQpUuX6Oho9a9LbYOaPnfuXJ06dahJzz777PPPP08rLoR488031ZJIQwACELBRwK6gtE2bNuquT/NKGIv7bZPJxF2/eK+rJpKTkzW9PCqLGw8dOsQzRkRE8Jtpjh07xqdNXIATY8aMUa92V1a5LVwJCQlcrZUEB8y21IkyEIAABJ6gAAWlVnZoQojAwMAVK1aojbQelNoVWVgMSqWUCxcupFapD5euWrWKzsNr1arVv3//lJSUpKQkenOYv78/v8CSmupYUKoGCJWx1K1bV9XwwLQdQSldY+jVq5ePj48KGhgYOGLECP27Lu/evTthwoRatWqphdu3b69eFCFxZwWl9HaWDz74QL1YLoQIDw9PTU3VnKBUubEvX778+uuv8yvUaS06dOiwYcOGyubl51rVwaM1hc1m86pVq+gmPsvUqlUrJSVF8zSsvUGplDItLY2u9wghfH19bQlKpZRXr17t378/d4cTQjRt2vTLL79El3fNtsNXCEDARgHrQanBYAgKCoqMjExOTt68ebPabYTqtzHG2759e3x8PA+iS6PNdezYcePGjfp2Wqlz2LBhvDeePn06z3v16tWRI0eqLzUVQsTGxvL7zLiklcq5TGUJBKWVySAfAhBwU4HKglJfX9/Q0NCuXbumpqaqfWJpNa0HpVJK2yOLyoJSs9n8yiuv0Ki83ENQSvnTTz9169ZNPZr4+PgkJSVpXhjGr73UvxLG+pZSB43nw40mgaDUvqCUxIuKirKzs/fs2bNv375ffvnF4qgPvG3KyspycnL27t175MiRmzdvcn61Jsxm8/nz5w8cOHDkyJGrV6+q726xd7klJSUnT57cu3dvdna2c2+sG43GQ4cO/fTTTxcvXiwtLbW3YZWVLyoqOnXq1Pnz5+2ts6CgICsra//+/RcuXEA4Whkv8iEAAVcTyM/Pz8rK2rNnT1ZWlo1X4uxaBTqK7du378SJE849CtjVDBSGAAQgAAEpZfVFFvfu3Tt27BhFN/qXmgK/ugUcCUqru02oHwIQgAAEIAABCEAAAhCAAAQ8RABBqYdsaKwmBCAAAQhAAAIQgAAEIAABVxRAUOqKWwVtggAEIAABCEAAAhCAAAQg4CECCEo9ZENjNSEAAQhAAAIQgAAEIAABCLiiAIJSV9wqaBMEIAABCEAAAhCAAAQgAAEPEUBQ6iEbGqsJAQhAAAIQgAAEIAABCEDAFQUQlLriVkGbIAABCEAAAhCAAAQgAAEIeIgAglIP2dBYTQhAAAIQgAAEIAABCEAAAq4ogKDUFbcK2gQBCEAAAhCAAAQgAAEIQMBDBBCUesiGxmpCAAIQgAAEIAABCEAAAhBwRQEEpa64VdAmCEAAAhCAAAQgAAEIQAACHiKAoNRDNjRWEwIQgAAEIAABCEAAAhCAgCsKICh1xa2CNkEAAhCAAAQgAAEIQAACEPAQAQSlHrKhsZoQgAAEIAABCEAAAhCAAARcUQBBqStuFbQJAhCAAAQgAAEIQAACEICAhwggKPWQDY3VhAAEIAABCEAAAhCAAAQg4IoCCEpdcaugTRCAAAQgAAEIQAACEIAABDxEAEGph2xorCYEIAABCEAAAhCAAAQgAAFXFEBQ6opbBW2CAAQgAAEIQAACEIAABCDgIQIISj1kQ2M1IQABCEAAAhCAAAQgAAEIuKIAglJX3CpoEwQgAAEIQAACEIAABCAAAQ8RQFDqIRsaqwkBCEAAAhCAAAQgAAEIQMAVBRCUuuJWQZsgAAEIQAACEIAABCAAAQh4iACCUg/Z0FhNCEAAAhCAAAQgAAEIQAACriiAoNQVtwraBAEIQAACEIAABCAAAQhAwEMEEJR6yIbGakIAAhCAAAQgAAEIQAACEHBFAQSlrrhV0CYIQAACEIAABCAAAQhAAAIeIoCg1EM2NFYTAhCAAAQgAAEIQAACEICAKwogKHXFrYI2QQACEIAABCAAAQhAAAIQ8BABBKUesqGxmhCAAAQgAAEIQAACEIAABFxRAEGpK24VtAkCEIAABCAAAQhAAAIQgICHCCAo9ZANjdWEAAQgAAEIQAACEIAABCDgigIISl1xq6BNEIAABCAAAQhAAAIQgAAEPEQAQamHbGisJgQgAAEIQAACEIAABCAAAVcUsDUo/QMfCEAAAhCAAAQgAAEIQAACEICAswUQlDpbFPVBAAIQgAAEIAABCEAAAhCAgM0CtgalrniXF22CAAQgAAEIQAACEIAABCAAATcXQFDq5hsQzYcABCAAAQhAAAIQgAAEIODOAghK3Xnroe0QgAAEIAABCEAAAhCAAATcXABBqZtvQDQfAhCAAAQgAAEIQAACEICAOwsgKHXnrYe2QwACEIAABCAAAQhAAAIQcHMBBKVuvgHRfAhAAAIQgAAEIAABCEAAAu4sgKDUnbce2g4BCEAAAhCAAAQgAAEIQMDNBRCUuvkGRPMhAAEIQAACEIAABCAAAQi4swCCUnfeemg7BCAAAQhAAAIQgAAEIAABNxdAUOrmGxDNhwAEIAABCEAAAhCAAAQg4M4CCErdeeuh7RCAAAQgAAEIQAACEIAABNxcAEGpm29ANB8CEIAABCAAAQhAAAIQgIA7CyAodeeth7ZDAAIQgAAEIAABCEAAAhBwcwEEpW6+AdF8CEAAAhCAAAQgAAEIQAAC7iyAoNSdtx7aDgEIQAACEIAABCAAAQhAwM0FEJS6+QZE8yEAAQhAAAIQgAAEIAABCLizAIJSd956aDsEIAABCEAAAhCAAAQgAAE3F0BQ6uYbEM2HAAQgAAEIQAACEIAABCDgzgIISt1566HtEIAABCAAAQhAAAIQgAAE3FwAQambb0A0HwIQgAAEIAABCEAAAhCAgDsLICh1562HtkMAAhCAAAQgAAEIQAACEHBzAQSlbr4B0XwIQAACEIAABCAAAQhAAALuLICg1J23HtoOAQhAAAIQgAAEIOGU7qUAACAASURBVAABCEDAzQUQlLr5BkTzIQABCEAAAhCAAAQgAAEIuLMAglJ33npoOwQgAAEIQAACEIAABCAAATcXQFDq5hsQzYcABCAAAQhAAAIQgAAEIODOAghK3Xnroe0QgAAEIAABCEAAAhCAAATcXABBqZtvQDQfAhCAAAQgAAEIQAACEICAOwsgKHXnrYe2QwACEIAABCAAAQhAAAIQcHMBBKVuvgHRfAhAAAIQgAAEIAABCEAAAu4sgKDUnbce2g4BCEAAAhCAAAQgAAEIQMDNBRCUuvkGRPMhAAEIQAACEIAABCAAAQi4swCCUnfeemg7BCAAAQjYJnDw4MFd//lUVFTYNhNKQQACEICA+wnk5OTs2rVr//797td0D24xglIP3vi6VTcajZl/fsxms24iMiAAAQjYKlBSUkI7E/2/e/bsOXz48IULF8rKymytzhnl4uLixH8+RUVFzqjSyXVcunQpPT199uzZ77///sKFC3fv3l1cXOzkZaA6CEAAAtUvcOrUKf3Of//+/VlZWbdu3ar+5cvRo0cLIaKioh7DsuxaRFFR0Xfffffxxx//4x//+Pjjj7dt21ZYWGhXDU9xYQSlT9XGLSwsvHbtmslkcmCt0tLSatSoQeds5eXlDtSAWSAAAQiQwJUrV/4TAFb6v6+vb69evbZv3/540Fw5KP3999/79u1rMBg0WMHBwZ9++imuEj6eXwiWAgEIOEugT58+mr2Z+rVx48bTpk27c+eOsxanr8cFg1Kz2Tx//vyaNWuqFEKIwMDA2bNnO3bqrl9xt85BUOrWm0/b+P79+wshbt68qZ1g9fv169cTExPVPxIEpVbBMBECEKhCwJaglPc5o0aNqqI6Z0x22aA0Ly+vWbNmrKFPTJs2zRkAqAMCEIDAYxKgoNTHx6eN8omMjKxVqxbv4sLDw69evVpNDXLBoHTs2LG07k2aNElJSZk1a9bIkSPr1q1LmRMmTKgmCjeqFkGpG22sqpvaqFEje4PSTZs21alTRwjRvn17+hsWQiAordoaJSAAgcoF1KDUz88vQfn06NHj2Wef9fb25lMTIcT69esrr8w5U1w2KH3jjTeYIjAwcPjw4e+8847aWoPB8MsvvzhHAbVAAAIQqH4BCkrr16+vX9T58+dHjBhBO73XXntNX8ApOa4WlGZmZtIqJycnl5SU8DrevXu3Y8eOQgiDwXDmzBnO98yE40Gp6c+PjWrFxcV2DSxhMpkePnxosfKSkhIb73GXlJTYtVCLi6PManqwp7y8vLS01Mpy9ZMqKirUX7NawGg00i/erjulMTExBoNh6tSpDx8+XLRoEdWAoFSFRRoCELBXQA1KLZ6XGI3GmJgY2uEIIV555RXrizCbzffv37fSkbW4uNjKVCmlGuY58Eyp7YceWpEqG0zFCgoK/P39ycHPzy8nJ4dnHzBgAPukpqZa98FUCEAAAq4jYCUolVKazWbaIfv7+1vfb1s5SbYeWTgclJrNZrvO+c1msy3jIyQnJwshQkJC9JUfPnyYdvWffvqp62zBJ9IS+4JSs9mckZGRmJgYGhpKT7/UrVs3MTExIyND/6symUxr167t2bNnUFAQXQNo2LBhcnJyVlaWZlXnzJkTFxc3efJkKeXOnTs7derk6+trMBgaN248Y8YMCpDy8/PHjx9fr149IYS3t/fzzz9/4MABTT30dceOHS+//DL1EDAYDOHh4WPHjr106ZLFwlYyS0tLFy9e/Nxzz9EZg6+vb9u2bWfPnn3//n2eKy0tLS4urkOHDrdv3+ZMNfHJJ5/ExcU9//zzaiSZk5MzfPjwhg0bkmFISEj//v31q3Pr1q24Pz/nzp0rKyv76KOPWrRoQbcX6tWrN3bs2Lt379KyCgsL4+LioqKi6GcdExMTFxc3ZMgQtSWVpfv06bNnzx6aiqC0MiXkQwACdglUGZRKKTdv3sxBV0xMjFp/nz59aO83fPhwKeXatWvDwsKEEH379lWLGY3GqVOnRkdH+/n50aGhadOmI0eOPHbsmFqM0pUFpXfv3u3VqxctrmvXrkajkeetqKhYvXo1H8W8vLyaN28+depU/aNQNjaYa+bEvn37+KbxgAEDOF9KuWXLFvZ544031ElIQwACEHBlAetBqZRywoQJtH978OABr8jOnTvj4uK6du0qpdy0aVNERIQQ4q233uICtkcWlQWld+7coR1+cnKyGvHm5eVNmzYtKiqKdsiBgYHdu3dfvXq1/jZYUlJSXFzcN998c/fu3UGDBgUEBHh5ef3+++/cSIuJtLS0iRMnLlq0SD+1pKSEwoF3331XP9WjcuwLSinQF0L4+/s3/fPj6+tLv6ohQ4aocemDBw969+5Nk+rUqfPcc8/FxMRQYYPB8Nlnn6nK9NPs0aPHhg0bDAZDcHBwRESEl5cXzT5u3LiCgoLIyEiDwdCsWbPg4GDK9/X1PXXqlFpPeXn58OHDaWpwcHDnzp3btm1LP6+AgIBdu3apha2nb9682b59e6qqSZMm8fHx/MxPREREbm4uzX7q1Ckqs3z5cn2Fj/54qD/twIEDeeqXX35Jq+bn5xcbG9uxY8fAwECqZMaMGVxMSnnnzh3K37NnT0JCghCiXr16LVq04PLR0dH0F8UlqTz926ZNG7W2ytLqHWkEpZUpIR8CELBLwJag9Pvvv+ddVp8+fdT6W7duTZMiIyOzs7P5cJCYmMjF1qxZw/cYuR5OTJw4UdNTxmJQWlpa2rVrV5rL29t7586dXP/t27c7d+7MFaqJ0NDQkydPckkppS0NVstr0g8ePPj999/5OiNN3bhxIy/07bff1syCrxCAAARcVqDKoHTo0KF0WquuwoYNG4QQXl5eJ0+e5N3+6NGjqYxdkYXFoPTBgwedOnV69MCI5nHWw4cPh4SE0P2z1q1bx8fH02VQIUTv3r019zZbtmwphJgzZ47ameXatWvqitiVLiwspF39ggUL7Jrx6StsR1C6c+dOUps/fz5vofv378+dO5dC/A0bNjBQSkoK/bCWLl3KfUHv3r3br18/2urqu4MmTZokhGjWrFlYWNiKFSvoTOL27dtdunQRQvj6+r766qudOnW6fPky1b9t2zYfHx8hxMiRI3mJUsoZM2ZQ5fPnz+eFXr9+nSK6GjVqXLlyRS1fWdpkMtFpSnBw8Pfff8/Fjh49Gh4eLoSIiYnh+tu2bSuEePHFF7kYJ/bt20diHA9nZmaS1ZAhQ/Lz86lkcXHxlClTqOTmzZt59nv37lFm586dn3nmmUOHDnH5cePG0aRvvvmGy3/zzTeUaVf3XZ5dSomgVNVAGgIQcFigyqDUZDLR4YD2WitXrlSXxdcEGzRoMHjwYCojhOCgdNOmTZwphOjSpcuYMWP69OnD10mFEFOnTlXr1AelZrP59ddf53pWrVrF5SsqKl544QWelJSUtGzZslmzZvGgFI0aNVJ7zVTZYK7Z9gSd1VEbND62V4KSEIAABB6/gPWg9MaNG3SHacqUKWrbvv32W9rjvfbaa23btt2yZcvx48fPnj1LZeyKLPRBaXl5+UsvvUSR8K+//srLvXnzZmhoqBCiXbt2586do3yz2bx27Vq67jl+/HguLKWMjo4WQgwYMMDHx+e99947fPjwwYMH1e6QamFb0nzujbED7AhK33nnHSFEZGSknnjChAndu3f/8ssvadKVK1co9NL82qSUpaWlTZo0EUL06tWL66GahRCasad+/vln+nUGBgZq7oz37dtXCNGyZUuuJC8vj3pw8TUVnnT//v369esLIcaNG8eZVhLbtm2j5aohH5U/evQoTcrIyKCchQsXUvitf/MS/f3Ur1+fI1h6hioqKopzuBkvv/yyEKJVq1acU1BQQMvy8/O7cOEC50spi4uL6X6purIISlUipCEAgScooAalNWrUmK18Zs6cOW7cuObNm9P+jTrlVnZX0+/PDz33kZOTQ/1y//jjD+4y86gHzaZNm3hNjx8/zgPuGwwGPpux+EwpXcekZsydO5crkVKuX7+emzdmzBielJuby7dnZ82axfkc8VpsMBezPbFq1SpuQEhICF5kZzsdSkIAAk9cgILSevXq3VE+eXl5Z86cWb58edOmTYUQ8fHxBQUFalO3b99O+71GjRppnpKwN7LQBKVms5m6UtapU4cf3adF040xPz+/3377TW2MlHL+/Pl0hn/9+nWeRGfyvr6+s2fP5kzHEkajccqUKdSjUz2gOFbbUzCXHUEpdbJt1KhRlU/0UpwmhLh48aLe6N1336VtzJeZOSjVhF4clemH56KTiaCgIK5/6dKl9FO2eDt02rRp9ISx2seY59Uk6I58RESExcIdOnQQQvTv35/mun79OvUxWLZsmVpPWVkZdQbgq/WnT5+mFq5Zs0YtSWnuycZ/Lbz6vCx1LmrGSy+9xJkISpkCCQhA4MkKqEEpB1f6RLt27dLT0/UP7XCMR/1QNLviZcuWcVWDBw/WrOnMmTN56qRJk3iqWmdRUdGaNWu4mL5zbM+ePXkqP69BVfG4kc8884zFyl988UVNg7mYjYk1a9Zw1zUhxOrVq22cEcUgAAEIuIKA2tGD96WcqF+//hdffKE+0klt5qB0+vTpmrWwN7LQBKUUBQQFBR09elSt2Ww2021STddLKlNYWEgR45IlS3guDko5iuFJNiZSU1ObNm3Kz+J17tx569atNs77dBezIyjlQRd69ux56NAh/WkES1Fvq5CQEM5RE/yczMGDBymfglIfHx/NxXKTyUS/YP3AgwsWLBBC+Pj4cM3UC6tu3bqcoya2bt1KVdky4hE9CKqPhKnCiRMnUn90rr9Xr15CiG7dunHOo/v7u3btoiXy7fgVK1ZoctTy+fn5NDU9PZ3yOSidN2+eWpLStNAePXrwJASlTIEEBCDwZAVsDEqpw8u8efM0fZ/UAFJ/tFb7/aq3SWmVjx07RvtSetMVO6h17tixgzv6DhgwQHM4q6io4NMFf3//e/fuFSifefPmcf03btyg+tXK9Q3mNtiSmD17Ntev74RsSw0oAwEIQODJCnBQ6v/fH+pHKYQIDg5+6623NI+bcVCqPjpHK2JvZKEGpZ999pkQIiAgYN++fRqWixcv0v5Wc2OJi9EzejTkHmVSUNqhQwcuY2+Cb8U9uuZYv3798ePHZ2Zm2lvJU1nejqCU733T9gsNDR08ePCKFSvUm9pkRM+CakZTZL6DBw9SDVu2bKFM2jwNGzbkMpygkp9//jnnUIJ6YHt7e3N+t27dhBA1atToYulDvyohBD3LeunSpem6z44dO6SUJpOJ/mYaNWpkqaYu9FipwWDg85i1a9fSvV+1jzEFybGxsdzCWbNm0ep07tzZYs00lfsDcFD61VdfcSWcSExMFEJ0796dcywGpZmZmboVnc5xMs9LCe7Xru9drCmJrxCAAASsCKhBaVBQ0Nz//kyfPv3111+vXbs27fQe7Zk7d+7MQxVoutrqO7+0adOGZ9QMdyel5At8QojatWtzI9W4sUaNGlyDOrQjFb516xZPtZ7gUxy1cn2DU1JS6uo+/MALt/Dhw4fDhg1Tl8iHAy6DBAQgAAHXF6jsmVKTyXTlypUVK1ZQD95GjRrxeDFSSg5K9Tt2eyMLDkrXr19PZ/VffPGF3o0Hf2ndurXFM3M6Tqkn2xSU9uvXT1OblchCU/LXX3/NzMzcuXPnkiVLaNQbIcTw4cOr7Iiqqefp+2pHUEorv379+vj4eL7UQQMLvfLKK/xwsJSSNlh8fLxFrxMnTtBB9+uvv6YCFJQ2btxYX55K6n9J+qBUPSdQD+qa9HfffSel3L9/vyafn2gtKirST7KYww/5FBUV0WV1vr9fXFxML8JZunQpr9TUqVMt1qPJpFfjSCk5KE1LS+NKOGFjUKq56E7L4ssBXBslEJRqQPAVAhBwTEANSi2+p1RK+eDBg+7du/MO8MMPP+RlqftzfRcpGpiAZtR3fiktLeU6DQaDxTq5AF1P1HToys3NVQtYSW/bto3qt97gIUOG6CvRvBugqKioR48eXCwgIIAPkbwKSEAAAhBwC4HKglJu/K1bt+gtj7179+ZMDkrPnz/PmZSwN7KgoDQoKIg7xTRv3lx/NOFejbzvtZho3749t4daon/topXIgue1mMjIyKCo6v3337dYwHMy7Q5KiebGjRtr164dNmwYdcUWQtSsWZOfIKVh9NWbhCoovyWWR5p1SlBKd0qjo6OvWP3QxfizZ88O0X3ouR2+UzpmzBirNV3hO6VSShrbukuXLrSm1EXZ19dXHeKf75SeOXPGSs08Kq9TgtItW7boVnSI5gyM2ozRd9kBCQhA4C8K2BKUSil5NDshROvWrXmhaoxXVFTE+ZTgdzI/GiRJHcqIpvKekw5MPK9aZ0BAwLRp0/i5zZiYGPXhkRs3bvB5SUhISEbln6tXr1L9auX6BlcZlBYXF9MhjJbbpEmTEydOcMuRgAAEIOBeAlUGpVLKyZMn050tPlW2EpTaG1lQUErvsJw1axYNUDdo0CANI98pXbVq1ZXKP2pHyMqCUiuRhWah+q/9+/cXQtStW/cvjkegr9m9chwMSnkly8vL09PTaWMnJSVR/t/+9jchRIMGDbiYmuDHO/mtME4JSqm7eXh4uLosx9J08WbEiBG2z/7jjz/Snxa9qogENAMUffXVV3TCofZVsLIIPrX6K3dKrdSvn4Q7pXoT5EAAAg4I2BiUnj9/nsO/OnXq8IKsx3j0RD3NyC/c4nmzs7O5TvV1zWqd2dnZUsq3336bS6pvzy4rK+OL6+pwerwIfUKtXB+UZmZmpuk+3D/NbDarT8m2bdv2r7zyTt825EAAAhB4zAK2BKU0OowQ4vTp09Q8K0GpvZEFBaU1a9Y8cuSIlJKHx9M8O3ru3Dk6Ctg+nlxlQal14bKysuvXr2tGG+ZZUlNTqRn37t3jTA9M/NWglMjoNZs1a9akr4yrXlpgXH6bKG8bpwSl/OPmkSd4ifYm6O0sUVFRts9YUVHRoEGDRxfmly1bVlhYSFE6PaTKlfDwG/w6GZ5kMYGg1CILMiEAAdcXsDEoXbx4MYeF6i7Xeoz30Ucf8VyaF4lJKdWBiNT3y+nrzM/P5/eOBgUFqaFgx44deRHqwylSSouP/egrt30b8aiSdLuYj4y214CSEIAABFxKwJagdOzYsbSb5bFprASl9kYW/Ewps9CbNfz9/emiJOWbTCZ62s7Gd0byI4r67ru8IH0iLy+POui+8847+qlSShpCVQjx8OFDiwU8JNPWoDQ/P3/MmDFxcXHcR1cFot9KaGgoZfK7TxYsWKAWk1JWVFS0aNFCM0KPU4LS3Nxc2uQWX/WTnp4+bNiwb7/9VtMei19XrlxJfyc8iIVabNKfn6ysLDVTSkmReWJi4rp164QQYWFhmuGCTCYTDZKkPjDNleTk5PTp02fp0qU8CqW9QSm/WM9oNHK1diVwp9QuLhSGAAQqE7AelJaXlxuNxiVLlgQEBHDspx6trcd4165d4zuZgYGBag9eo9EYFhbGdfLdSM3gSXwzMy0tjQurfVt4Z0jjT/Bqms3m7t27+/n5NW7cOCEhgXfy1hvMs+sT169f55F+hRDr1q07b+mjvupdXwlyIAABCLiUQJVBaW5uLkWDkZGR3HIrQam9kYU+KC0oKIiIiBBCaB4upefv6tSpw0/PcXtKSkqSkpJmz56tXrJ07E7ps88+S31INe9ffdSNuaSkhKKDtm3b8qI9M2FrUGo2m5s1a0bvur1165aKZTQaSVPtq52UlCSECAoKOnz4MBcuLy+nl50+Gql/9+7dnO+UoFRKmZycLITw8/Pjp1VpEbt27aKf/owZM3ihVhLFxcW0sk2aNDlz5gyXLC8v5yv0+uGbT548SUNO07rzeEU8u5Ry+fLldAL07rvv8tmMlPLChQv0lBQ/lerAQEe7d++myrdv364u1Eq6pKTkpvLhp16vX7/O2bhsbwUQkyAAAYsCalDKUZ+VRFhYmHpkqTLGU4dwCw4O/uCDD9LT02fMmMHDHAghNG8ftVinyWSKjY3lhnFn4MLCQjqu0aR+/fplZGSsW7eORpijTHVYeIuVW5TRZKorws3QJ2rUqKGZEV8hAAEIuKwABaVhYWF8MkkJo9F49OjRjz/+mHupqO/QshKUSintiiz0QamU8ujRo3RBUw1YTp8+7efnJ4RISEhQ49KCggJ6sKJ27dpqJOlYUMpvxn7uuefUW7Xnz5/nAXgtvmvDZTdxdTTM1qBUSpmZmUnb0tfXt0ePHsOHDx81alSvXr3oUne9evV+++03buKNGzdatmwphPD29u7du/fEiRPfeOMNGgBaCKGOsiildFZQmp+fz6cXsbGxo0aNGjp0KL8Mplu3bnx1nNtZWeLEiRMhISH0KtSEhISUlJSBAwfS+0sf3V6fMmWKxRmjo6P5ZEK9Qq8WHjlyJJUJDw8fNmzYm2++2b17dxpvo0mTJmo/MXvvlN68eZO6DQcEBHTp0iU6Olr961LbwGl+iww3W5/o06cPl0cCAhCAgC0CdgWlbdq0UXd9ld3VVJdrMpm465d+ryWESE5O1vSDqixuPHToENcQERHBb6Y5duwYnzZxAU6MGTNGHRupssrVNltMT58+neu0kkBQalEPmRCAgGsKUFBqZZ8mhAgMDFyxYoXafutBqV2RhcWgVErJj0uoD5euWrWKzsNr1arVv3//lJSUpKQkenOYv7+/5o0VjgWlUsoxY8YwSMOGDePi4ho3bsxvMxkyZIg6fqrK4jlpO4JSusbQq1cvHx8fZqVf1YgRI/RdRu/evTthwoRatWqphdu3b69eFCFoZwWlj7plFxUVffDBB+rFciFEeHh4amqq5gSlym18+fLl119/Xe1YJYTo0KHDhg0bKpuXn2tVB4/WFDabzatWrYqMjFRZatWqlZKSonka1t6gVEqZlpZG13uEEL6+vghKNfj4CgEIPB4B60GpwWAICgqKjIxMTk7evHmz2m2EmmdjjLd9+/b4+HgeRJdGm+vYsePGjRv1q2mlTvXtoNOnT+d5r169OnLkSPWlpkKI2NhY/ctarFTOtVlMICi1yIJMCEDArQUqC0p9fX1DQ0O7du2ampqq9omllbUelEopbY8sKgtKzWbzK6+8QqPyqncsf/rpp27duqlHEx8fn6SkJP3rKhwOSqWUGRkZHTp0UM//aSiBFStWePi4u/QDsC8opXmKioqys7P37Nmzb9++X375xeKoD/y3VFZWlpOTs3fv3iNHjty8eZPzqzXxaDDD8+fPHzhw4MiRI1evXv0r1x5KSkpOnjy5d+/e7OzsvLw8JzbbaDQeOnTop59+unjxYmlpqbNqLioqOnXq1Pnz551Yp7PahnogAAEIOF0gPz8/Kytrz549WVlZVV6Jc2DpdBTbt2/fiRMnnHsUcKAxmAUCEICAhwtUX2Rx7969Y8eOUXSjf6mps9jz8/OPHj2amZl5+PBh9bkVZ9XvvvU4EpS679qi5RCAAAQgAAEIQAACEIAABCDgUgIISl1qc6AxEIAABCAAAQhAAAIQgAAEPEsAQalnbW+sLQQgAAEIQAACEIAABCAAAZcSQFDqUpsDjYEABCAAAQhAAAIQgAAEIOBZAghKPWt7Y20hAAEIQAACEIAABCAAAQi4lACCUpfaHGgMBCAAAQhAAAIQgAAEIAABzxJAUOpZ2xtrCwEIQAACEIAABCAAAQhAwKUEEJS61OZAYyAAAQhAAAIQgAAEIAABCHiWAIJSz9reWFsIQAACEIAABCAAAQhAAAIuJYCg1KU2BxoDAQhAAAIQgAAEIAABCEDAswQQlHrW9sbaQgACEIAABCAAAQhAAAIQcCkBBKUutTnQGAhAAAIQgAAEIAABCEAAAp4lgKDUs7Y31hYCEIAABCAAAQhAAAIQgIBLCSAodanNgcZAAAIQgAAEIAABCEAAAhDwLAEEpZ61vbG2EIAABCAAAQhAAAIQgAAEXEoAQalLbQ40BgIQgAAEIAABCEAAAhCAgGcJICj1rO2NtYUABCAAAQhAAAIQgAAEIOBSAghKXWpzoDEQgAAEIAABCEAAAhCAAAQ8SwBBqWdtb6wtBCAAAQhAAAIQgAAEIAABlxJAUOpSmwONgQAEIAABCEAAAhCAAAQg4FkCCEo9a3tjbSEAAQj83/bu/DuKKv//+F9wG7MAQVkSkCVGwCASRAIKMhAUiErGETeCLI6yqLgcQOGILK6o44igeBBUZFFQGcEZ5wRRB+IBlE0UBBUDEhDCYkgiSff9cHx/5/253+5K02FiT32aZ/+gl9u3b916VKe6X123qhBAAAEEEEAAAQR8JUAo9dXmYDAIIIAAAggggAACCCCAwLklQCg9t7Y3a4sAAggggAACCCCAAAII+EqAUOqrzcFgEEAAAQQQQAABBBBAAIFzS4BQem5tb9YWAQQQQAABBBBAAAEEEPCVAKHUV5uDwSCAAAIIIIAAAggggAAC55YAofTc2t6sLQIIIIAAAggggAACCCDgKwFCqa82B4NBAAEEEEAAAQQQQAABBM4tAULpubW9WVsEEEAAAQQQQAABBBBAwFcChFJfbQ4GgwACCCCAAAIIIIAAAgicWwKE0nNre7O2CCCAAAIIIIAAAggggICvBAilvtocDAYBBBBAAAEEEEAAAQQQOLcECKXn1vZmbRFAAAEEEEAAAQQQQAABXwkQSn21ORgMAggggAACCCCAAAIIIHBuCcQaSn/hgQACCCCAAAIIIIAAAggggEB9CxBK61uU/hBAAAEEEEAAAQQQQAABBGIWiDWUnlvHj1lbBBBAAAEEEEAAAQQQQACBuAgQSuPCzEIQQAABBBBAAAEEEEAAAQS8BAilXirUIYAAAggggAACCCCAAAIIxEWAUBoXZhaCAAIIIIAAAggggAACCCDgJUAo9VKhDgEEEEAAAQQQQAABBBBA668ngQAAIABJREFUIC4ChNK4MLMQBBBAAAEEEEAAAQQQQAABLwFCqZcKdQgggAACCCCAAAIIIIAAAnERIJTGhZmFIIAAAggggAACCCCAAAIIeAkQSr1UqEMAAQQQQAABBBBAAAEEEIiLAKE0LswsBAEEEEAAAQQQQAABBBBAwEuAUOqlQh0CCCCAAAIIIIAAAggggEBcBAilcWFmIQgggAACCCCAAAIIIIAAAl4ChFIvFeoQQAABBBBAAAEEEEAAAQTiIkAojQszC0EAAQQQQAABBBBAAAEEEPASIJR6qVCHAAIIIIAAAggggAACCCAQFwFCaVyYWQgCCCCAAAIIIIAAAggggICXAKHUS4U6BBBAAAEEEEAAAQQQQACBuAgQSuPCzEIQQAABBBBAAAEEEEAAAQS8BAilXirUIYAAAggggAACCCCAAAIIxEWAUBoXZhaCAAIIIIAAAggggAACCCDgJUAo9VKhDgEEEEAAAQQQQAABBBBAIC4ChNK4MLMQBBBAAAEEEEAAAQQQQAABLwFCqZcKdQgggAACCCCAAAIIIIAAAnERIJTGhZmFIIAAAggggAACCCCAAAIIeAkQSr1UqEMAAQQQQAABBBBAAAEEEIiLAKE0LswsBAEEEEAAAQQQQAABBBBAwEuAUOqlQh0CCCCAAAIIIIAAAggggEBcBAilcWFmIQgggAACCCCAAAIIIIAAAl4ChFIvFeoQQAABBBBAAAEEEEAAAQTiIkAojQszC0EAAQQQQAABBBBAAAEEEPASIJR6qVCHAAIIIIAAAggggAACCCAQFwFCaVyYWQgCCCCAAAIIIIAAAggggICXAKHUS4U6BBBAAIHEEli3bt3qfz9qamoSa+VYGwQQQACB/xXYtm3b6tWrP/nkk/+touR7AUKp7zdRXAZ49OjR5cuXP/7441OmTJk1a9Y//vGPqqqquCyZhSCAQAIKVFZWFtXyWLNmTXFx8a5du06dOhXPNc/NzTX/fpSXl8dz0TEu69tvv33ttddmzJjx6KOP/uUvfykqKvr1119jfC3NEEAAAf8IbN26NfIT4JNPPtm0adPBgwfjMM67777bGNOpU6c4LOssFvHLL7+IT1lZ2Vm8PFFfQihNqC17/Pjxffv2BYPB2Nequrr6sccea9So0b+/rf2//6enpy9atCj2fmiJAAIIqMDevXvDdimR/0xOTh44cODKlSv1Vb9rwc+hdPfu3QMHDowkSk9Pf+WVV35XFjpHAAEE6l1g8ODBkTs0rWnbtu2kSZMOHz5c78vVDv0cSj/99NOsrCzRKCoq0jFTIJQm1HtgyJAhxpjS0tLY1+q2226TP4ysrKxx48ZNmzatsLAwNTVVKt98883Yu6IlAgggIAKxhFL9gnLXXXfFwc23ofSrr75q3ry5akQWpk+fHgcfFoEAAgjUl4CE0qSkpC7OIzs7+/zzz9ddXGZm5o8//lhfSwzrx5+htLKycsKECQ0aNFAEQqm74Qilrsb/+XKbNm3qFEqXLFkifxh33nmnO1939+7d6enpxpj09PQ4T7H7P78NWAEEELDWDaUpKSkDnEf//v0vu+yy8847Tz+VjTFLliz5vdn8GUpDodAVV1yhFC1bthw9evT48eM7duyoleedd96ePXt+bx/6RwABBOpLQEJpq1atIjvcuXPnyJEjZf92yy23RDaolxofhtKtW7dedtll8tV6xowZIkAodTf32YfS4G8Pt68o5YqKijpdWCIYDNZ2Lk1lZWWM01MrKyvrtNDo44/y7Fk/VV1d7UbBWPqpqamprKz0bFlSUiJv8diPlPbt29cY065du0jtl156SXorLi72XByVCCCAQG0Cbij1/F5SUlLSrVs32ckYY2644YbaupL6UCh04sSJUChUW7OKioooz1pr/8NQGvtHT4wDlmafffaZInTo0OHo0aNSX1VV1bNnT31q9uzZta049QgggIDfBKKEUmttKBSSHXJqamr0/XaUL8nRk8VZh9JQKFRRURG7ZygUivHgzYMPPmiMyc/PLy0t/eKLL2T3Tih1qesWSkOh0LJly/Lz89PT0wOBgDGmRYsW+fn5y5Yti3xXBYPBRYsWXXvttWlpacaYQCDQunXrwsLCTZs2uSOw1j7++OO5ubkPPfSQtXbVqlVXXnllcnJyIBBo27bt1KlTq6urrbVlZWX33Xdfy5YtjTHnnXfe1Vdf/emnn4b1I//84IMPrr/+epkhEAgEMjMzx44d+/3333s2jlJZVVU1e/bsq666SuayJicnd+3adcaMGSdOnNBXzZs3Lzc3t0ePHj///LNWuoVnnnkmNzf36quvdpPktm3bRowY0bp1azFs3rz5kCFDIlfn4MGDub89vvnmm1OnTj355JMdO3aUwwstW7YcO3bskSNHZFnHjx/Pzc3t1KmTvMW7deuWm5s7dOhQdySe5WnTpo0cOfKvf/1r5LPFxcXS24oVKyKfpQYBBBCIInDGUGqtXb58uYaubt26ub0NHjxY9n4jRoyw1i5atCgjI8MYc+ONN7rNSkpKJk6cmJOTk5KSIh8NF1100ahRozZu3Og2k3JtofTIkSMDBw6UxfXt27ekpERfW1NT8/rrr+unWIMGDTp06DBx4sTIU6FiHLD2rIWlS5fm5OS0bt06NTU1bFf88ssvq88jjzyiL6GAAAII+Fwgeii11o4fP172bydPntR1WbVqVW5ubt++fa2177zzjpx4ec8992iD2JNFbaH08OHDssMvLCx0E++hQ4cmTZrUqVMn+ZrdqFGjvLy8119/PfIwWEFBQW5u7uLFi48cOXLbbbc1bNiwQYMGP/30kw6ytsKUKVNmz54tcYlQ6qlUt1BaWFgo76HU1NSLfnskJydLzdChQ91cevLkyUGDBslTzZo1u+qqq7p16yaNA4HACy+84I5G3pr9+/dfunRpIBBo2rRpVlaWTrkeN27csWPHsrOzA4FA+/btmzZtKt0mJydv3brV7ae6unrEiBHybNOmTXv16tW1a1d5ezVs2HD16tVu4+jl0tJSnVLVrl273r17t2/fXnrOysrSmVRbt26VyldffTWyw9N/PDKf9tZbb9VnX375ZVm1lJSU7t279+zZUy8yNHXqVG1mrT18+LB0vmbNmgEDBhhjWrZs2bFjR22fk5Mjf1HaUtrLf7t06eL2Vtfy2rVrdel1fS3tEUDgHBeIJZR++OGHussaPHiwK9a5c2d5Kjs7e/PmzfpxkJ+fr83eeOMNPftd+9HC/fffHzZTxjOUVlVVyYQRybSrVq3S/n/++edevXpph24hPT19y5Yt2tJaG8uA3faeZfcz1Fr7yiuv6EKfffZZz5dQiQACCPhQ4Iyh9I477pCvte7gly5daoxp0KDBli1bdLd/9913S5s6JQvPUHry5Mkrr7zy9AkjYaezFhcXy4n9gUCgc+fOvXv3lp9BjTGDBg0KO3B6ySWXGGMef/zxm2++WXfR+/btc1fEs+zOSSSUehLVIZSuWrVK9GfNmqVb6MSJE0888YQc8Vu6dKkuY8yYMfLGmjNnjhzqtNYeOXLkpptukqOm7r2DHnjgAWNM+/btMzIy5s+fL98kfv755z59+hhjkpOT//jHP1555ZU//PCD9P/+++8nJSUZY0aNGqVLtNZOnTpVOp81a5YudP/+/ZLoGjduvHfvXrd9beVgMChfU5o2bfrhhx9qsw0bNmRmZhpjunXrpv137drVGHPNNddoMy1ortM8XFRUJFZDhw7Vy0BXVFRMmDBBbJcvX64vP3r0qFT26tXr4osvXr9+vTxVUVExbtw4eWrx4sXafvHixVIZ+/RdfW1kYdKkScaYxo0buz9iRTajBgEEEIgUOGMoDQaD8nEge63XXnvN7UR/E7zwwgtvv/12aSMTn6TZO++8o5XGmD59+owePXrw4MH6O6kxZuLEiW6fkaE0FAoNGzZM+1mwYIG2r6mp+cMf/qBPFRQUzJ07d/r06S1atJDKNm3auLNmzjhg7TnGQnV1tUbiQCDw9ddfx/hCmiGAAAL/dYHoofTAgQNyhGnChAnuUN99913Zwd5yyy1du3ZdsWLFF198oXu/OiWLyFBaXV193XXXSRL+9ttvdbmlpaVyFZXLL7/8m2++kfpQKLRo0SL53fO+++7TxtbanJwcY8zNN9+clJT0yCOPFBcXr1u3zp0O6TaurUwo9ZSpQyiVydDZ2dmRHY0fPz4vL+/ll1+Wp/bu3SvRK+zdZq2tqqpq166dMWbgwIHaj/RsjBk/frxWWmv/9a9/ybuzUaNGYUfGb7zxRmPMJZdcou0PHTokM7j0NxV96sSJE61atTLGjBs3TiujFN5//31Zrhv5pP2GDRvkqWXLlknNc889J/E78s5L8vfTqlUrTbByDlWnTp20Rodx/fXXG2MuvfRSrTl27JgsKyUlZdeuXVpvra2oqJDjpe7K1mMo3bVrl/Q/efJkd7mUEUAAgVgE3FDauHHjGc5j2rRp48aN69Chg+zfZFJubUc1U357yHkf27Ztk3m5v/zyi06ZOT2D5p133tEhffHFF02aNJGew7JcZCiV3zGl8RNPPKGdWGv1InDGmNGjR+tTe/bs0cOz7kVxtXPPAevLz1hYvXr16WMFzzzzjFwPQ35mfeqpp874QhoggAAC/hGQUHr6ym2HncehQ4d27Njx6quvXnTRRcaY3r17Hzt2zB3zypUrZYfcpk2bsLMk6poswkJpKBSSqZTNmjXbtm2bu1A5MJaSkvLdd9+59dbaWbNmyTf8/fv361PyTT45OXnGjBlaWdcCodRTrA6hVCbZtmnT5oxn9EpOM8bs3r07cqkPP/ywbGP9mVlDaVj00lQWeXku+TKRlpam/c+ZM0feyp6HQ+W4X/PmzcPmR+nL3YIckc/KyvJs3KNHD2PMkCFD5CX79++XOQZz5851Ozl16pRMBtBf67dv3y4jfOONN9yWUtaZbPrXoquvy3JfJcO47rrrtLK+QulPP/0k3xe7du3KYVLlpYAAArELuKFU9nue/7388ssXLlwYedKOZjyZhxK2K547d672dvvtt4eNatq0afrsAw88oM+6fZaXl7/xxhva7N5779VmUrj22mv1WT1fQ57S60ZefPHF+iq382uuuSZswNrsjAX5/VQW3aBBg7y8vL///e9nfBUNEEAAAV8JSCjVvWhYoVWrVi+++KJ7SqcMXkNp5BGRuiaLsFAqKSAtLW3Dhg0uVCgUksOkYVMvpc3x48flHMCXXnpJX6WhVFOMPhV7gVDqaVWHULpixQp5V1177bXr16+P/BqhC5DZVs2bN9cat/D2229LP+vWrZN6CaVJSUlhP5YHg0FpOXPmTLcHa+2zzz5rjElKStJ6mYXVokULrXEL7733nnQVyxWP5ETQyCQsHd5///0yH137l5ue9+vXT2tOH99fvXq1LPGrr76S+vnz54fVuO3Lysrk2YULF0q9htKnn37abSllWWj//v31qXoJpdu3b5cpyhdddNHvd/8oHTMFBBBISIEYQ6lMeHn66afD5j65Ge+9994LI3Ln/bqHSaXZxo0bZV9qjLniiiv0tW6fH3zwgU70vfnmm8M+zmpqavTU/dTU1KNHjx5zHk8//bT2f+DAAenf7TxywDqGMxbcUNqqVathw4a5p5Cc8eU0QAABBPwgoKH09CXc3IfMozTGNG3a9J577gk73UxDaeR+r67Jwg2lL7zwgjGmYcOGa9euDcPZvXu37M/DDixpMzlHTy65J5USSnv06KFtzqJAKPVEq0Mo1WPfsv3S09Nvv/32+fPnuwe1ZRlyLmjY1RR18evWrZMe9LKuEkpbt26tbbQgLcOuSWitff755+W6FNqyX79+cg5kH6+HvKuMMXIu6/fffz854vHBBx9Ya4PBoPzNtGnTxqunPpLZAoGAfo9ZtGiRHPt15xhLSO7evbuOcPr06bI6vXr18uxZntX5ABpKX3nlFe1EC/n5+caYvLw8rfEMpUVFRRErOllzsr5WCh999JFctTgnJyeWk7bDXs4/EUAAARFwQ2laWtoT//9j8uTJw4YNu+CCC2Snd3rP3KtXL71UQdjtWyInv3Tp0kVfGHa5O7lUuz57wQUX6BZxc2Pjxo21jXtpR2l88OBBfTZ6Qb/iuJ1HDnjMmDEtIh56wouO0Fp74403XnXVVZmZmfrV7fSco1tuueWME5TcTigjgAAC/12B2s4pDQaDe/funT9/vszgbdOmjV4vxlqroTRyx17XZKGhdMmSJbI7ffHFFyNN9OIvnTt39vxmLp9T7pdtCaU33XRTWG9RkkVYS2stoTTSxFpbh1Aqr1+yZEnv3r3dz8tAIHDDDTfoycHWWtlgvXv39lzkl19+KR/zb775pjSQUNq2bdvI9tIy8p0UGUrd7wRRvkb87W9/s9Z+8sknkW3kjNby8vLIpzxrjh8/LgMuLy+Xn9X1+H5FRYXcCGfOnDm6UhMnTvTsJ6xSbo1jrdVQOm/ePO1ECzGGUr0/r7sU/TlAe7PWzp07V2Yp5Ofn/ydzEtw+KSOAwLkp4IZSz/uUWmtPnjyZl5enu6bHHntMrdz9eeTuSC5MIC+MnPxSVVWlfQYCAc8+tYH8nhg2oWvPnj1ugyjl999/X/qPPuChQ4dGdvL888/r2CILu3btcq+05J6/GtmYGgQQQMBXArWFUh3kwYMH5S6PgwYN0koNpTt37tRKKdQ1WUgoTUtL00kxHTp0iPw00VmNkbtot8addCMjibztYpRkEbYuhNJIEKmpcyiVlx04cGDRokXDhw+XqdjGmCZNmugZpHLNQPcgobt4vQGmXmm2XkKpHCnNycnZG/UhP8Z//fXXQyMer7/+unukdPTo0VF72qtHSq21cm3rPn36yJrKFOXk5GS9lai1Vo+U7tixI0rPelXeegmlK1asiFjRoWHfwE6PecqUKfLn99BDD4VNopY14r8IIIBA7AKxhFL3anbGmM6dO2v/bsYrLy/XeinoPZlPXyRJL8yobXTPKR9MWu/22bBhw0mTJuktB7p16+bu9w4cOKBfR5o3b76s9oee4+B2Hjngswil1trS0lIdxoUXXqgrQgEBBBDwucAZQ6m19qGHHpJruelX5SihtK7JQkKpMSY1NXX69OlygbrbbrstzE2PlC5YsGBv7Q93ImRtoTRKsghbKKE0EkRqzjKUanfV1dULFy6UjV1QUCD1f/rTn4wxtX2I6umdeleYegmlMt08MzNTx3bWBfnxZuTIkbH38M9//lP+tGTWqwiEXaBIbzrnzlWIsgj9avWfHCmN0r8+NXPmTDlc4B7X1WcpIIAAAnUViDGU7ty5U3NXs2bNdCnRM56cUS8v1Btu6Ws3b96sfbq3a3b73Lx5s7X23nvv1Zbu3bNPnTqlP667l9PTRUQW3M4jQ2lRUdG8iIfMTysuLl66dOnp2UBTpkzRXyS1f/3Z1xjjTm/WBhQQQAABHwrEEkrl6jDGmO3bt8sqRAmldU0WEkqbNGny+eefy2RA2duHnTv6zTffSL0cl4pFsrZQGstrtQ3Td5XCLfynoVT6kttsNmnSRP4pIccY4/60oEvVu4nqlaDrJZTqm1uvPKFLrGtB7s7SqVOn2F9YU1Nz4YUXnv5hfu7cucePH5eULiepaid6+Q29nYw+5VmITyiVqBwIBGL/g/QcLZUIIICACsQYSmfPnq2x0N3lRs94Tz75pL4q7EZi1lr3QkTu/eUi+ywrK9P7jqalpbkn0vfs2VMX4Z6cYq31PL0zsnOliF6Q++bJsvSUFnnJ4cOHdQxJSUlnfUXf6APgWQQQQKDeBWIJpWPHjpVdnF6bJkoorWuy0HNKddXkzhqpqanyo6TUB4NBOdsuxntG6imKkdN3dUGxFAilnkqxhtKysrLRo0fn5ubqHF23O3mvpKenS6Xe++TZZ591m1lra2pqOnbsGHaFnnoJpXv27JEzXT3PvVm4cOHw4cPffffdsPF4/vO1116TvxO9iIXb7IHfHps2bXIrrbWSzPPz89966y1jTEZGRtjNSIPBoFwkyT1hWjvZtm3b4MGD58yZo1ehrGso1RvrlZSUaLfRC19//XXDhg2NMXp1pejteRYBBBCIRSB6KK2uri4pKXnppZdk/yP72wcffFB7jp7x9u3bp0cyGzVq5M7gLSkpycjI0CznXi3Ds8958+ZpY3dui1y2QJ5yr7sYCoXy8vJSUlLatm07YMAA3cl7dq6rE6Xg3t4mIyNj/fr10risrEyODMgYevXqFaUTnkIAAQR8JXDGULpnzx5Jg9nZ2TryKKG0rskiMpQeO3YsKyvLGBN2cqmcf9esWbPIuSqVlZUFBQUzZsxwf7LkSKlur3ovxBpKQ6FQ+/bt5V63Bw8edMdRUlIiWcudq11QUGCMSUtLKy4u1sbV1dVys9PTV+r/6KOPtL5eQqm1trCw0BiTkpKiZ6vKIlavXi1v/alTp+pCoxQqKipkZdu1a7djxw5tWV1drb/QFxUVab0UtmzZIpeclnXX6xW5zV599VX5hvHwww/rtxlr7a5du+QsKT0r9SwudPTRRx9J5ytXrnQXGqUse4327dvv37+/tJaHHtCO0g9PIYAAAq6AG0plvxT9vxkZGe4nyxkznnsJt6ZNmz766KMLFy6cOnWqO9817O6jnn0Gg8Hu3bvr2HQy8PHjx+VzTZ666aabli1b9tZbb8kV5qTSvSy8Z+cuSG3l8vJyd0HGmLZt21566aUy3UYHtnjx4tp6oB4BBBDwm4B8vczIyAj7allSUrJhw4annnpKZ6m499CKEkqttXVKFpGh1Fq7YcMG+UHTDSzbt29PSUkxxgwYMMDNpceOHZPbj11wwQWHDx9W4bMLpcFg0KWQk/5OJ+Tly5dr/aFDh3Qp52Yh1lBqrS0qKpJtmZyc3L9//xEjRtx1110DBw6Un7pbtmz53XffKeKBAwcuueQSuWvLoEGD7r///jvvvFMuAG2Mca+yaK2tr1BaVlamXy+6d+9+11133XHHHXozmH79+kWe6qMDDit8+eWXzZs3l1uhDhgwYMyYMbfeeqvcv9QYM2HChLD28s+cnBz9DuH+Qu82HjVqlLTJzMwcPnz4n//857y8PLneRrt27dx5YnU9UlpaWirfYxo2bNinT5+cnBz3r8sdg5SPHDmio41SqO1+rZEdUoMAAgiIQJ1CaZcuXdxdX9gtYTz328FgUKd+ee6+CgsLf/31V3dz1JYb169frz1kZWXpqZsbN27Ur03aQAujR492r41UW+fuAGorb968OcqCjDFjx46t7bXUI4AAAj4UkFCqO0zPQqNGjebPn+8OPnoorVOy8Ayl1trnnntOBuOeXLpgwQL5Hn7++ecPGTJkzJgxBQUFcuew1NTUsDtWnF0o3bdvnyeCW9m4cWNX4xws1yGUym8MAwcOTEpKchEbNWo0cuTIyCmjR44cGT9+vNz3UttfccUV7o8iIl5fodRaW15e/uijj7o/lhtjMjMzZ86cGfYF5Ywb+4cffhg2bJjeQl1WoUePHkuXLq3ttXpeq3vx6LDGoVBowYIF2dnZamKMOf/888eMGRN2NmxdQ6m1dt68efJ7jzEmOTk5eih1L+3oDiasTCgN24L8EwEEzigQPZQGAoG0tLTs7OzCwsLly5e700ak5xgz3sqVK3v37q0X0ZWrzfXs2fPtt9+OHGGUPocPH677vcmTJ+trf/zxx1GjRrk3NTXGdO/ePezkz1hStPbpWSgtLb3nnnvcG7fKeHJzc2O8BoFnt1QigAAC/xWB2kJpcnJyenp63759Z86c6c6JlUFGD6XW2tiTRW2hNBQK3XDDDXJVXvfk0s8++6xfv37up0lSUlJBQUHk7SoIpb/fO6puoVTGUV5evnnz5jVr1qxdu/arr77yvOqDjvjUqVPbtm37+OOPP//889LSUq3/XQuhUGjnzp2ffvrp559//uOPP7r3bqnrcisrK7ds2fLxxx9v3ry5fg+sl5SUrF+//rPPPtu9e3dVVVVdB1Zb+/Ly8q1bt+7cubMe+6xtWdQjgAAC/3WBsrKyTZs2rVmzZtOmTdF/iTu7ocqn2Nq1a7/88sv6/RQIG09NTc2OHTuKioo+/PDDdevW6W0SwprxTwQQQOBcFvj9ksXRo0c3btwo6Sbypqbnsnl81v1sQml8RsZSEEAAAQQQQAABBBBAAAEEEl6AUJrwm5gVRAABBBBAAAEEEEAAAQT8K0Ao9e+2YWQIIIAAAggggAACCCCAQMILEEoTfhOzgggggAACCCCAAAIIIICAfwUIpf7dNowMAQQQQAABBBBAAAEEEEh4AUJpwm9iVhABBBBAAAEEEEAAAQQQ8K8AodS/24aRIYAAAggggAACCCCAAAIJL0AoTfhNzAoigAACCCCAAAIIIIAAAv4VIJT6d9swMgQQQAABBBBAAAEEEEAg4QUIpQm/iVlBBBBAAAEEEEAAAQQQQMC/AoRS/24bRoYAAggggAACCCCAAAIIJLwAoTThNzEriAACCCCAAAIIIIAAAgj4V4BQ6t9tw8gQQAABBBBAAAEEEEAAgYQXIJQm/CZmBRFAAAEEEEAAAQQQQAAB/woQSv27bRgZAggggAACCCCAAAIIIJDwAoTShN/ErCACCCCAAAIIIIAAAggg4F8BQql/tw0jQwABBBBAAAEEEEAAAQQSXoBQmvCbmBVEAAEEEEAAAQQQQAABBPwrQCj177ZhZAgggAACCCCAAAIIIIBAwgsQShN+E7OCCCCAAAIIIIAAAggggIB/BQil/t02jAwBBBBAAAEEEEAAAQQQSHgBQmnCb2JWEAEEEEAAAQQQQAABBBDwrwCh1L/bhpEhgAACCCCAAAIIIIAAAgkvQChN+E3MCiKAAAIIIIAAAggggAAC/hUglPp32zAyBBBAAAEEEEAAAQQQQCDhBQilCb+JWUEEEEAAAQQQQAABBBBAwL8ChFI4W/xaAAABtUlEQVT/bhtGhgACCCCAAAIIIIAAAggkvAChNOE3MSuIAAIIIIAAAggggAACCPhXgFDq323DyBBAAAEEEEAAAQQQQACBhBcglCb8JmYFEUAAAQQQQAABBBBAAAH/ChBK/bttGBkCCCCAAAIIIIAAAgggkPAChNKE38SsIAIIIIAAAggggAACCCDgXwFCqX+3DSNDAAEEEEAAAQQQQAABBBJegFCa8JuYFUQAAQQQQAABBBBAAAEE/CtAKPXvtmFkCCCAAAIIIIAAAggggEDCCxBKE34Ts4IIIIAAAggggAACCCCAgH8FCKX+3TaMDAEEEEAAAQQQQAABBBBIeAFCacJvYlYQAQQQQAABBBBAAAEEEPCvAKHUv9uGkSGAAAIIIIAAAggggAACCS9AKE34TcwKIoAAAggggAACCCCAAAL+FSCU+nfbMDIEEEAAAQQQQAABBBBAIOEFCKUJv4lZQQQQQAABBBBAAAEEEEDAvwKEUv9uG0aGAAIIIIAAAggggAACCCS8AKE04TcxK4gAAggggAACCCCAAAII+FeAUOrfbcPIEEAAAQQQQAABBBBAAIGEF/gfTwOBxEbycpEAAAAASUVORK5CYII=;" vertex="1" parent="KGChQR1K5hRhyjWdONPX-31">
          <mxGeometry x="424" y="670" width="367" height="100.01" as="geometry" />
        </mxCell>
        <mxCell id="KGChQR1K5hRhyjWdONPX-115" value="&lt;font style=&quot;font-size: 14px;&quot;&gt;Tracks broker alive/dead&lt;/font&gt;&lt;div&gt;&lt;span style=&quot;background-color: transparent; color: light-dark(rgb(0, 0, 0), rgb(255, 255, 255));&quot;&gt;&lt;font style=&quot;font-size: 14px;&quot;&gt;Managed replicas&lt;/font&gt;&lt;/span&gt;&lt;/div&gt;&lt;div&gt;&lt;div&gt;&lt;font style=&quot;font-size: 14px;&quot;&gt;Elects leaders&lt;/font&gt;&lt;/div&gt;&lt;div&gt;&lt;font style=&quot;font-size: 14px;&quot;&gt;Partitions metadata management&lt;/font&gt;&lt;/div&gt;&lt;/div&gt;" style="text;html=1;align=center;verticalAlign=middle;resizable=0;points=[];autosize=1;strokeColor=none;fillColor=none;" vertex="1" parent="KGChQR1K5hRhyjWdONPX-31">
          <mxGeometry x="716" y="425" width="230" height="80" as="geometry" />
        </mxCell>
        <mxCell id="KGChQR1K5hRhyjWdONPX-48" style="edgeStyle=orthogonalEdgeStyle;rounded=0;orthogonalLoop=1;jettySize=auto;html=1;entryX=0;entryY=0.5;entryDx=0;entryDy=0;fillColor=#ffcc99;strokeColor=#6666FF;strokeWidth=2;" edge="1" parent="KGChQR1K5hRhyjWdONPX-30" source="KGChQR1K5hRhyjWdONPX-49" target="KGChQR1K5hRhyjWdONPX-31">
          <mxGeometry relative="1" as="geometry" />
        </mxCell>
        <mxCell id="KGChQR1K5hRhyjWdONPX-49" value="Client" style="swimlane;whiteSpace=wrap;html=1;" vertex="1" parent="KGChQR1K5hRhyjWdONPX-30">
          <mxGeometry x="30" y="320" width="270" height="540" as="geometry" />
        </mxCell>
        <mxCell id="KGChQR1K5hRhyjWdONPX-58" value="" style="swimlane;startSize=0;" vertex="1" parent="KGChQR1K5hRhyjWdONPX-49">
          <mxGeometry x="15" y="25" width="220" height="480" as="geometry" />
        </mxCell>
        <mxCell id="KGChQR1K5hRhyjWdONPX-52" value="Kafka Client&lt;div&gt;(essentially app or service)&lt;/div&gt;" style="whiteSpace=wrap;html=1;aspect=fixed;" vertex="1" parent="KGChQR1K5hRhyjWdONPX-58">
          <mxGeometry x="60" y="310" width="80" height="80" as="geometry" />
        </mxCell>
        <mxCell id="KGChQR1K5hRhyjWdONPX-51" value="Kafka Client&lt;div&gt;(essentially app or service)&lt;/div&gt;" style="whiteSpace=wrap;html=1;aspect=fixed;" vertex="1" parent="KGChQR1K5hRhyjWdONPX-58">
          <mxGeometry x="60" y="177.5" width="80" height="80" as="geometry" />
        </mxCell>
        <mxCell id="KGChQR1K5hRhyjWdONPX-50" value="Kafka Client&lt;div&gt;(essentially app or service)&lt;/div&gt;" style="whiteSpace=wrap;html=1;aspect=fixed;" vertex="1" parent="KGChQR1K5hRhyjWdONPX-58">
          <mxGeometry x="60" y="70" width="80" height="80" as="geometry" />
        </mxCell>
        <mxCell id="KGChQR1K5hRhyjWdONPX-123" value="&lt;b&gt;PRODUCER&lt;/b&gt;" style="text;html=1;align=center;verticalAlign=middle;resizable=0;points=[];autosize=1;strokeColor=none;fillColor=none;" vertex="1" parent="KGChQR1K5hRhyjWdONPX-58">
          <mxGeometry x="15" y="13" width="90" height="30" as="geometry" />
        </mxCell>
        <mxCell id="KGChQR1K5hRhyjWdONPX-114" value="&lt;font style=&quot;font-size: 15px;&quot;&gt;Send/Write Event&lt;/font&gt;&lt;div&gt;&lt;font style=&quot;font-size: 15px;&quot;&gt;(Essentailly a topic)&lt;/font&gt;&lt;div&gt;&lt;font style=&quot;font-size: 15px;&quot;&gt;(some-event)&lt;/font&gt;&lt;/div&gt;&lt;/div&gt;" style="text;html=1;align=center;verticalAlign=middle;resizable=0;points=[];autosize=1;strokeColor=none;fillColor=none;" vertex="1" parent="KGChQR1K5hRhyjWdONPX-30">
          <mxGeometry x="500" y="515" width="150" height="70" as="geometry" />
        </mxCell>
        <mxCell id="KGChQR1K5hRhyjWdONPX-119" value="" style="shape=image;verticalLabelPosition=bottom;labelBackgroundColor=default;verticalAlign=top;aspect=fixed;imageAspect=0;image=data:image/png,iVBORw0KGgoAAAANSUhEUgAABYwAAAApCAIAAAAZJPp2AAAAAXNSR0IArs4c6QAAIABJREFUeAHtffdDVcfW9vcPDIcmItgRBTQqYuwlYNREFDXWKImSWGJsscRoNMVGYmyJSbxGY2LL1auJpthRMChKrKA0EQRFiijSpHPOfOfNeu/61jd7n80pNOPwg87Ze8qaZ2bPrHlmzZr/w+WfREAiIBGQCEgEJAISAYmAREAiIBGQCEgEJAISgUaAwP9pBDJIESQCEgGJgERAIiARkAhIBCQCEgGJgERAIiARkAhwSVLITiARkAhIBCQCEgGJgERAIiARkAhIBCQCEgGJQKNAQJIUjaIZpBASAYmAREAiIBGQCEgEJAISAYmAREAiIBGQCEiSQvYBiYBEQCIgEZAISAQkAhIBiYBEQCIgEZAISAQaBQKSpGgUzSCFkAhIBCQCEgGJgERAIiARkAhIBCQCEgGJgERAkhSyD0gEJAISAYmAREAiIBGQCEgEJAISAYmAREAi0CgQ+OeQFMnJybH//cvMzGwU6DaQEOXl5SkpKQkJCRkZGdXV1SDFf7H5n/+fPHlSP6LJRqkHnFNTU7FxMzIy6qFEG4tAaeuzK6rK/ExAl5mZiYglJyerVqQ+HzYIaCUlJWlpaRkZGVVVVfVZ2cZfVnFxMXSP7Ozsxi9tbUmYkZEBtS4tLTUnT0vjm5PnPy/OvXv3ANWKiop/Xu1ojR4/fgw1rTddiJYuwxIBcxDIycmBXhobG5uYmGhOkn9YHKx+g+uK2sA+ffqUitqoxs8GUdi04bLo7f8jKapM/+FC16Ks6zlyjx492H//lixZUs+lN5Li0tLSJk6c6Ojo+F8kWNOmTTnnVVVV+IQxtm/fvvoRWDZKPeA8ePBgbNyZM2fWQ4m2FNFQXVFV5mcCukWLFmH79unTR7Ui9fmwnkG7d+/eyJEj7e3tAYTXX3+9Pivb+MsKCwsDZD7++OPGL21tSTh79myo9fXr183J09L45uT5z4sTHBwMqKampv7zakdr9N1330FNd+3aRZ/LsESg8SCwatUq6KWMMR8fn8YjWP1I0qh0Re0qh4eHY0sxxu7du6cdvz7f1rPCVutV+1+S4sGDBxRiZdjZ2bl9+/ajR4/+8ssvHz16VOty2J6hXA/n5eW1b99eaDtnZ2dJUtjeuxpzDs/WGNSoJp5nArrnmaTQ6/V0YGeMTZw4sTF/jPUvmyQpzMFckhTmoCRJCnNQknEkAvWDgCQp6HKm3vZWrWhcSVJYAZqZScwlKWhfcXFx+e6778wsoN6iUV32+bSk+PLLL2kzubu7+/v79+3bV5IUddoJN2/e7PP335EjR+q0IFOZN8KVdklJSdeuXX18fAYPHiyILUkKAZAafz7PJEV0dDSMae3atYuMjMzLy8vJyakRsecqwj+bpLh79+7EiRNXrVoltOmxY8dC//7LysqiryyNT9PKsCQpZB+QCDQeBOqZpNBQ2+oOE41CG0RX1JBHAwRJUmiAY+Mra0gK0Bo///xzG8uu3eSSpEANgzHWvn37goICivBT8ldv57qfh0bx9fWFL6KhiN5GSFIcPHgQMFHaKDbIxEM/BBpuhNBR8SDc2EiK0tJSHEvKy8uVAtfik71790JHWrlyZS1m+0/K6p9NUuzevZsx9uqrr5rZZJbGNzPb5yQaqhDyuMdz0uKymo0ZgXomKTTUtrpDSaPQBtEVNeTRAEGSFBrg2PhKnaTw9/dfQv4WLVo0efLkVq1agb4I/+p0utjYWBuLr8Xkz8N6WBuuoKAgbKDg4GDtyPXz9h/fKDdu3EDMJUmBnWrcuHEAiyQpEBOrA42NpLC6IlYkxKPj33//vRXJn4ck/2ySYs6cORaRFJbGfx56iPl1lCSF+VjJmBKBukagnkkKDbWt7mqqUWiDkBQa8miAIEkKDXBsfKVOUoSGhirzLSsre+edd3BJxhibM2eOMhp9UlpaGhMTk5CQYDAY6HMM5+fn3759OyYm5t69e+ZvypWUlCQlJSUkJBQXF2NW9bAeLi8vv3fvXkxMzO3bt810Ks45z8/PT0pKio2NFQxTUXKNQHp6+tWrV/Py8jTi4KsRI0Zg67z99tv43OpAXl4eNF9ZWVmNmdjSKE+fPk1ISLhy5UpMTExtmXNb17VqrKYQYfny5Yh5YyMpysrKkpOT4+LiioqKBLFN/awV0PLz852cnKwgKQoLC+Pi4pKTk830jVxaWpqamgqjR2VlpalKaTw335IiOzv71q1bCQkJ5nuDLyoqSkxMvHHjRkpKipmDW2Vl5d27d2/evEn9/phPUtTbUKMBKb6qrKy8c+fOtWvXrl+/np6ertfr8ZX5ASQptP3blZSUpKSkxMTEpKWlmTNYgQAGgyEjIyM+Pt78JCh5Tk4O9IfHjx/jQ+1AaWnp7du3r1+/npiYSGcu7VQFBQWJiYmxsbEPHz5UjYkkxSeffIIR8vPz4+Li4uPjzf/2Ma0yUF1dnZWVFRcXl5mZaWoqp6mqq6vT0tJiYmJu3bqVm5tLX2mHS0pK4uPj6eVcPXv2tIiksDQ+lce6XsQ5NxgM2dnZMTEx5o9dtFwatho6znlJSQlcp2Wqq9CCnj59mpSUFB8fTwc0W0iKkpKS9PT027dvZ2VlmdNJOOcFBQWgGj148MDMJFCFyspK0MTS09NrTAiDamxsbHZ2NkaucWCprKzMyMi4ffv2/fv3rZtcKNqcc71eD1fM5OTkoBgYp7y8HJzwmzmeWAFdXl5eamrqnTt3zNQnLY1vRdc1GAyPHj1KTU01X50GxHDqT09PN1NbsKJ/YuuoBnJycuLi4m7dupWZmWnd7Fajgl2fJIW22qZE4NnSFR8+fBgXFwe6ovLrw9pZCgImNEVS6PX67Ozs2NjYjIwMjXIxHww8evTo2rVr9+/fxydCwHz8zddyhSLozwbULS0gKTjn5eXlHh4euCrr0qULVmPJkiUe//0DN+N79uxp2rQpRL58+TLG5Jw/fvx45cqVfn5+mBVjzMnJaejQoXv37tU4jJCcnDxhwgS8vcLOzi4oKOjq1aucc9BOIEPqkyIqKuq/cv3P/8o7Gk+cOEEjqGp1YWFho0aNcnFxQYEdHByGDh36yy+/0HrR8NOnT9evX0+pE8aYl5fX8uXLhYMYnPMHDx5QGR7//ffKK69AcaNGjaI5C+GbN29CWlwZMsaaNGkCD2Eru7q6mub/888/YyaZmZn0FcyRp06d8vf3x8q6uLjMnj3b1NxmRaNA6aWlpZs2berZs6ednR2WxRjz9PRcvHixsqVQZo2ApV1LAxko5cmTJxSfsLAwznl2djY8pJi7ubnBw08//VRDwqlTp2KGtCEgyahRo/Cth4dHWloazUqv13fu3BkitGvXDhqLjkGzZ8/mnCcnJ0+dOtXBwQFQtbe3Hz16tMYVVpaCRkWi4WXLlnl4eLRs2RJbU6fTYXVAGxbY8QMHDnDOz549S2vh6uo6f/78/Px8mjmG9Xr9wYMHhwwZghVkjLm5uYWEhNy5cwejmROghapejJKRkbFgwQLBH23v3r23b99u6s6j4uLidevWKQe3oKCgiIgIU1IVFBQsWrSoefPmCF3Pnj0BnBpJinobakD4CRMmYJu+//77Qo0MBsOhQ4eGDRtGPw3GmKur6xtvvHHlyhUhvqmf8CE0a9YMAMGP65133sEk0BMGDRqEd3/APDJs2LCjR49iNAxA//Tw8CgpKYmJienVqxdkbj69mJeXt2LFCm9vb2wmxli3bt02bNhgSs+urq7evXv3Sy+9pNPpMJVOp+vXr99PP/2EsgkBg8Fw4MCBAQMG0LHR19d327ZtQsdDkmLNmjWc82PHjg0cOJAWNGzYsBs3bgj5a/ycP38+tG9+fn5JScnSpUvpF92hQ4fQ0FBTpNuff/45duzYJk2aoADglz40NFSJD46ioaGhBoPh448/hpndx8cHh2WovqOjI4g0YMAAkByb8ubNm5xzS+PT6lvaiz766CMQpqioqLKycv369bQ/NGnSZNq0aRZRMyCMRdA9evQIZIBGv3Hjxrhx4+hX0K1bt0OHDtFqYjg5OXn8+PGoRDHGBgwY8Pvvv3POrSApCgsL16xZ4+vrSzuqi4vL2LFjw8PDsVAaqKys3L59e9++fWkSDw+P9957j/JTmGTIkCEeHh4jRozgnD98+HD+/Pk4LDDGWrduvXbtWlWlsbCwcNGiRe7u7tgbjS21ceNGvV5viqSorq7+8ccfAwICKD4ODg7+/v47d+4UPj2UUBk4evQoNFBYWJher//qq686dOiAYvj6+qIHq/z8/Dlz5lDd0t/f39SdNZZCZ2zTlJSU2bNnU72dMda2bdt333339u3bSsktjc85t6jrQolPnz795JNP6MQ6YMCA3377jXMeHR0N0Klaz4WFhY0YMYJOLk2bNp04ceK1a9eUdeGcW9E/VfPBh4mJibNmzWrXrh22JmPM3d194sSJf/75J0bDgC0KtipJcerUKcAH/jWlVAQEBGC0adOmoTzKgDlqG6Z6tnTF9PT09957T+j87u7uM2fOTElJwUpxzi0CgSaEsEBSZGRklJeXr1mzhvYTHx+fbdu2KamKgQMHYksdO3ZMr9cvWLAAtAW494AWZwX+GlquXq+n65H+/fsLJGk965a0phi2jKTgnE+cOBE/ThcXF8yIatIhISF//fUX1ckoSXHixAk3NzfMRBno06ePKoF04cIFOpRjQmdn5+PHj/fp0wefUJJC6D3Ku2GOHDmCCRljAoNQUVHx1ltv0QhCeNy4cUr1Kz4+3sfHR4iJPz09PZOSkhA6znleXh6+ZYwZ90NGjx6NT7RJiuvXr2NMZaDG2z2ePHlCU92+fRvnb/qcMda9e3flBqB1jcI5T0tL69y5s1AE/enm5gaMAAVKO2xF1xLWzMrlyuPHj6lUf/zxB5BK9KEQXrRokYacX3zxBcZfuHAhjVlYWEgVTcbYjz/+SCPExcVh2hdffBFe0TFo8eLF169fpzocxndzcwOFnmZoZPesAE3IAX+iC30slAZg+BMA/+2333bu3Em1VUzSs2dPoyqDmUOgoKCAWgxhZAg4OTlp8IZCVpxzCp2SpPjll1+E5RYtbujQocrPITExka5YaHwIqxqpZWdnm/oWPv300yVLlmA+yitI63OoAQA1QCstLR0zZgxKqwzY2dl98cUXyoZQPunfv78yOb3do7S0FC0zgQTx9vamE8SMGTOEpQtOUvfu3aPNpPzqlfJwzm/cuNG2bVuQSqfTdejQAX/C8KhcYlVWVr722mtYEQcHB2HumzFjhlJrqaiomDx5MqYSAoGBgfS7QJJi/fr133zzDXxKDg4OdP51cXG5deuWaqWUD2fNmgUlJiQk9OvXD8I0N8ZYYGCg0vxk3bp1KKqdnZ2bmxtN1atXL2FuxaF1wYIFdNLx8fERRgnMFo+P4VADyzlL42OtrehFy5YtA3kyMjKwcemaljHm6+tbUlKCpdQYsBS64uJikGHu3LkREREwTNnZ2VHeVjl9cM6vX7/u6uoKaXU6Xfv27fEY75YtW9588014ZaZPivT0dPodMcYEHJSuZB4/fkz3P9q0adOhQwec9dzc3M6fPy/ABZ2wa9euWVlZqFbRZSpj7K233hJSPXny5MUXX4TqAJfh6ekJHXLChAnY36iJVnl5OT0zq6zO8OHDTdFzQunHjx+Hog8ePIjDDpVZp9OdOnXq8ePH3bp1Y4zZ2dlR6FxdXZWaqhXQnTx50tnZGUHQ6XQINWxlHT9+nEpuaXzOuaVdl3P+5MkTJIgBZBRy1apVv//+Owi8Y8cOKlt1dfW8efOwLs2aNaMDvp2d3ddff03jc86t6J9CDvSnwWAIDQ2lYxoKg4GQkBBhOWCLgq1KUlRUVLRp0wZLhH0pKqdxmZaUlIQRGGOm+EpIhWMpTYJhump9tnTFI0eOaOhvTZs2PX36NOJmPgiYhAaEZWZaWhpVkxBMxtisWbNoQmF/3agMb9q0CeMLJIV1+FNJBC136dKlWFbz5s3j4+OpbPWvW9LSMWwxSUGVpxYtWmBGH330EdZ27NixdI3NGEOS4uTJk8JH7unp2bNnT2FZ5e3tTa0QYVzD2RQKcnd3HzBgAHCxbdq06dixIwpQiyTF1KlTMVvYsH3xxRfRQgRejR8/HnGAbXY6iLRs2XLGjBkLFy6E2QiStG/fvrCwEFOVlpbSUnAGhYd1SlKUlZXRon/88Uc6WdJXjLEPP/wQZbalUfR6fd++fTFzBweHgQMHvvbaa4MHD6ZKfNOmTdPT02mJGmHrupag3SqXK6hJg7S2kxR//fUXVrx///60Rjg9Y4SpU6fSCD/88AO+wk1sOgYtXry4U6dOGEcIDBw4kObGObcONCET/GnOQC8AvnnzZo3+tmLFCsyc/20x++qrr2KlHB0dX3/99cWLF9OH9vb2f/31F02lEabQCcN3eHg4pU66du363nvvvfPOO61bt0YBxowZQzMvLS194YUX8K1Opxs+fPjkyZPpfhFj7OTJkzQV5zwwMBBTgdLWr18/cMhqZ2dHN8YFkiI7O7s+hxoQWwO0999/n1ake/fuI0eODAwMpLuIjDFziKQHDx6kpqaGhoZChhs2bEj9+w+Pg+HZw/79+1+8eBGW+nq9Pjw8vGvXrpBq7dq1FGpcXn7yySeMsQkTJuzcuXPXrl3mLOBzcnJgArKzs1u5ciWalWVkZIAfBMZY//79hb1WlL979+5RUVFAmjx9+vTIkSOIyf79+6mQnHNc1QwbNuzSpUtlZWXFxcWRkZHYE6ZPn45JkKSYOnWqvb19cHDwrVu3DAZDdXV1TEzMkCFDAAphksLkysDcuXMhyciRI+3t7desWZOenl5VVVVcXHzgwAHs/wLd9ueff0IqV1fXQ4cOwRK9oqLi8uXLAQEB8Ordd9+lxeFKe9q0aV5eXh4eHmvXrt23b9+ePXs453CSCxK+9NJL0Pq4e4FDDe45WxofJLGiF61YsQKkmj59uoODw9q1ax88eGDci6uoqAgLC8NmVS6ZaN1p2AroUGEYPXp069at+/XrFx4eDnbvGRkZCxcuBAlbt25NjeErKyuRDJ09ezaae6SkpEyaNMnR0RHNUc0kKXBJv3DhwqSkJCjr8ePHP/30E+JAd3r1ev3QoUNBtokTJ6LhW1FR0ddffw1r+GbNmglGlNDtO3ToMHz48DZt2uzbtw90p4KCgu3bt+PKPyYmhqI6ffp0KCggICAhIQFe5eXlrV271s7ODtk3SlKsX78ekgwfPvzixYuw2iwuLj579uzLL78Mr1avXk1LMRU+deoUxJ8yZYpOpwsNDYUTfA8fPsSVdkBAQEhISOvWrQ8ePAiUX2JiIn6wixcvpplbAd3Tp09b/m3V6OzsvHXr1qysLL1eX11dfe/evS+++AJwc3d3R03b0vhgQwHVNP+r55zjtl+vXr0uXLgAg1V0dPRLL73EGHv77bchT9o0nPOVK1fC8x49ekRGRsKAX1lZefToUexsoJ4hbpb2T0yoGqBrHOCVOnfu3L17d4EZHDduHOWdbVGwVUkKo+EYDkGMsZYtWwpcPOd8w4YNgBVjrHnz5kpCmVYQx1JMQgNIUjxbuuKtW7eQ+YKF27hx48aMGYMULWOsWbNmqE6YCQLFjYYFkuLdd99ljDk4OHTu3LlFixYUT+O1Bv/+979pWuj2EOezzz6DbxZ+UpLCavxNKWzbt29HwZo0aRIVFUWlahDdkgqAYctICr1eT4lzuN4S8vr000+xwi+88IKdnV2LFi0WL168cePGBQsWwJyXl5dHG6x9+/aRkZGQvLy8HGcIyEegxj/++GPMnzE2e/Zs+PAMBsPu3bsF4qO2SIrDhw/TQhcsWACFVlRUfPjhh/QVGKpBXd544w185evri8fLq6urp02bhq+okBUVFficMdalSxc4iLt+/fpPP/10y5Yt2GDKQHV1dcHff3SpNmXKFHgI07mwMqRL8crKSlp0mzZtXFxctm7dmpGRcffuXToaMsZatGhBT99Z3Sjnz5/HQjt27Eh3II0HaydNmoRvBVsDZfXhidVdSwMZyFmVpDAYDAAvHQe3b98ODwUqHfLBf6uqqpCSc3R0pPMHKpdINLRp04ZOeDNnzkRkjh07BnnSMQiWrPPmzYuLi8vIyPj+++/p3jJjjBpTWA0a1kUIlJaWFhQU4MKMMebt7V3w3z+oiAB4mzZtmjRpsmXLlvT09OTkZMrsGncCW7VqRfsbJe+cnZ3hnBfIQOkbYSUvCEl/UugoSVFRUYF6D2PszTffRD0gLy8PVXnGGNWKqHjGrXU8cVBUVESTDB06lMqAi0xo2YEDB6LzmsuXL1MOgjEmVK2ehxoQ2xRopaWl2Nl0Oh2d8/R6Pd0fQCMgioNqGCEVFNZr164BXJ06daJsL2SSkZEBn5iTkxMOv1S3a9u2LdjJqxaq+hDXPKqLT+Qpdu/ejckNBgMu6ZOTk/E5BC5evAhVEK7pTUhIAHasf//+dIUJpsuwk2xnZ4em2rT/KHdpHj9+DI3i7Oxs5tH6+fPn4yCjvGs8KioK3rq7u1PxcPdi586dQk2Liopg3ndycqJjI66027Zt6+npSWcByKGgoADKUt7ugTolkhTg48Ci+Nb1IjrrCeomHLcBGYYPHy7gYOqnFdDRlU+vXr2oZQ2Ugotw+hnu378fZAsKCqLTCvC/uKJjjJlDUuTn50NHDQwMVFYtPT0d2OeQkBB8u2fPHhBg4sSJggCc8//85z/wVrBOR8sLFxcXwQTVeAYZpwx639z9+/dBJ2zdurXy2OBnn30GBRktLOjAAta4TZs2pb0UhC8vL4eju56enlgdjQD9Kjds2EBjVldXoxat0+kESj09PR1k6969O01lBXR//PEHZEWRwTwRbfxgLY3PObei66alpUG3admyJdJkIFVJScmAAQNUmyYlJQVsQHx8fJQNeufOHRjlvL29UWGwon8iOMpAREQECsYYGzx4MB7Fffz4MZ6TgjjUANYWBdsUSZGamkp3UJQWx3TdO3/+fGV16BNz1LZnTlekqpG7uzvynklJSVRpRzXAHBAoaEJYICkYY2PHjoXurdfrd+/eTS2YOnbsSEe/QYMGYdeCpV/Xrl1XrVr1+eefY9vZgr+qwnbq1CkUSafTwXE/WikKYD0sY2nRQtgykkLgEeg+J/2cGGMeHh5KczW6emGMRUdHC9Igx8wYs7e3x20T4wFdLy8vbEhfX19cM0AOuPUEcej6X+g9Sqk0jnvgzpVx/7NXr144/IGvLGqQPHLkSJDk/v372PbKPcOioiJk8tzd3XGBKqzcGGPUC5qAkqmf1AxecJwp5E9JCuGV8QjxwYMHaRGCLQlqCbY0CuXwBI0EjPQmTZpkbNONGzeeOHGCCmMqbHXXEqpPkYGyVEkKFIOOd8q0GE0IjB07Fjsz/QpwB/irr75C3o1u8+J1p/b29rg2o2MQ8He0OAq1kVan5zytBo3mrwxv3LgRa4fm2RhNANzoqAU8L2AENDmGTHAxxjmHERyeL1iwAJNAAH24UNMtIY7wk0JHSYoDBw5gFZycnGCnFNOeO3cO31Irp/fffx88hri4uHTo0AHjc85xsQ38OrUZxm0leIWqDyT/9ddfsSyBpGioocYUaImJiSiql5cXrT4MmG+99da8efNCQ0N37dolWBwIkfEn4kbXEkZvxLiQ/uGHHzAyDeAZmX/961/4HJeX3t7eZq7YIW1eXh586Z07d6azAOack5MD+2mDBg3Ch6WlpTt37vzss89QE8JXEAAGqkmTJvT5Bx98ADD++uuv9DmEQ0NDHRwc2rZtC+YGnHNcDjVt2lQ4TwFJkLwWTuEqM4cniG2nTp1Umwl3lc+ePYuZGKfRjRs3fvDBB7jzhq845/hRU6ckdKWNKyWaqq5JCqypdb0oICCASgvhsrIyWJy3b99e+Vb1iY3QnTlzRpnt6tWroRfR9dLrr78OD5XGXJxzZM3MJCnQpPy9995TCsA5j42NBRscfAsqk06nU6phEAfI3CZNmuDsZtyuR5JCVSnC1SPd1tq6dSvUdPny5Vg6BkpLS3GfgA4scHrLz88PY9LA3bt3k5KSlPwFjYNh/CpbtmxJuTyIgIzn2LFjMQkGYIvC0dERnxjdNlkB3Y4dOwAEpesrcONy+fJl6kzU0vjGGdmKrrtlyxaQ6qOPPqIVhHB0dDS8Ffgj3BRU0oKQEJcAOChZ0T+V8uATHEXBowftn5zzqqoq6n6ua9euuApVKjxmKticc7qqElQpan0pcNNZWVmUwkAzdqyLakBbbXu2dEWDwTBo0KCOHTu2atXK2dlZWA1RRknYMdIGQRU3eCgsM318fISBAhUS6N6UmqQKlVF3HTZsGC4MsURb8Kf5g5YbGxuL61BhUQAlNpRuifWlAXWSIiQk5AT5++2337Zs2UKrCvr03bt3MS/6ORmta7Zv346vMECdyVFlDiPQI/c0k7t37+LIxRhTEsO3b9+mEWqFpMjMzKR5fvXVVygnBA4fPjx//vwPP/wwNDQU60t3dBljylPrdIGK6oUwkHXo0MEiHRrkqRWSws/PD4dXyBYNFwENtN60pVH27t2L2LZo0eLcuXMCtpb+tLprCcgriYa6ICm+/vprrP4333wDlc3IyMCH8fHxeJ7222+/hQjUcYm/vz9CRD9MBwcHpPYgQlFREfIdjDFqrWo1aFi0akB7oBcA79atm7DqO3nyJOLAGMP+dufOHfpcOEzLOf/qq68wgqo6q5SWQkdJipCQEMyqX79+QkKj3zXUce3t7YXZSIgMP4WPiLIelH5V7r4aDAZPT08UhlpSNNRQYwo03AMEabdt2yZQyarIaD80RVLg0bns7GzVHHCRQA9MIUmh7TVGmSGewxLOu9GYsB+i0+nMd0aAfpRoF+rduzcAqOrCWckaYE3HjRtH5cEwduYb5rnPxKU7HijDrCCwdu1akHDz5s3CK1M/UUWjx4ApSaFKbdRjgFvkAAAgAElEQVQ1SWFjL9q0aZNqfcFZmqurq+pbSx9qQ9e0aVNll+Cc79y5E9qImmGCdZidnZ3S8gKMKdDHpDmWFAUFBTCzeHp64kalRu3y8/NBJOGQI02CBrl0cxhJCspwYark5GTIlvZ/PDKgSsdwzsePHw+pKEkB5id2dna40MVSLA3gVzl58mRlWhyItm7dqnyLAyyuVayD7tixY1DHESNGUFpcWSI8sTS+qXzwuWrXxeHIlF9VVEto08CoqNPpBHYAyzp79ixUFtz2g12VRf0Ts1IGHj58CJnDv6qe0bdt20bjoJ9yQeExX8HWJil+/vlnLK5FixZ0vUD3pUwxbso6aqtt2CiMMYvWbsqC6BPtQgXozNcVaRHKMDUP79y5M42gLQ+NKYQFkmL9+vVChJs3b2J7GY/00mEZv3eIgD2H5mAL/jT/mTNnZmZmUjNh4UgsFNpQuiWtMobVSQqKpqmwMLwKJIVSdxT8x5haRVB3DzNmzABBcfQEYaiigzWhJ3lqhaQQ9jCV/pywaBrAA72MMRcXlwOKP2pUuXHjRkgrfI3z5s2jeZoZrhWSYtmyZUJx9+/fp30AjdhtaRS66QqZe3t7T58+ffv27XFxcQJLIsij/GlL1xKQrx+SIjY2FiHFRdTu3bvhYYsWLQwGAxqQo+514sQJTEUdktExSLmi5pyjszHG2AcffAAA2gKasgnoE+2BXgB86dKlNC3n/N69e1hNemji4MGD9Pn69euFb8t4uAwjUAMHIX/6k0JHSQo0aQFHA0JBBw4coKO86k5FYWEhXIp57dq16Ojof/3rXygb3agsKiqiz1U3l9CkVrCkaKihxhRo1dXVlE8Bn+fGxcDGjRujoqKU24m0IUyFVUmKsrIy0D5btmxpKiGOWj179sQ4uDag6i++1QjgsvyHH36oMvGHH6zqUopznpube/PmzQsXLoSHh4eFhZ04cQIdBOCisbKyEiwyPDw8NOShr3A5RGc9GgFPRqh2VBoTwkhSmNq0RDujuXPnKpNzzuHy3UuXLkVERJw5c+bkyZO4h08t45CkEMyOMM86JSls70X0jCfKzDmHZqXHielb7bCl0PXq1Us1Q2wj1DFKSkpgqGnXrp1qEs45WombQ1JQAxk3N7clS5ZERkZqfOboeuOtt94y8Q1VodiUAEKSAr0nUPkfPHgA9aJjPtrAKo9ZQVr0L0CHAlzd6XS6qVOn/vrrr6qmSbR0U2H8KpUKFecc90WVVtacc1TkcFiwDrry8nI8V9KpU6f169eDtxpTMlsaX8jHzK6LBzpMEVs4/mDTVFZWgnlyhw4dTPUc3OMZPXo0CoYGXOb0T0ylDPz22290msbNRRoTz45BzL1798JbQeFR9gecqiAhKtjaJIXgPpOuiegSg35HVFplWENte+Z0RaF2ubm5SUlJMTExV65cuXTpEvohYowJU48GCEKewk+BpKCH7CCmXq9H7zmMMeqeiSpUvr6+Qs7g+492P4vWzoJ7+ODgYNwaYYypUqjGmxwaSrdU1p1zbg1J4ejoKJyyEz4nNzc3ZWGClQQ1O6eRcXODMYZnKPA8HjQVNYDHtNQRI1XXhN6jtDM0ddxDYEbNtJWlt5/QjqUaRiVPGMhwdx1rZ04A5zZwPkSTCPnTpbjwatu2bTSh0bIaWXyoAh7Ct6VROOdo8ahExsPDY/78+YIfLEEq+tOWriVUnyIDRdSFJYXBYEAvsB07doSCcIdh0qRJRmYB1+TNmjWDHWncZWKM0cuu6BgHaSk4nHPcm2WM4adhC2hC/sJP7YFeAJxa40M+pvrbt99+q+wqpp507dpVkEr1J4WOkhS4o2gqf/qcWm8+evToo48+ou4zaUwM4xogLS0NHzLGlGhwztH+XyApGmqoMQUa51wYE2jVXFxcJk2adPToUYsoSFWSIjs7G3IWjm3TJsYlGbW6R5IC/bnQJBrhBQsW0LpohwUbn1u3br377rvCLWhCDrgaefToEbwy320HLodwC1GoiNUkBVV8aZ5oFoQEK7x99OjRypUrhdsohZqqkhSq1KoVPiYsIjVs70V0t5/iYwVJYTV01KSOyoCrfSQp0DK0R48eNCYN42UlOEDRt8pwYWEhOnqEhnZxcQkKCvr666+VitYvv/widAaNn3QthyQFWhZQSVRJCjwYqGqhwznfvHkzlI4rYcgTTw3AW3t7+wEDBqxcudLUDZdUEhrGr3LVqlX0OYSRpFDtQqjI4bBgNXQ3b96kfDpjrE2bNlOmTPnpp59U+RdL43POLe26yMxS8zEKEV4Xgk2Tm5ur0VWEV3Qwsah/UhmEsLAWoEdQMWZOTg6VBJdIgsJjvoItrKqE4x7GMybLly/HEvFm7sLCQvREbm9vj/6tUE5TAQ217ZnTFaGOt27dmjFjBrqFQqxooI5ICmoqi4AjY2i8wJEq6lShmjBhAsbHgI340/xp3Y1Hrb28vHCQweKESzyFJMqftbuMpWJA2DKSomXLlnPmzFHlCKglhbe3t7KkS5cu0eqZ2qWhXAOe+URVFXJAp9C0FHQhTldinHOrSQp6VaRx2W+K96UyUBacVtZUeMqUKZBcGMjwvLGQufZPnNtsISmUq3TU/KAWSFLY0iic88rKyvfffx92RE3hs3DhQlVbVgEHW7qWgLyy+nVBUhh911O3NLm5uUb/r+giEZzV0TkPDrANGzYMgGrSpAm13qRjEF1pI0qUOkWSwhbQMGfVgMZsB6c3aXMrATfV31B3oclNhdu2basqm/DQFHTUrYypIvA53pQWExOjPSNiElwDxMfH40Ojp27Vs/FwFQVEo8c96PdOM1EN1+JQYwo0wHb37t30gh6lMEOHDhX8pQmNQn/iIIMKK9z7ANlSfZSmghPXEMfd3R1fIUmhujbAaMoAdVirrJHw5D//+Q/msGPHDvT9bm9v7+fnN2TIkNdee23ChAnBwcHoRhoVBTQj0qgaZg4BXA7VOklx8eJFoSz4iT5ZJk6ciBGuXLlCjRl9fHwCAgJGjRo1fvz4yZMn496DKklhaqWNQ0FdOM5MTU2to15kKUlRF9ApSYqUlJQa64sGLzhAYfuaClRVVe3atcvf358eg4e7D15//XVKVezbt0/4UjR+zpkzB0u0gqTAC5VUz0xxztFpBR1YoMTw8PAJEybQbU+Qs2/fvmaa01JPMbVCUlgNHWwyhYaGKnlzFxeXZcuWKZmC/Px88+Nb0XWxaYRjntjcyAhg0+CoqNFh8FWXLl0wK9A3zOyfNJUQNmctUFhYiDJQp3I1apg4ykFyVLBrJClSUlLwo2vevDkYMVE+ixqVCDVS/tRQ2545XRH2S3Dmpe0ihOuIpFC1+ULmlDFGzb6oQkXv7cI2shF/mr9QfWpbjcU17DKWigFhdZJi5syZkf//340bN7KysjRWjJSkUHJ+nPNbt25RgFQdZXHOUZuhlhS7du2iaePi4pQ1Ud0uNoek+Omnn2jmSDB/88039LkqM6IUg25vtmrVapfmH57Kq3EgUxakfEIXLYKrGI38NV5BEabGUFsaBYVPTU1dt27d4MGDlToBgG/K5xzmYGPXqrH6gjEenUI459Y5zuSco5Mqxtjx48fpARC0UEW3FOvWrauqqsKTUEFBQbT6dAwyn6Sw5XukpSvDGrOdLSSFYEmxadMmjW/LFAcqSGsKOmpJ8fLLL2sUtGvXLrhcury8nN6C7OrqunLlypMnT169ejUmJkYwMcA1AK6UoLcrt1k45/ReT0pSNNRQYwo0xDY/P//7778fN24chZGOpYK3KkyoDKiSFFlZWZCbOZYUVAuxmqTA/dVt27al1vSHfohu3LgBSqSDg8OXX36Jz7Ga6HoZSQrcM9SoGiaHQN2RFKaWZKdPnwb88eKGkpISXHvMmDFDSeij37vGQ1LUXS+yiKSoI+iUJAXaw2tYUowcORJaFgcoobNp/MzKytq3b9/bb79NjYZat26NJqhosvr222/X9A2lUh7TCpICr8cyZUmBdzTiSlioWnFx8bFjxxYtWkRPg9vb2x85ckSIqfoTv8paISmsho7KlpCQ8M0334wZMwYVCaNJpr+/v6p9itFtR43xreu62DR0o4XKie75sWlwo6hLly419hzBJxfmXGP/xJjKgHBaEzU0GpPuKjHGTFlSmL8rUyNJIVxefurUKeOhQrj8Er5iVYepVGYa1lDbnjldMTExkTIUnTp1+vbbb8PDw69fvx4bG0vtIql6wDnXAIFipQwLe+FKdwecc+p9jJ6zqFGhshF/mj9cSUs3Xezt7ZVG6w2lWyqBNXncQ7gCXTWl8LBGkgINWeH7UR27DQYDHUBxxSW4h1B1a9S8eXPIWbCkQOfP8BZWFFR4NL2DCEhS4DQPz/G2VJpWGcaTyXCBojKC6pMal8qqqYSH9UxS2NIoguRGm/aysrLo6OgtW7YEBQUhPQxXGSvJfiG5LV2ruroau42xOOWVe5GRkTRCbZEU6O6LMbZq1SrcPaDXIqCThREjRsTExKAYaMELONAxCD8ZCpGqJYUtoNHMlWHtgb7Grm6KFMMr0wAH5YeslKTGJ6ago5x3cHBwjflwzvH+NhBP0GWPHz+OzUd9UlBnqIwxVY9cdMKgJEVDDTWmQFOipNfr4+Pjd+/eHRIS0qRJE4qAqV16IRNVkqKsrAyGiFatWgnx8SduvtFD+1aTFDhHqJq6YKFCAM++mjoYjJbPSFJUVFTU6G5DKAWXQ7VuSaF6YJ5zfujQIWhKvCANiX5Te3d45KTxkBR114ssIinqCDrUXnCywHGVHoAS+hLu9FhBUmBWer3e6IsE70DFCyxwJkVuC5NoB6wgKXDKQ4pEKAKZX1wJCxHoz4SEBDyM2bp16xoVklq3pLAaOloLDJeWlu7btw+5JKVLeIwJAVPxreu62MdUF3JGjzZ4ETs2TVVVFdg2mnn/qyC/8NNU/xSi0Z+HDx+mkxduLtI4V69epXGQjLBa4TGHpMChmDEGnuxwJdyiRQtTNBAVG8Maatszpyuix1bGmJOTk3C59bJly7Cl6oikUJ4Oq66uxmM4jDFqKVajQmUj/jT/Xr16PXjwQK/Xo2sYo3P6gQMHCmZNDaVbYm+kAXVLirogKYQbBFXv1qYrMeMiH2/PSkhIwF5lDOC8izURIqBNO+ec3mnEGFM6uxIOVSJJgTcYQdHUHSuUe/jw4YEDBwYGBo4fP/6tt94C/7p0h5wx9vDhQxRSI1DjQKaRFl/VM0khYG5Ro6DMqoHIyEjKg5qzHKWrSou6Fuecjh2LFy8WRMK73KAb1BZJwTnHw6IjRoxAb+SUZTh69CgU6urqiqs1xpgwAtIxiCbHiqDGJvB3toCGmSsDGrOdLZYUwvf4yy+/KIu29Ikp6KZMmQLIGz13mrmnjb4VIaGwbb5mzRrMkJIUnHN6QoQaAUJd9Ho9XIwHySlJ0VBDjSnQtMF/8OABdeCqZANVk2O3R4UVouFdvKYGWNztpxcTWk1S4O0eFl0L0qtXL2g11YPBeXl5OMohSWFku3DnVlWJLykpSUhIyMzMxP3PuiMplEM6gI8Hr77++mt4gnQq9c9CGxRPcTYekoJzXke9yCKSoo6gU5IUxis/4HiRnZ2d6jK7oqLCxcUFeqwtJAW0e3FxMRjXODg4gGqE7vc0TDlon8GwFSQFnlsxdbBr+PDhUFNhYMFClQG8EIQ6hFJGgyf4VaruxiHpqSoeKnI4LFgNnSnxOOeobL/yyisa0fCVMr51XRebRulcEMrCuzxp0yC1Yco0BuU0M6DsnxoJ0Z8L9JnPPvtMGVmwvEZ2rEbdHtlDyJxqmDVu/VL3mV5eXtQhvfKOdqXM9Im22vZs6Yr0NnrlwcmhQ4cC1HXnOFNpEkttpRljeGef4NhSVYG3Ze1sKv/Lly/TzWBBH2so3ZJ2SAzXK0mBHpUZYzqdTnnVCu63AAGGul1VVRUe32WM9ezZU/C+hua40PkoSSG4pnvzzTex8pxzpKix1yJJYTAY0DKNMda3b1+h0AkTJmAqXDykpqbStld6wlu9evVHH320ZcuW/fv3o1lsjQMZldlUGOe2+vFJYXWjVFZWHj16dPPmzbNnzw4ODhZQhdrRMfHmzZumqozPre5anHPqz8bLy4vSz0+ePKEdjzFGpxDhuAeq7CiVdgBdh7q5uaG6fODAAUxVWFiIzhHQXXnz5s0F1rPGRaMpksIW0FBIZYDOds2aNRMi1NjVTc3ZBoOBthT1PARF/Pvf/zb6mNy4ceOePXvMvG3RFHR40wp84IIXnsLCwnnz5q1evXrbtm0///wzaPwUTMYYXWHm5+fDrYQ4XCQkJCAsqPuqsv5o6AtpcZwB1wwNMtSYAi0qKuq7775bvHjxyJEjVW1uKT0vXA6FaAgBUyQFeoBHJ+pCQlSgqYdmq0mKR48eAZXp5eVl6szj1atXc3JyqBg4faiuCXGhwhjD1YjRlfe8efOgrVWtNvBusBUrVkBZuByqdUsKVbaXc46HAtC6cNasWSAzmBxTEDjn58+fx57fqEiKOupFFpEUdQSdKknx6quvQkOo2qKiP1SBRRVaE3+WlJRcunRJtcUhDipIqFPhTKRqMM85T0lJSUpKwiIgYAVJgR+Xqm1afn4+Hi/FlXBVVdXNmzcPHDggTK8oDK5CBR0AI9AAfpW1QlJwzq2ALjc3Nyws7Pr161QwGgbnQTinWBrfuq6LTfP5559TYSB8+fJlHCuwaTjnuDdu6px4YWHhpUuX6OBsRf9UyoNP8OIbxpiPjw/VEmHrBcllWKFgQqsVHnMsKYxFU/eZ9FKGq1evogzmBLTVNqreWLR20y5au1CroaONJdyXER0dTbWm1q1bUwm15aExhbBw3KNPnz7CMELNNxhj9Ks0pVDRImzB31T+aOkJF7FRlbUBl7G01hCuV5IiOzsbqXrjUfwePXqkp6eDHHq9fsuWLTg8Mcbee+89Ki7lLxhjy5cvx06wf/9+wf+icME7uiSE/L/44ovi4uLKyso//vijTZs29JwIYyw/Px/LRe9KkPDTTz/FFTVqz/CKDp2jRo3CijRv3pwOFvRourOzM/qArfFrRJE0AvVMUhgdO1vdKKi+G4FS7tdFRUVhgzZt2lRVxRdwsKVrUR+WjLHg4ODMzEyDwRATEzNgwAAXFxdqaiGYQNNT9wEBAcLUJQgp/FT1hkVHCs45chPYo5SLc1NjEBaH+o1gSWELaJi5MiA4j6BXatliSSGcGBTcTMbExNC2EE5bKIWEJ6agKy0tpeRUv379cMe+uroalTNKmArHVlE3TU9Ppz59oR2pmovLCXgVGBiIV8HHxsYKY1fv3r1pXRpkqDEFGp3zJkyYIFxGmJWVRS0pTPk7oLXjnOMwSxVWo2MnvO/Nz88PbQowbUZGhqurK1wCjWByzq0mKain282bN2NBGLh3756rq6udnd2sWbPw4csvvwxtqrz788KFC46Ojni2Eel4zjmq6S+88ILg9q+8vByt6C9cuAAF4XKo1kkKxhi47MUacc7v3LkDzGmrVq3g1iHO+cqVK6GmysE8JyenY8eOWFNqaoFXkJpynFlaWgrZCt2eTj1U27M0fh31IotIijqCDkcV2iKoYo0ZM4a2KfixRi7ATJJizJgxjDFnZ2dVRrKqqgqcNTZv3hzLws957NixqL/h27KyMjBCfvHFF+lMioIpv3TOuertHjdu3ICe065dO+Ej4pwvXboU3jLGcGD58ssv4eGhQ4dQJBqYMWMGRIiNjaXPVcP4VeJEQKPhQt1MSwo6EpoJXWVlJWi2vXv3FoZikCQ9PR2qA+5vLY1v9VePH52Xl5fQNE+fPu3fvz/qftg0nPP4+HhYW3bo0EHVKyHsUzZv3hw91lnRP2kbCWE0awXQpkyZUlJSAnGKi4unTp0Kz+Ff6gyiRt3e1K6MmSQFOsRljOGelpnmn7SO2mrbs6UrTpo0iTYHHs+JjIzEU04QQafT0e6kDQKFSwgLJAVj7P3338f58fjx43QRIfAmphQqWoQt+JvK/+HDh9THuXBXV53qlocOHfru7z/Uq2llhXC9khRG3yE4d0IXcXR0HDJkyKhRozw9PWmv8vPzo5tLxhu57969i+Q3xPT29n7ttde6d+/OGPPw8OjatSvmsHDhQlpP9NqFEcD7NPwUmIhHjx5h2qqqqkGDBtFUPj4+o0aNAi0En7/88suUwb1z5w7qZDBwDBs2LCQkBE1eISFVdmscyFAkjUD9kxRWN4qwPu/WrdvUqVPnzp0bEhIyYMAAynQuX75co8r0ldVd68SJE9iUGMCZctWqVXShePjwYVoour6DhO3atQsICFDyCDQJhtGTGRaqvHeQ3uwA0QS7LFPWXFgK3YQRSApbvkeavxAW8LS3t+/Xr1/Pnj1h37XGrq4xZ5eVlfXs2RPhYoz17t07JCQkMDAQp2fG2GuvvSaIZOqnqeHbaF8juMBwdXUdP378G2+8Qa05HBwcLl26BJmnpKRgnwEJu3bt2qdPHzDp79u3L/Vo5e3tvWLFCtBQq6qq0I4GErq5uQUFBQUEBOh0Ojs7O1zrMsaEHtIgQ40p0JKTk+kQ7eHh8frrr8+ZM2f69OkjRoygLmYHDhyIbK+ppoHnuKqhCiu8mjZtGsAVFBRELxGIjo5G78vCXc62kBRpaWlAfOh0utDQUFSvq6qqDh8+jG4jkTvgnONSZMCAAWg0l5eX98UXXzg5OQUFBaEHLzzADFXD00YvvfQSnO0yGAxxcXFowjB8+HDEDZdDtU5S+Pn5tWvX7vTp09hY8fHxMOEyxtavX48yoK1EixYt8IuoqKg4ePCgp6enh4cHmo9Sc9YaSQo8oaDT6cLDw6urq3Nzc2H5ivw4JSmsiF8XvcgikqKOoMPZkJIUT548QSZ30aJFeXl50IKJiYmjR4+G6zbhmzLnuAeeqPL29v79998prZCRkYF9mJ6grKysRC0oODiYshvR0dE40Anm9FaQFJxzNOp+5ZVX0Ot5bm4u7DwjcYwDS25uLnzgzs7OW7duRXCMXhKKiorQ0aaSL8OvgAbwq6wtksIK6HD3ddiwYdHR0fgVc86vX7+OByjwBLSl8a3rurRp/P39o6Ojq6ury8vL//zzz/79+zs7O6MRHDYNAIu+Knr37k3J0/T0dNw2oMZfVvRP2oLKMI458I24u7sHBQUFBgZSbd8iK2YoQkPhqfG4B+SA976BYEZDdbq4UFZE9Ym22vZs6YqCJSyooGidvXDhQmr2EhAQ8PHHH8PxnBpBUIXOqGNjZ4MmgHWBp6fn6NGj6R4hvBUWEaYUKqEsHNIhE/PXzhr5o3UY5HnmzBkstE51SzzSpdy/QQEwUN8kBed89+7dlFUCdOi//v7+wn4yiLtz504aDcOOjo7Hjx/HQ4aMsXfffRdryDkvLCwUaAVMu2LFCmTi4aHgZOXRo0c4n2EqGhg8eDBaM2Kh586dQ22ARsbw0qVLMbI528s0sqlw/ZMURqXQ6kYxWuYjGqYCb775JlV9TFUcn1vdtQRjCpRnyJAh5eXltPPQ+wXp/gYmYYwNHjwYRdIO0JyBfBXiKwla5R3dGmMQ5EZHSXoSCt5aDZogKv4sLy9HdxsUFuCzbSEpOOcZGRk4wNHMMfzqq68K/iBQMGVAG7ovv/yS8mVYBASaNGlCN0w456hdCTG9vLySk5NRbcW36Prnxo0bgqKDcT755JPPP/8cf77wwgtCLep/qNEA7ZdffqFkBIpNAz169MAVu1AX5U8NkqK4uDgwMBBytrOz69at28CBAynZvWjRIqqX22hJARdFNWvWDEp0cnLy8/Pz9fVF20B7e3uBQHzy5Am6MXNwcOjatWvHjh2BtPLz88vNzcWzPE5OTv7+/kipFBYW4oIN7EGwFHCSQs+VYL+qdZLi6NGjgGfbtm0HDhxIqbRXXnlFGJlh3xLA8fLy6tatG8js6uoaHR2dmZmJBFafPn3gojVzSAokEbALwQCICwaBpLA0fl30IotICuPtVHUBHWq0lKQAp6c4ptnb23t5eeHFsaGhoTiCKWcZ5bcpmCQ4Ojp26NDBz8+P7lUGBAQIo/H9+/eRQ2SMderUqUePHtRsbebMmcLOv3UkRVJSElYN9rE8PT2BRw4MDMRPjx4H+/XXX1E11el0bdu29fPz8/b2RvbZw8PDHA9Zte44E8C3FLrS0lI6Vru4uHTq1MnX15eqpnQ/z9L41nVdOKhIO4nu7z847XjgwIHvv/8ePnaBpCgrK0N/FtCgvXr1ateuHfbn/v37U5M06/qnaj+Hh1VVVXhADIcjITBnzhyh99qi8JhJUlD3mbAtqrqA0qiaEStttQ3SPiu6YkVFhbB9iM30yiuvlJaW4nYFPoctNHNAUIVRMLRJTk6mqgiWwhhT+gqhHykl8ZUFWYe/Rv5VVVV4hyBjrHPnztRare50S9ThGylJAScPZ86cKZyzsLOz69ev3549e9BIRtlIv/32Gz0pAAvC6Ohoo9Uf1U6mTJkipM3JyZk8eTJONoyxjh07wqFftBGFnqQ8EllRUfHdd99R7g1i9uvX74cfflBaLULRDx48mD9/Pp19wRPHsGHDlCdCaxzIhOqo/mwQksLofszqRjl9+nRQUBAqr/gl29vbBwYGIsGvWllTD1NSUqzoWpWVlR9//DFdCbi5ua1YsQJOmtAzFzt27KBFGwyGDz/8EDUbmCGE+19pfCGM58+h7sePHxcilJaW0lWfqmN2jTEIctMmKWz5HgVp8WdMTAzVROGmG9gTrrGra2wsQP4lJSUbNmyg930Cet27d9+xYwe1aUJ5TAVqhO7q1atjx46lTQCLxpCQEKUer9fr161bRy3onJyc3n77bVxSrlmzBruKo6MjXdPGxcUJHny7dOmyZ88eYHXx02jbtq2yLvU81GiDlpiYOH36dGHcA/l79er1zTffCItbZXXoEw2SAmzUt27dClblCJFOpy9Ua7cAAAcjSURBVAsICDh27BjNB8KomqhaWSvjK5+kp6fPnDkTqQoo1MnJKTg4GC0IaKq0tDRkUiBy8+bNFy9eDIcKDQbDnDlzcFZavXo1pi0rK9uwYYNA9rm7uy9fvlywMaw7kuLKlStZWVnBwcHYaRljxvN3S5YsQVNnFLikpGTu3Lk0pqOj46RJk3A+/eGHH5CJgztozSEpsrKyqDGjo6Pj3bt3TR334JxbGr8uepGlJEVdQGeKpID1M+qI0Cd9fHzASTl6/1VeSocNLQSOHDkCNl/4AUKgS5cuX331lerHXlxcvHbtWjQ+woQvv/zy/v37hfw559aRFHA0adSoUfh9wdHrpUuXwr49lCt4koqJiZk4caJwFRHMX4sWLTLHOBnkx6+ytiwpIFtLoauoqNi0aZOwFwJ2xIMGDVKqWJbGt6LrQkWys7Pnzp2LLJKLi8sbb7wBhCNaXSn9Den1+p9++gkdEmPP6dKly/r161XPBVvRP0FCU/+eO3du5MiRgtbq7Ow8atSoc+fOKVPZovCYSVJUVFTQCVd5mEspleoTDbUN41unYGNyZUCjUFugy8/PnzZtGjWwbdWq1erVq8GJ79OnTynh1axZMyS7NeRRCo9P9u/fj70RHLFlZmYGBwejb2zGmKen5/bt24WNE3NMobEU63R1bYVNuP5SGK/qSLfECcgCkoKiUG/h6urq+Pj4c+fOnT59+sqVK/RokIYMBoMhPj4+LCzs4sWLAm+qkQpePXny5Pz582fOnElKSrJoMQPJMzMzL168eOrUqb/++stMqlKv1yckJERERJw8efKvv/6iB6RrlPYZimBLo5SXlyckJISHhx8/fjw8PDwmJkZ1srEIDeu6VllZ2eXLl0+fPm2pDPn5+VFRUZGRkTdv3hQ2jiwSu2EjWweaKZkNBgP0/MuXL6elpZmKZsvz9PT0CxcunDhx4vz585YOBRaVW1paeuPGjTNnzoSFhcXGxqpq3phhRUXF1atXT506dfXqVaWNVXl5eXJyckpKimom9+/fj4iIOHfuHNonY7Y1BhrVUKPX69PS0iIjI0+ePBkWFnb58mXq66fGulgaIT09/fz58zAymzmPWFoEjV9ZWRkbG3v27NmIiIjExESBNaAxIZyVlWW8lPHMmTNxcXHKdi8rK7t//z7dwaA53L59OyIi4vTp07GxsRr0PU1iYxh3C69cuQJZ5efnX7ly5dSpU1euXNEenIuKiqKiok6dOnX9+nVl56+urs7IyMCTMmbKaTAY7t+/Hx0dnZCQoERPmYml8TGHeu5FWC4E6gI6oQj68+7duxEREeHh4UlJSUq9mcY0J1xYWHjt2rWwsDCLRuM7d+78+eefYWFhMTExtXVrg1La3NzcCxcuwLRu6isTUpWXl8fFxZ09e/b48eMREREpKSmm9qKEhPX201LosrOzo6KiTp48efr06cuXL9eoiFoU35au++TJE6HpN23aBOs9JYeC8GZnZ4MqfuXKFfTshm+VAev6pzIffIIqwdmzZ2NiYszsV5i8dgOZmZl0MSycJrCoLDPVtmdFVywoKIBv/+bNm8q5o6ioKCEh4f79+8LXbSYI5gCbl5cXHR0dFhZ269YtoRRzkpuKU7v4myoFnzesbvm/xz1QGhmQCEgEJAISAYmAROD5RABJCnN2OZ5PiGStJQISgTpCAG89M/OKrjoS4xnKlt4c4eXlBcYCz5D8UlSJgAYCkqTQAEe+kghIBCQCEgGJwHOEgCQpnqPGllWVCNQvAgUFBTNmzBg0aNCwYcOUJRcWFsIxcDc3t/oxHFPK8Gw9CQ8Pp4fsvv3222dLfimtREAbAUlSaOMj30oEJAISAYmAROB5QUCSFM9LS8t6SgQaAgE8kb5u3Tp61KikpGTChAlw1mPZsmUNIdqzUWZBQcG0adMWLlw4evRo6nKlS5cugtvOZ6M+UkqJgGkEJElhGhv5RiIgEZAISAQkAs8TApKkeJ5aW9ZVIlDfCERFReHmv6+v77x581auXDlr1qy2bdsCQ+Hn5/fs+vaqBzRzcnLQTSMGnJ2d5QG9egBfFlHPCEiSop4Bl8VJBCQCEgGJgESgkSIgSYpG2jBSLInAPwWByMjILl264AIbA3Z2dsHBwXl5ef+UitZJPZQkRevWrc+cOVMnhclMJQINioAkKRoUflm4REAiIBGQCEgEGg0Ce/fuffvvP7jss9HIJQWRCEgE/jkIVFdXR0REfP755/PmzXvnnXeWLFmyY8eO1NTUf04N66wmpaWla9asmTdv3owZMxYtWrR3715peFJnYMuMGxgBSVI0cAPI4iUCEgGJgERAIiARkAhIBCQCEgGJgERAIiARAAQkSSF7gkRAIiARkAhIBCQCEgGJgERAIiARkAhIBCQCjQIBSVI0imaQQkgEJAISAYmAREAiIBGQCEgEJAISAYmAREAi8H8BT/PHNSrRvZwAAAAASUVORK5CYII=;" vertex="1" parent="KGChQR1K5hRhyjWdONPX-30">
          <mxGeometry x="290" y="440" width="730" height="21.08" as="geometry" />
        </mxCell>
        <mxCell id="KGChQR1K5hRhyjWdONPX-124" style="edgeStyle=orthogonalEdgeStyle;rounded=0;orthogonalLoop=1;jettySize=auto;html=1;strokeWidth=3;strokeColor=#990099;" edge="1" parent="KGChQR1K5hRhyjWdONPX-30" source="KGChQR1K5hRhyjWdONPX-44">
          <mxGeometry relative="1" as="geometry">
            <mxPoint x="2370" y="560" as="targetPoint" />
          </mxGeometry>
        </mxCell>
        <mxCell id="KGChQR1K5hRhyjWdONPX-44" value="Client" style="swimlane;whiteSpace=wrap;html=1;" vertex="1" parent="KGChQR1K5hRhyjWdONPX-30">
          <mxGeometry x="2980" y="180" width="330" height="740" as="geometry">
            <mxRectangle x="680" y="60" width="70" height="30" as="alternateBounds" />
          </mxGeometry>
        </mxCell>
        <mxCell id="KGChQR1K5hRhyjWdONPX-45" value="Kafka Client&lt;div&gt;(essentially app or service)&lt;/div&gt;" style="whiteSpace=wrap;html=1;aspect=fixed;" vertex="1" parent="KGChQR1K5hRhyjWdONPX-44">
          <mxGeometry x="110" y="141" width="80" height="80" as="geometry" />
        </mxCell>
        <mxCell id="KGChQR1K5hRhyjWdONPX-46" value="Kafka Client&lt;div&gt;(essentially app or service)&lt;/div&gt;" style="whiteSpace=wrap;html=1;aspect=fixed;" vertex="1" parent="KGChQR1K5hRhyjWdONPX-44">
          <mxGeometry x="110" y="281" width="80" height="80" as="geometry" />
        </mxCell>
        <mxCell id="KGChQR1K5hRhyjWdONPX-47" value="Kafka Client&lt;div&gt;(essentially app or service)&lt;/div&gt;" style="whiteSpace=wrap;html=1;aspect=fixed;" vertex="1" parent="KGChQR1K5hRhyjWdONPX-44">
          <mxGeometry x="110" y="451" width="80" height="80" as="geometry" />
        </mxCell>
        <mxCell id="KGChQR1K5hRhyjWdONPX-56" value="" style="swimlane;startSize=0;" vertex="1" parent="KGChQR1K5hRhyjWdONPX-44">
          <mxGeometry x="40" y="110" width="220" height="465" as="geometry" />
        </mxCell>
        <mxCell id="KGChQR1K5hRhyjWdONPX-121" value="by Quering the Metadata" style="text;html=1;align=center;verticalAlign=middle;resizable=0;points=[];autosize=1;strokeColor=none;fillColor=none;" vertex="1" parent="KGChQR1K5hRhyjWdONPX-30">
          <mxGeometry x="510" y="461.0799999999999" width="160" height="30" as="geometry" />
        </mxCell>
        <mxCell id="KGChQR1K5hRhyjWdONPX-122" value="" style="shape=image;verticalLabelPosition=bottom;labelBackgroundColor=default;verticalAlign=top;aspect=fixed;imageAspect=0;image=data:image/png,iVBORw0KGgoAAAANSUhEUgAABZ0AAABcCAIAAACKp4zSAAAAAXNSR0IArs4c6QAAIABJREFUeAHsvfl/Tdf3P/7+B/bNfBMRhIsMpppjrFmrKBXEUGpog1ZbDZ1ebVVboaZS2lKlKG3RSWuKkJjFnCASJBKChAwyyE1yc2/2N6+u93t99nefc2/OPYkIVn7IY9999rD2cw9nr+dZe+3/4fRHCBAChAAhQAgQAoQAIUAIEAKEACFACBAChMDjicD/PJ5ik9SEACFACBAChAAhQAgQAoQAIUAIEAKEACFACHDiNWgQEAKEACFACBAChAAhQAgQAoQAIUAIEAKEwOOKAPEaj2vPkdyEACFACBAChAAhQAgQAoQAIUAIEAKEACFAvAaNAUKAECAECAFCgBAgBAgBQoAQIAQIAUKAEHhcESBe43HtOZKbECAECAFCgBAgBAgBQoAQIAQIAUKAECAEiNegMUAIEAKEACFACBAChAAhQAgQAoQAIUAIEAKPKwLEazyuPUdyEwKEACFACBAChAAhQAgQAoQAIUAIEAKEQHV5jaKiooR//zIzMwlNHQjcvn0bAExISLh69aqOEigLIVA3EUhOTk5ISLh06ZJG8ZxNr7FYjcksFgvMxPT0dI1ZKNlTgkBBQQGMjby8vKekyU9eM3NycupCJ165ciUhIeHixYvaEX7kS1N+fj5Ad+/ePe1iP/KUOqB+5DJXR4DExMSEhISkpCQo5Pr1686OtOrUXpt5MzMzYUAWFRXVZr1PVV36lLuMjAzoGrPZrBsu6l/O+YMHDwBJ+F9WVqYdz9TUVMybkZGhPeOTkfJ/Kioqyp3/s1qt0P7o6Gj2798nn3zyZCBSy62IiIgAABljXbt2reXaqTpC4OEh0Lp1a8aYt7e3xiqcTa+xWI3Jbt26BTMxNDRUYxZK9jQgYDabe/bsyRhr3759QUHB09DkJ7KNa9asgQm+YcOGR9jAdu3aMcY8PT21y/DIl6bt27cDdEuXLtUu9iNPqQPqRy5zdQRo1KgRYywgIAAKiY2NdXNzY4wtXLiwOsXWwbyffPIJDMjo6Og6KN6TIZI+5e7111+Hrjl37pxuHKh/OecxMTGAJPy/ceOGdjz79++PecPDw7VnfDJS/g+OXURBSwA1cMxOvIa+AUG8hj7cKFfdR8BZnsLZ9DWLwCNXHmq2OVRaTSEwYcIExli9evVSU1Nrqkwqp/YRIF5DN+bEa+iGrjYzSrwG53zVqlWMMYPBsGPHjtqU5GHXRXrvw0aYc65PuSNeo6a6hngN3UgSr6EbuprJSLxGzeBIpTw6BBYtWhQWFpaYmCiJ8N1330VGRi5evFiKdza9lP0h/SwsLIz892/btm0PqYraLHbnzp1hYWHbt2+vnUqvX78eFhb22Wef1U51tVbLhg0bgOjfuHFjrVVKFT0MBB5fXuORL03EazyMAVnjZSp5jYqKisGDBzPGGjRocOvWLWdrrLOrOvEaznaljvT6eI1du3bBPurOnTs6KoUsT0//Hj16NPjfvw8//FCCq0peY+zYsZBXObUfL3uNSZMmhYWFSc2vzs//ycjIWKP216FDB9jPzZkzR/n8t99+g1r1Df3qSPyE5SVe4wnr0KewOYGBgYyxw4cPa2y7s+k1FkvJRASmTp3KGIuMjBQjH15448aNjLHnn3/+4VVR+yVnZmbWq1ePMfbCCy/Ufu1UY80i8PjyGjWLg47SiNfQAVrtZ1HyGpzz9PR0T09PxtioUaOcFanOrupPj97rbJfVYPpHqNw9Pf07c+ZMULSVp0WsVusD4a+iokLs3Fu3bhkMBsirPKJiNpsxa2lpqZixroWvX78OrahBwez6DR02bBhU5lhdeYRDvwZReIRFEa/xCMGnqquPwJ07d7QsFFiRs+kxIwWcQqBNmza1yWu88cYbTx6vER4eDlbc8fHxToFPiesgAsRr6O4U4jV0Q1ebGVV5Dc75f/7zH3hHx8TEOCVPnV3Vnx6916n+qtnEj1C5e0r612KxNGzYEOamktdw3Jtff/01ZGSMKXkNx3nr1NOtW7dCQ2pQqhrjNebOnYti3b9//9KlS4mJiYWFhRjpIJCfnw9XIdy6dUsipRzk0vLo7t27Z8+ePX36dE5Ojpb0kMZmsyUmJp4/f76kpEQ1V3l5eUZGRnx8fFJSknYP4RaL5fr16xcuXMjOzsZia4fXyM7Ovnz5ckJCwu3bt7Fqx4Hy8vKbN2/Gx8enpKQUFxc7Tiw9NZvN8fHxly9frtnelGqBnxaLJSMj48qVKzdv3rRYLKpppEiz2ZyamhofH5+enq7RyXBxcXF6evqVK1fu3LlTzUZZrda0tLT4+PiLFy9qHzxSE5Q/i4qKrv779+DBA+VTZcz9+/cvX758/vz5lJQUjbhBITk5ORcvXszPz4eff/31F6xKjglQFMDZ9JgRArdv375w4UJiYuLdu3elR45/FhcXX716NSEhwdmMymKdKqq8vPz27ds3btxwCmRlpRijZSjm5uZCp1Rpr2GxWK5du5aSkmKz2bAKDJjN5itXrpw7dy4pKcmx5/nOnTtr4TV0TD2z2Zyenl79eYeN0hhIT093dXXV8p1TR6McyPCo2qsUqbi4ODEx0d4ro7i4OCUlJT4+Pi0tzd6LUlmm7hiLxXLjxg1YtKtcgeFVm5CQkJmZiYmrz2tIS5/Ultzc3KSkpISEhIyMDNXZBOmVzixh/CQkJGRlZUllOvvTqaVJe+HV5DVqdoJoF7v6UGtfAFGq2tmQ5OTkXLhw4dq1a+KtE/Z4jXv37oHJxoABA1BOLQGNq3qNLwWZmZnwlrf30kG9d//+/dCQioqKrKys+Pj4K1euaNzU6dhL4Cp09epVjT6ka2c8aOlNZ9Mgr1Ed5U610trpX9WqpUhnNcTCwsKkpCTYNjtrB6FUi/bu3YvchLO8Bvgyh+zV4TXMZvP169dB0dOosEsYVlRU3L59++zZsykpKfi2ldI4+IkqsIM0nHOnpl6N8RpffPEF53zXrl3PPvssdpWLi8ugQYPOnz+vKrHFYvn++++7deuG5jSMMZPJ9Pbbb9vbS6mWwznv1auX6f/+fvzxR875nj17evXqJUry4osvKi9S/f333/8vn2ngwIGc8zNnzgQHB0NGpffv6Ojo0NBQHx8fLJkxFhQU9Oabb6akpNgTLz8/PyIiws/PD3N17tz5119/5ZxjpyrvQxk9ejTKNmfOHGXhzz//PCYA/KU0ubm5n3zyCbhjxKpNJtOcOXMcIHzy5MkxY8aAATbkcnNzGzx48IEDB6TyOefvvvsuygC+Yzdt2uTt7Q0ZT506pcwixvz000+Q/eeffxbjMTxhwgRIIN2waLVaf/zxxz59+ri7u2PT3NzcevfuvW7dOryvB8uBQHR09JAhQzw8PDCLt7d3WFjY2bNnpZTws6Cg4Isvvmjbtq04RI1GY2hoqLOfPjjnhw4dCg0N9fLywtoZY8HBwZGRkeLuRFUSMTI1NRUwmTdvHrhNHjBgAJbp5uY2dOhQe86oCwoK5s+fLw0JT0/Pl1566cSJE2ItEP7rr7+grpiYmLy8vNGjR0NF4eHhy5YtM5lMOE4aNGgAKfGQWp8+fUwmU6tWraAoZ9OLwmRkZLz11ltNmzbFZsK8e++995TKQHZ2NkgCk+L8+fMjR44EHRWyt2vXTul4IjMzE3JNnToVq9ZXFGS/cePG5MmTER9XV9cxY8YkJCRwzlesWAF1ab/uUeNQPHbsmMlkgg0uXEYDFeECAp3y4osvcs63b9/u7+8PmIivRqvVunHjxl69erm4uCDgLi4u3bt337JlC4LDObdarVA+TBB3d3f42bNnTzEZOCFzaupxzo8ePfrCCy+AS3/w3BkREQFU4NixY00mU+vWraGW8ePHQ71xcXFSvfjz8uXLkEbjSc53330X2u5gpju7nqAwqgHt7VXNXs1IHP+RkZEVFRWffPIJLK3BwcFiyTabbdu2bX379hUnlIeHx6BBg3bu3CmmhPAbb7wBsNvzuhoQEGAymaQTTAMGDDCZTEOGDOGc371796233sJ5xBjz9/efP39+eXm5srqCgoKIiIj69evjuA0KClq6dKnNZnOW13Cw9In1PnjwYNGiRe3bt8caGWN+fn4TJ06EyS4m5pyDsu3l5cU5v3bt2pgxY8T3UYcOHZSvQuyamlqaJJGq/OmY11i6dCl08csvvyx1isYJsnLlSihhxYoV9oSxWq0dOnQwmUwtWrTQ+KFFB9RQu/YFEKWtnQ0JLKSiSuPm5hYaGgqXqdvjNTjnr732GoxPexsDbIj2Vd3ZpUCsQjVcXFwcGRnZsmVLnEouLi4DBgyIioqS0iOvcfDgQZvNtmLFisppjrm8vLymTp1q76ORU3sJrPfkyZOjR48Wd/4Gg6FLly6rVq1SZXVrbTyghBCA9bZp06aqzR86dChMtPXr10sZOecbN26Ep8AWIa/hlHL3wQcfQCEXLlyQqqid/pUqhZ+6NUTIXlRU9OWXX0qLvIeHx9ChQ2NjY5U1VqkWwTZMHE5eXl6AG74KYS8HkSaTCa5rxbcSjnZ4IUKyPXv2gDBVKo9lZWU//PBD3759cX8FpqkhISGRkZH3799XNuqPP/5AYUBZttls3377rTj1GjduvGTJEge0vlgsCAmUK+j+UL50Ma2zU49zXmO8xuLFi1etWgW7Wzc3N3FDbDQaldv3nJyc3r17Y980btw4ICAAt0q+vr5HjhwRIXAc7tq1Kxb1xRdfrF69WlRE8VG9evUki2L8eswYa9q0aWFhoclkwvQir1FUVIRKHSYQA66uritXrlTKmZmZKamRmOvTTz/F3bOS16jS9UunTp2wqHfffVeq+siRI2jjhMkw4Ovri3MAM1Ze+osmi5hSDLz33nuYGAIiLzNp0qSTJ0+KXV8lr4F7zR9++EEqGX4OGTIEBBAtbkpLS4cOHSoKJrIbjLHBgwdLZKrVan3zzTcxS7169YKCgoxGI8QYDAZl36Wnp4szljEm1QK0gqrYysgvv/wSazcYDL6+viJQISEhaAGhzCvFZGRkQFGvvfba1q1bcdaIBbq7uyv7NyMjQxyKnp6eyEAxxlxcXIATFKv7888/oa7ff//95ZdfxiaEh4d/9tln+FMMbN68GUqAuvCeV2fToxjR0dEop4uLS7NmzUwmE07whg0bnjx5EhNXcoVFRUUgz8yZM2NjY4FIMhgM4grOGJMaq3ofir6iOOfnzp3z9fVFWIxGI/SO0WjcvXv3nDlz4FFycrIoub2w9qEo+ZpCAfBrACwaHTp0uHjxIo4c0ZTRYrG89NJLmNHNzU1sCGPstddeQ1a+vLwcU4oBURnWMfU45+vXrxcLxAHQokWL69evd+nShTHWpEkTQOyXX36BxDNmzLCHIQ4/qd9V09tsNiDRmjRpovqS1tco1bog0qn2OihH96OcnBzAcNasWbgsA/GKZZrN5pEjR2K/+Pj4iKsojA1Jsx0/fjykv3LlCpYjBmAQdurUSYzs3r07Y+yZZ565c+cOfmYQ9X/G2OTJk8UsnPO8vLyOHTuieP7+/s2aNYN5N3r0aGyUxnteHSx9WG9aWhoc+IJKGzVqFBgYiK8JFxeXtWvXYmIIgLLt4+OTkJCAnzowC5Tz8ccfi7lqdmkSS9YYdsBrbNq0CWTu3r27+LnPqQly8+ZN6KY2bdrYEwlXNmW/28uiA2r4MKh9AYSqa2dDwjn/4YcfcHh7enoGBQWBauTt7X3s2LHGjRuL97yKsKCOqtzCickgrGVV17EUKCsSY27duiXpjdhSxth//vMfMTHyGsePHx87diyklCZR27Ztlbarzu4loNKFCxeiMB4eHoGBgQ0aNMCY7t27S0agtTYeREwgjCPkjz/+kJ7ev38ft4hjxoyRnlbSrOPGjYNdLpjJ4JhxSrmzdx9K7fSvslEQo1tD5JwnJSVJigB2PQSUVrFVqkXiPlwqDV+FuOJBAvjy9Ouvv0rpxZ9//vkntNex8njt2jUHc61yb9yoUaODBw9KYO7YsQPrMplMFRUVEydOxBgxIPLvUiHiT1FIMbv4jc3ZqQfl1xiv8corr7i6uo4fP/7ixYsVFRVWqzU+Ph4/I0sui2w228CBA6ElYWFh165dA2kKCwtXrlwJ25d69epJtI2IiBQWjUSGDRsGJQQHB4eEhEiLXZs2bUQrtX379iGg3t7ey5Ytw5+VAeQ1LBaL1Aeenp4dO3YUqWXIqPzg8MILL4hluru7d+/evW3btkCPiZLj7bnQOrFGVEvEhjvgNRISEpAGg9pbt24dFBSE2iCsXxLvgFt/yDJgwICIiIjx48eLG8rly5eLMnz88cfYutDQ0OHDh+NPxphUvpgRwrjXdIrXWLx4MdQyePDg48ePg7FDUVHRgQMH+vXrB48+//xzsbp58+ZBfKdOnQ4fPgyKmcVi2blzZ0BAADz6559/xCxInbzzzjvJyckwbHJycrZs2YJZVMlasRAIHzp0CKrw8fHZvn07fG4qKys7depUnz594JEDlUwqEF1U9O7d29fXt3v37tHR0fn5+TabLTk5Gdeahg0bSrTr888/D3WNGTMGbZeys7OXLFkCo8Xd3T0tLU2sbvfu3ZDlk08+MRgMXbt2Xbly5ebNm/ft25eXl5eamjpt2jRIsHXr1tR//9B2VOI1nE0PYly9ehWICTc3t0WLFuXm5kL83bt3P/roI6ja399fPNtlNpshfvjw4f7+/t27d4+JiYHuy8jIeOeddzCXuBSoKg/6iiotLW3VqhXUMm7cOLDkKikp+e2335o1a9agQYMRI0bAU3sfscUuqGRJtA9FMPnGzc3s2bOhU/DrDWiMwcHBkyZN8vDwiIiI2LRp05o1a5BWi4yMBNk6dOhw7NgxUFMfPHjw559/4rD/5ZdfUEI40gVZevXqBdXdvHkTE+iYesnJyUBCubi4REZGAqd5//79xYsXu7u79+/fHxbegIAAqKWkpAQ2mj4+Pva+5YL+aTQacXyihMrAiRMnoEWvv/668innXEejVMuBSGfb66Ao3Y+Qwps6dWpgYKDJZJo/f/7mzZs3bdqEZeJk79Gjx/Hjx2EVtdlsMTExzzzzDCA2f/58TM8518drwGsxICBg8ODBjRs33rx5M1h95+fnf//99/g+kr5SvPrqqyBDnz59Ll++DGLk5ubOnz/fYDDAyK/8uqWR13Cw9EHJJSUl6F590qRJ169fh3iz2bxhwwYwMDEYDNIGEZRtPz+/bt26NWnS5KeffoJVGtZh5F6PHTuGMNbg0oRlOhWwx2vs3r0baKkOHTqIHx50TBDcORw9elRVNtSXJDxVE0OkDqg5584ugJzz2tmQXLt2DYaHm5vbd999B9ueioqKo0ePdu7cuUWLFrAG4qooIlNpHA30dIsWLcR4e+EqV3UdS4G9uio9gJSXl+P0nDVrVnJycnl5+b1797Zu3dqsWTOY1OJChLzGlClTXF1dP//8c1AWSktL9+7di+8p6WOVjr0E53zLli0gQJMmTbZv344fzCoPneGgHTRoEHL9tTYeVPG8ceMGSPvOO+9ICUAvhY+dDRo0kPh6m80GjwYNGgQZkddwSrnDeSpaBtVO/0rtFX+KepZTGqLZbMa9HHz8Gzx48Lhx45o3bw44w/+9e/eK1VWpFj1CXiMjIwOtdEH4+vXrh4SENGnSRGyRu7u79L0QxwNjzGg0rl27VkwvhZVfVUV8IHz79u3U1FR8h8LWMTU1FT+N6Jh6UHKN8RqMsenTp0ui5+TkwCdxT09P8Xg5cvxhYWHicgDZ0Y+IRtan0mIZtVkA18fHZ9++fVDanTt3UHWEp+KNfQcOHMD+MBgMrVq1cnV1nTx58rJly95///3du3dDIV988QUmY4y9/fbb+GkiMTFR5Bfc3NzEb7DiUGCMPfvss3j70alTp4Bfx5JriteoqKiAg5FQcqVBL56ziI+PF6nHLl26YJddunQJ2dxKC/bvvvsOH8XHx+P3UqPRiE2oNPj59NNPUf5WrVoZDIYGDRrMnj176dKls2bNqlJt08drAPnq7e2tPL5RWloK3dGsWTOUPyUlBbZfwcHBkqoPxsAwSoOCgnCtv3//PnBAqlchpKenA182adIkrMVBAIjwyuvW1q1bJyUrLCyE7YiHh4eyOVJi+JmVlYWYt2nTRjrnWVFRgWrwV199hSVcunQJcrVo0QLfzfgUzUmkqzqjoqIgV5MmTYYMGSLOYsiLBkdK/xoSr6EvPVIAq1evRmkx8N5774F477//PkaWlJQgPiEhIcqPNriFqlJ50FfUTz/9BAI899xzOKJAvCtXruBHWsZYlROEc65jKP7zzz8ggPJLArzg69Wr5+3trTxhUVFRge88ZL4Q2OPHj0Ox/fv3x0jOeX5+PsSjCSU+1TH1RKtpaTRyzn/77TeoS/oyiSYwaC6EMoD5DORSJYjFlBBGglu1NH2NUtaCMWglrr29mLemAkjhNWnSpFmzZsqDimfPngUMW7ZsKa05nPPKi9VAk/fw8BBJRn28BtpyGo1G8X0KjX3//fdBkoULF2Lz8Zu/v7+/cpFfsGABDhuNvEaVS9/y5cuhzPHjx6MYGNi5cyc87datG0biORTGmKenJxwfEJ8uXboUco0cORLjVXkNfUsTlulUQJXXiIuLg/dmq1atxC1BJZmlY4L8/fff0HDVGWqxWOAt2bJlS+WO0V5bgNdwCmp9C2AtbEg45zNmzACIvvzyS6nJ2dnZqJao8hoiOa68FVIqDX46WNX1LQWqtUAk6kizZ8+Wkp07dw42b4GBgXi+GHkNxpjy3BbO3MGDB4ul6dtLwOkeV1dXiUUF0x5UmHft2oV11c54wOqkAAx7/OyPT2fNmsUYqzTHg4Vaak58fDyMLvxyKSov2pU7VV6jdvoXW6oM6NYQUUMBcPCsZWFhoahkwbkMrLdKtaioqCg/Px+t0SsNZidNmpT/7x9+d1G117BYLPn5+dIjcHiXn5+P+3MHH8XRpIAx5ubmtn79euARKioqdu/eLRrntmjRAguEA+8AAvz39/cPDg7+559/wK8NcnzwVONpX845mtIgehAoKSnRMfUgb43xGt7e3vjFT5QPPxGL7id69OgB1JdocCLmghHj5eWl3D+JyTAs9mLl6Vbp4/+tW7fwCw9jbOjQoZhRGh8uLi7Ks3wFBQViZw8bNgyzQ+DGjRuicYT4iW/y5Mk4FNzc3KSP4eIpmBo8h4LLOlSNtkkg7a5du1CkSld/yMnhesQY69Spk7R7EJkdNGPhnEsmHiaTyV6fSqDBT1w1pC7DxDjzxc9B8Apv3749JhMDlZeuJycnixzBhx9+CE1WvgIhI5qNoQ+R5ORkyPL222+LhWM4ISEhPT0dmUWMVw1UmjQvXbr0vffeE1uBKSdMmAB1nT59GiMdBERe46efflKmxFHdt29ffHrjxo3Vq1d/9tlnkosESJCUlAQyDB8+HLPAaV6IZ4ypWpI/VF7j9u3bwLUFBQXhnkYULycnBzY9/v7+yCCIO370Kybm+vzzz6FR4pGEKpUH7UWhrT6yq2Lt+HFPI6+hYyg64DVQY1Sl5Mxm87p16xYsWKDqr6fyCC5QseAdABvlYAesY+pZrVagfjw8PFTXf6TtxB385cuXoU+fe+45FAwDKIa9r8GYEgJ45Ao/+4sJsDTt64mYXQrra69USPV/irNGSb9W8mtvvfUWIKx6Nht8LUECkROvJq8huqzDNsbGxkJF4pGEb7/9FiIlk3XIZTabYTev3V5D3NarLn2oNqPBKUoIAdyxiedwMdcbb7whpeecFxcXg3map6cnWh7V4NKkrFFLjJLXSEpKAqKhefPm6enpUiE6Jkh5eTl8mff29lYy0Xv27IHOXbBggVSXg586oNa3ANbChsRms8Eu383NTXWnjV8mxFVRBAdNzP7++28x3l7YwaqubymwV1HlNqNbt26gEaBdoZh40KBBXl5eAQEBuBojryEx7JCrrKwMNvzNmzfHcvTtJXDkq74uOef4qh07dizWVQvjAetSBmBLZjAYRH6Zcw5G4lu3bgUTcsmYZcWKFTDFEhMToUxcAJ1S7lCPEO01aqF/lTiIMbo1xDlz5rRu3dpkMhmNRmlmofICBIH4sVCjWoS3jjLGlHwubuOhX0TF6tSpUxCpfAStFtsrlnz48GExo6jKQUYc8JAMvEDCI0keT09PUZ8tLS3FE6PiGWGxF1TD+JaUnqIkTk09KKTGeA3x84Io36RJkwAg9B56//59iOnRo4eYUgwj3RUdHS3G2wuLvejj4yOOMMgyatQo7E4fHx9U2qWumjBhgrIK8QshYwxVXzElfpCXejQwMBDrlchjznlFRQVa2dUgrwG3c0G99evXlxTCsrKyGTNmzJ49e968eUuWLEHvPqJh1QcffCC2TvzgyRjr06cPPpUm8Pfff4+PtARwaXCK14Dv7QaDQbUvlPXCaXwXFxdVNYlzjmY74PoUPkGDRt2sWTPt56GUVWuJQWpAVQ1WliDyGpI7VUhcWloK5iRGoxGHurIcMQY3Mb169RLj8d3WuXNnMR7DKPzDsNfApe3NN9/EGqUAKuqoe6CG5u3tLQ1+yLtu3TqYHV9//TWW5lh5cKoomNRubm4iuYYVid2nxV4jPz/f2aGImy2lvQbC9ddff6FI2gP4EhKbhoNHaa+hY+pdu3YNekd1zyqabEj7DPwmI6FaUVEBRmrPPPOMxpaiRY/YTMyro1GYVxnQ3V5lUdWJwVnDGFOlX1FLzMzMVK0I14pXXnkFE1ST11Cleq9evQojRNx1TJkyBSIlk2CUBPcAGu01sDmqSx/O4rZt22IVUgC1L/HthjDas9R97rnnoCFoZVmDS5MkocafuA7DPjgjIwM2Nv7+/kprGs65vgmCirdoUQsSwvchFxcXp97FOqCuEhDVBbAWNiSpqakwKpQumUFm/N4urYrYIrQiVJ6VxjRiwMGqjsA6tRSIhYth1Ai6d+8uxmNY+RLHmSW+wTEnSMvJAAAgAElEQVQ95xy8I/n4+GAkjmGn9hLI4CgdjUPJxcXF8HY2mUxYVy2MB6xLGcDD9eIXTVxDMjIy4LuOuHhyzsGnTFBQEBaIC6CUEhMolTvOuZLXqJ3+RalUA7o1RNXSIFL6fiyaQWlUi2qf13j77bdhGQErNrQNwWbabDbxGIGoEUvK8ltvvYW5IIAHw6EKjR99cUWVStM39aCQGuM1lH4roQIc5ehqAX0NTJ48udzOHzpHWbZsmdRa1Z/iqFXSB5xz0fsIYwzfjlJXqS5elacqcCgYDAbVnS6apEJK+IJRWFiIGRljkjMwaIhIiNTUORTRPgoPy6nihpHosgEErjxi/ev//w8NyeBsFb5ppAls7z2HFUkBfbzG999/D3K6uLi88sorf/31l+oXDKjLYrHAJ/2AgAA7w+2/t/ZCgaK1AppR+Pr6vvvuu4cPHxbdMUgN0f4Tboo6ceJEbGzs/v379+7dO2bMGKjd3k5XKhy31C1btpQe4U88vydZCEOCioqKmzdvnj9//tChQzExMfv27fvjjz9ABoltxHfblClTsHAx8FB5DeQ3VQ+hgBh40BcVddTQQkJCRFExjMuLSFfjiz80NBRT6ijqwYMHgCReBIOlYQD3hZIGjgmkgLNDUQuvoaXqe/fuXbhw4ejRozExMdHR0Xv27MFxJX5TtbcD1jf18PIzex5ncPxLO3g8jSk59D127Bj0yJIlSyRg7f2Ewzjol1RMpq9RYglSWHd7pXKq+ROHuoQqFFtSUgLb94YNG9qr6ObNm4CzSARUk9dQ5W1xqoq2k2gQrjw/BQLjmWdneQ3VpQ+p8HHjxtkDBAdkREQEpsG5j5sQfAQB3DLhbgTbW82lSapI+0/UCZcuXYrOWevXry+ZskOBuifIjRs34Oxnv379RNnMZjN4x4RbnMRHjsM6oJYK1LgA1sKGBJUoe18v8RyZ6vytvDTw4MGDMD3xbiypsdJPe6u67qVAKh9/4jdkkQ/Fp6oB5DUkn2iYGN5Tnp6eGKNvL9G3b18ATXlkDEtu0aIFpEHnX7UwHrB2ZcBsNoPNl7jsbN68mTEGexLQenx9fXEbX15eDlNMJH1w76dduVPlNWqnf5U4iDG6NUSxkIKCArja/OzZs3Fxcd999x30O/wXN1Qa1aLa5zVCQkJQZvH7tNhMPK4Fdw7iI0lZRi8NmADfd1CFva/ImB4C9ngNfVMPyqwxXgM/dEtC40saeY3ff/8dka0yoDQckMqHn+KoFY+BYGL06AE1ol2o1FWq72mRehBJWSwcbkwU2wKHO9LS0sRI0ToX86KDgBq01xCvQREtdbFSZSAhIUEUtcowasviBPb19VWW7DhGH68h3Y/LGHN1de3Zs+e8efPwGxfWe+/evSqbgwnELwYFBQXo+BYSGI3GoUOHrly5UjQJw4ocB7Kzs+fNmyddGYv1QsBZXkOyrRAFwF0+WjHA0z179owcORJNsiUBKs2R7PEaogMLsaKHymvgFTa///67WKkYxht88FAJami9e/cWU2JYB6+hvShUQhz0Dp6uEt+FKJ4y4OxQ1MJroIcgZXUXL16cMWOGeDOUcpxo4TX0TT3sHVUiGKQF/3nSDt5sNsMBlsDAQDyUxDkHT7Gurq64aimbLMWAGbPq7Qz6GiWVL/7U3V6xkOqHcdaIayAWm5mZCWOgQ4cOGCkFiouLIY1o/l1NXkP1DkWcYiKvgfeSqBqbcM6/+uorEM9ZXkN16UNVf9asWRIO+BMZK/EtjMq2vc9Z+NULrTywvaq8hvalCQVzNoCNnT9/PlpFffTRR6rlVGeCvPjii9BH4tEe5NzFt8CRI0eeV/sTXRrrgBpa5OwCWAsbEvQ6JyqrEv7g7kRaFTENOsWYNm0aRjoI2OM1dC8F9urC/lW6urSXBXkNewbdSl5D314Czm4wxlQPyIB4eO2ueNYejzbDeH4YG1R74HDOYR6J/PLUqVMrWwGfCsxmM9jz4m45Li4O5BR5IuQ1tCt3qrxG7fSvAzQ457o1xMoWZWdnf/zxx6L3UMBK+i/u5TSqRbXPa4i6oT0aEQ0lGGMeHh4IrKQsK5k+9JEEyDj42IxlOvCvoXvq1eQ9r9qHPhCH0piw91P1DKoICoTFUav0PMQ537Ztm1gFkixSV4nnhbAWPM7NGLP3hRydhEEtcBQ/MTFRrFT1WPLcuXMxTU3Za6BPdVVnrtguMYAeAVEYxwG0PhUnsGjDJhbuIKyb1wA3NqNHjxY9p4DM3bp1Ey8JRgfRjlsETyVNpry8fMOGDb179xbvkYGLbMaMGaOd3Th9+rS4oAQHB/fp02fYsGGjRo0aN24cbr+c5TWGDBliD1t0DpSQkABpbDYbuicEo5uuXbsOGjRoxIgRYWFheFmaPV7D3gR/qLwG2paLTrmkJqOzjG+++QYeoYbm1I6/ppSHlJQUGEuSKylRbKRKxXehmEAZdmooauE1VDVGzvnatWtxAXF1dW3fvv2AAQNeeuml0aNHjx8/Hg7VM8a08Br6pt6PP/4IANrz8VF5CyzMJuUOHneTuN+1Wq1w2lnUCZXwijEVFRUggKq9j75GieVL4eq0VyqqOj8dzxo0g1dlPaBeq9UKuNWvXx8lqTVeA89R2iPs0AGHs7yG6tK3YcMGaKwq6wHNRz8gohM1WO3d3d0RIimArqxwQauppUmqSPtP5DVAc4aGe3h4iEfosbTqTBD0OCZiDqtlw4YNxfPFeAsvCIP/RZ+aOqDWtwBC22NiYh7ehgRXCQfjDVhd5aoI4qEHInv6DPYgBOzxGrqXAql8/IkagYOmYWII6OA19O0l8GoVe6sK5xy/fuFeC4R8qONBAkT6uXLlStimIskLyyO6S4CP4ehXHpyzuLu7iwcTaorXqJ3+lRCQfurWEOPj49GTOi4yqgFxL6dRLap9XgO3dg50Q/FbO2MMV11JWVaqP7jtBHyqyWtUZ+o9AnsNfCFNmTIFb3axF3DAkooDVxy1oiUVptm4caM4FpFqqrKrOOeo8jHGmjZtimWKAXzxQy1gr4EvAIhUtaVHN/467DXQ/o0xJpqKiV5O7VktisJzziV7jenTp29w+IcWd+IEDg4Oloqt8md1eA0ovKioaNeuXREREeKFzK6urni2MCcnB/Bv06aNvWGG8eL9lKLwd+7c2bx585QpU8SP2P7+/iJDL6YXw8XFxbjnfu2115Tmx+hlzVlew8Eho169ekGr0Sp71apVENO0adO///5b+lqIpyfqFK8xc+ZMkFn8UidiW3lFHNproLriWEPjnOMXcu3nULRTJHimyZ6Zn+iaXnwXSu2y91PLUMQXjAP/Gqq8xvnz54HCc3NzW758ubjLAXnA5bNGXkPf1Pv555+h01V9RoIYwGYqd/B46Q/u3XGF1+gtD8qHk2uqnon1Ncpeb3LOq9NeB8U6+8jxrMGDilrsNcR+qTVeA+9cx628hMCSJUtgXOFCISWQfjre1uOXEi32GuJJFlC2DQaDPc9HeF4GvbfWHV6DMebj44NLrurNONWZIBaLBTwjNG/eHEyuioqKwKheOj2h3V7DKaj1LYDiyHlIGxJcJRzYa9hbFUE83ONpvGfQHq+heykQURLDaMHtYCqJ6Ss90+ngNfTtJfD6ageaCNprqL7NH9J4kACRfqIbeDiciz/xlis4lYP2buBJVDrC73gBFE0z8DuxGImkZ+30r4SA9FOfhlhaWioqWT4+PvPmzdu7d++ZM2fi4+OlQwBi72tUi2qf18DvUnADi4QS/NRor/GweY3qTL1HwGvgaSuNKrcq9FKkOGpfeukl6SkX7iSHnQ0aJOOuF+KVXYVmzJDA1dUV6SuxFrRxFcvJzc2Fn/D/008/FbNAOCwsDNNI9hpIAzPGlDfJWa1WkXsTeQ08A1953YnSk59SBs757du3UQzG2Jo1a1STKSM1TmBlRoipktfAQ1b2dqtiyZcvX0ZXRv7+/uAJpby8HLQU8eZXMZdTYZvNVukXA90KavkIjKfOROcdYqV4VstZXkO8plcsEH1fM8aysrLgEe77xZcQ5sKtc53iNdCaycGADA8Ph6G7Y8cOaI5jDe1h8xroJcuBQ8GOHTuCzOK7EPtCY8DBUNTNa6CzEnuOjXBt0WKvoW/qoTWjKkMNdqGAnqg/I2hwq7fRaAQJYXI1btxYvLEME9sLwEEtVQM0fY2yV1HlxZ/VbK+Dkp165HjWlJSUAOHVqFEje8Xih3rRzsUxr1FWVgZdKd1KiN5tVdk3XKxwXy6as9rjmvETQo3wGvv37wfJla9mxAc/VIo2pGidp7yMFjKiAqbRv4Z2yhUFczaAn22Cg4PhDC+CqXQvUs0Jgmt+bGysuFajg3PtwuuAWt8CaE+kGtyQ4JIunmkS68X3juqqyDnHswb21lWxNAe3d+teCqTy8SduwpVjCdNIAR28Bo4rp/YS8DZhjOEtIZIklcbgeA2EqjMgMX0NjgexWNUwuMoGFmz16tWMMXFDAsuXt7e3xWIpKSkB6lByKFtTvEbt9K8qCBipT0PESQdLPX4rhWJ3794N8fBf3MtpVItqn9fAnSdjzJ5fdvAgC40Sv1VjP8IjpbIswVVNe43qTL1HwGvk5eUBLtJWBoegjoA4ahs1aiQerobS0Bd65S2wfn5+WEWVXcU5x5ONILbqTYGjR4+Gp5X3aYuni0UTJnETBgLYbDawkYa8Eq8hnn8Rd4qQF21cIa/Ia0ycOBGF8fPzQ+dA2OohQ4b0799/2LBh48ePxy/hoiWCduJc4wTGqqUAuiNdtWqV9Ah+4n0xWngNyIJ9fejQIYgB9+z2/Pyr1us4sqioCEww3NzcqtSX0O/stm3bVIuFS7AYY87yGkajUdm5nHOr1QoXD9erVw9qxEln70oIPEhVp3gN3E/bu2230h0aWqagPuNYQxP3yg/DXoNzDvbAnp6eklEM9EV2djYeaxLfhapjo8pI1aGILxhn7TXQrRQyv6IAubm5yKVq4TXwZgSnpt6FCxdg+ZI+H6EkaPGnuoNHt/9bt24tLS2FvtDopwmrwOPZqh/Va3Y9qWZ7UeZqBqqcNXje9e7du6p1oR9+UfXCl5Gq7yq82UTaDOjgNdD7Mh5BkoQcPHgwjKsa4TXQea2qUQ9UjZYX6PqnksZCZRtvWJfkROc7iBjyOCKNXmV/qVqlSXVp/InrMC6YZWVlaLqlNEStzgRJS0uD5RHOIMMm28HpJwdN0AG1vgXQgQyc8xrZkOAqYY/GQu/Iqqsi5xzP+Dg43yc2xJ69hvjVxKmlQCxcDN+9excmpqh4iwmysrKuXr167949fJ/q4DVwDDu1l0CvHL/99psoEobxPhRx249PVQM1Mh5USxYj4VZEUBzg66l4gcWDBw/gVR4XF4cOZfEaXSinpniN2ulfse3KsD4Ncf78+ahJMcYk81U8MAhpxL2cRrWo9nkN8a5Mo9Go/GxQXl4O90lDo8RXeZXKMm47IW81eY3qTL1HwGuIn1bQSF4aiCkpKejBQXqk+lMctYwxvBkBEmdlZQEfCXCLm4Mqu4pznpubKx4rVZqZpKWliV4eRENBXMLABQuagYFguEEHwSRe49VXX4V4+C8uOhUVFYMGDRKfirwGGghAAtEVEOcc7wOTnoJjIYhs1qyZNOLPnDkTERGxYMGCH374QbyOVOMEVu01UcNU9REoioq8Rnl5+YULF3799VclewW14IELbDj6gEDLXkmegoKCEydOiBxBcXHxiRMnoqKipJT4E5msKmfv9OnTAVXV0o4cOQJPdfAajDFVlu3kyZNQJlrr4OGIZ599FpsgBsAQ0YHfUPHAs5gRsX0Y97zinfMtWrRQ7e7s7GwwxmnatCmqoPp2/DWoPDz//POA/7Fjx0SsILxs2TLscfFdqEwJMTqGIr5gnOU10KhH9danyMhIlFwjr4HDQ/vUKykpAVbO29tbWoUAkOHDh4MYqjt4s9lcv359xtioUaPQFEJcPO3hLMYjp6zK7+holFi4FK5me6XSdP+sctageepPP/2kWgsSuOjwUjRLFt8amB3OgTPGqs9r4OBUtYu8f/8+vqNrhNcQGQpVt1ycc1SSRefNqGwr5ybnvKysDC4m8PLywjlYg0sTIu9UAHVC5DU456mpqWDW5OHhcf78ebHAak4QmH0NGza8c+cOaF/O3h8PwuiAWscCWDsbEvyo7uHhIa69CDu6m1VdFTnnONc2bdqEuRwEHPAa+pYCB3UhZ6qqEaARLu6gdPAa+vYSOPJfe+01Vfl37NgBLyM8+Vg740FVGDESaCyDwZCbmwsvRPyECcngg9CSJUvAQ5nSOLGmeA2RCHt4/Su2XRnWpyEiMQ1dLN72eP/+fTgxhzsicY+hUS0SeY1Ro0ZJYjtQTk+dOoX1MsaQAccSxPaGh4djPH57gOzKXRmy4ZBAVKUdyAPl47YT8lapGUEue/eh6Jh62MxHw2vg6YPQ0FClulJSUgIn1jp27Kh66AOlx4DYi4wxk8mEN54UFBTgBxCAG807wfckRMJ/pWkNVCF5UlmxYgUqUdevX8ftC2PMy8tLLEQaJS+88AJefpOQkCBeFMwYk44VIEogW6dOneLj4ysqKjIyMoDygE+R8FQ8fVpaWioaXwQFBeGn7Fu3bqF1AGOsRYsWqDmgMgwFTps2Da81zcvLE3OJxI3GCYw9JQVwfio/yFitVrHjkNfAK3XFfhSLRe+Y6MYpMTERPgEFBASo2gqCu0E/Pz90vAJ3HXl6eqp63CgvLwf3yKLtjyiDGJ43bx5AKm4KIUFWVlaLFi28vb0hgT2DDrE0zjl+KmSMDR8+HIciJkOKCj3Pmc1m0P/9/Pxwu4zply5d6unpCQkkg44q3224nVL6L4CP3t7e3lhRpS2Js+nx0qnNmzeL5UAYzaE/++wzfFqlhoazUuyRGlQecIiOHj0apYJAcnKyn58fXJnJGNPCa+gYingpoLgsgACOv4TjZQfKw0pHjx51d3fHsSoq/HjFoLSCcc51TD3OOXb6ypUrJQDhbQcA2tvBwwUolX4NQUGy94VTKln8+f7778OUBA/Q4iPdjeKcHz16dM2/f9JGRF97S0pKoDSRRwBRrVYrPFqzZo1yfZCaAz+rnDV4n0L79u3xrYFFZWRkgEJuNBrxHcc5X7p0KSD53nvvYWII3L17F80Vq89rnD9/Hipq2rSp0skfdihjrKZ4DZzm4sYR24icmmTui8q2yWRS7vzQHanoarQGlybOeUZGBowNPLiHMtsL4BZTXDA55xjfqlUrsdP1zXqsHS9QCA0NhT2VEihM7CCgA2odCyAOg4e6IalcdkaOHAkjfPny5VKrb926hV7V7K2KuC86c+aMlF31p4NVXd9SoFoLROIq8fLLL0vJ0tLSgD6rV68eEjo6eA3xteLUXgJ8VHt4eIh39ICQFosFnWvExMRAZK2NBwko6WdBQQFwgosXLwYfopKLEFDahw8fDoZsojUHFFXl3g8PUIu7BYxE/xriW+Ch9q+EgPhTn4Yo3eSKm8z09HQ8JQFTkjGGn1E55xrVItELQb169STXew54BPSVY+/dKrZXej3hIfpKhwP16tU7ePAgAhUTE4PLCGOsY8eOonruQB4oQR+vgVc3SgczS0pKnJ162JBHw2tYLBbUk8ePHy+qjnFxcfhqWbBgAQrqOCD2Yvfu3Q0Gg4uLS79+/YYOHSr2E3AH4mf5KrsK6jWbzSJ5Aff6vvTSS7169QJtEAf3xo0bRVHLy8uRioY0vr6+Q4cO7dOnj4uLi8FgwMbCMBLzZmdni2YmkB01ov79+0+YMAHrla7I2rNnDz5ijLm7uz/33HMDBw4UDU9cXV2lgw+ikRJjLCAgYOLEiaNGjRKvBZWoAY0TWGyXGC4rK0Orp7lz56Kh19WrV0eMGGE0GtF4GHmNe/fuwQba09Pz22+/RQ+mlZ5QCgsL0TmcpGKBqgMDQDQATk9PR3uKF154AWVDXjMoKOjvv/8W+bWMjAw0rhYPTmNeKYAWGQ0aNDhx4gQ8LSsr27ZtW7NmzUwmEx7GkRYgqRz8ibxGmzZtXF1dp0+fjuCUlZWBa+vK7bu/v7+4v0cDn+nTpyO1ce3aNdjuLFq0qEOHDowxFxcX8fNjle82XPpDQ0Pz8vLKysrQo4cqr+Fs+qSkJPh6bzQaN2/ejJaohYWFSBgFBQWJu+oqNbSHzWvk5eUh5xgeHp6SklJRUVFYWPjzzz+bTKa2bduisY8WXkPHULx48SJM/+Dg4JSUFKvVeuvWLRg/jnkN/Ojds2dPfMvm5uYuWrQIaIJZs2ZBydLWEPxRubi4xMTEWK3We/fu4ZRxdupVni1Cy1h3d/evvvoqOzubc56ZmRkZGenm5jZ16lTgbe3t4NFmG0QVTwHgJHIcQFdnqh/VRadLXbp00bKeQHV4XYukH+prLzpo9PT0lJqDU4AxhlNGSiP9xCwOaCAkTIcOHSrS93FxcahDSicK0ebOy8tr+/bt8PKtqKg4ePBgu3btOnXqBI7Zqs9rcM7xEqjnnnsOlZBK83Xwc4k70ZriNcxmM/o2+/DDD3GxLS8v37p1K7w03dzc8DJFABz2A97e3kFBQb17905KSsKO2LVrF75q4+LiML5meQ1c0iXCBatTBpC/kMYt5xz3DJLGomPWY70WiwUJL8aYaAuNabQEdECtYwGsnQ2JuCp6eHisW7cOFlibzRYTE/PMM88EBQXB2Vh7qyLMUKPRWOXJWcTWwaquYynAYpWB4uJitJQJDw+HV0+lmhAdHY1TbOHChZhRH6+hYy/BOcc7B1q1anX8+HGU4ebNm8g0iR8wam08oCT2AqAWwVFu8c5XSA8fP3x9fWE7vXPnTqkcXCjs2eoihVElr1E7/SvJL/7UpyGmpKSgwgV7iWeeeaZr165AGHXr1m3GjBkQDyrhRx99BKcgNapFeGMAFOLj49O7d++WLVvCW9KBclpQUKAUrGfPnkuWLIFWi+2V1IorV65Aj6PkXbp0eemll2D/j5FGoxGNA6BMB/JAAn28Bt7LsWDBgpKSkqKiIiQ4nJ162OOPhtfgnN+8eRN3QnB/aqdOnURnreHh4WgvgOLaC4i9OHPmTPwmjJ0EAX9/f+l4S5VdhTXevXsXfVhKxcJPd3d35Xezyqukz58/jx85pYxz585duHAhRrZq1Qqrg4BksoEpTSZTWloaLiuVx9eVF+Ju2rQJph/mEgNeXl7iTe9QXUlJycsvvywmk8JBQUGitZV2YlJql/gTj40A/xIQEABmLAaD4eeff0bbZtSW4aQo3L8NeniTJk3at28fFBSEU91kMkl+nkpKSvAANlj0hISENG3aFD0d9OjRQ/wEzTkXP/G5u7sHBAS0b99eNITp06cPEjFii5Rh/B7LGAsMDGzXrh0QTD4+PnFxcbdv30Yb6a5du7766qvKEsQY5DVGjBgB+zA3N7dOnTr17NkTDA4ZY66urrt37xZzxcXF4XgwGo0dO3ZEO7qXX37ZZrOh0uXn59evXz844VLlu+3q1asStYcGmaq8hrPpK40Yd+zYgfg0aNCgZ8+enTt3xpjmzZtLLuWq1NAeNq/BOf/nn39EWBB5kPaVV16BmaWF19AxFC0WC24ToSKTyQSDwTGvkZeXFxgYCFnc3NyeeeaZFi1agPDt27e/d+8eHp3z8PDo3bs3KrG4zcUVA23vdUw98ZobFAYC/fv3z8/Pd8xriF5XjEYjKpzidHAcRk8i9i610dconGJK/RDvmNDe3trnNYqKivDAmsFgaNeu3bPPPosukCpPIEdERCjNQ5DFg+ulg4KCQHv38/NLTEyEDwbt2rUTe8TxKEU9X3JZlZycLF6nbTKZmjVrBi+FF154AYeu6mtarB3CVS59nPMrV67gfPHy8uratWv37t1xEfbw8Ni6datUMhj6BQQExMbGwiLWqlWrXr164Z1ZjDHpVCa2VzxCq2+V45xju2qE1zCbzZ07d4ZBK3pk1DdBECvRAhwciOIj7QEdUOtbAP/6669a2JBwzpFWBjOWoKAgUFHc3d1jYmJgKuFSLwKVnp4OfSQOITGBatjBqq5vKVCtBSIvXbokbq58fX3FF+iECRNEflYfr6FjLwGyiQpFYGBgr1692rRpA3gyxgYMGICaGKSvtfHgAE/OOX7iqry/TPkFrrCwEBFWPdyEC0X1eQ3Oee30rz1AdGuIqIBgd0MgMDDw6tWrCBE+hQ8hGnmNCxcuYBdgCfgpwrFyig65xYxoUSK2V+I1OOdnzpzBzb+YHcNNmzYViXVA1bE8sOnFEhhjGo3skLzAvOIL2tmpB6I+Ml6Dc15UVDR//nzxdQ4N69evn1LltjdeIV7sxenTp3PO161bBw6BoUxXV9dRo0alp6dL5VTZVWL68vLyjRs3duvWDZVhKLxhw4bTp0/Hsx5iFghfunRJvNyEMdamTRs45Sh2apMmTZR5f/75ZxEiV1fXCRMmgIWL2OUTJ05U5r18+fLEiRMlVqV+/fpTp04Vv8mLGSsqKrZv396jRw+pjSaT6eOPP5aW7xrhNTjn3333nfJIzq5duzjn+E1eEjg+Pj4sLExpz9KoUaOIiAhVd1Y2m23Lli2S3Q30xeLFi9GEQUTjzz//BMsanHIQaNOmzYoVK/CLtJhFNVxcXDxz5kzc+gCDM3bsWGTZ1q9fj900cOBA1UIwEnkNuGBl48aNsIFDIbt27XrkyBFMj4EDBw7g1w9I3KpVq1WrVgE9fPfuXRylrq6uBw4cEDfB9t5tnPO1a9eKHTFjxgyoUZXX0JEeLP/HjBkDhhvYzEaNGr377ruSdSXnXN+Ov2aVh8rLXM+dOxcaGooyN27ceM6cOXBEE+19lCsSdpYUcHYoHj9+HDUuxhhypo41Rs55Wloa6q4AtZ+f3+zZs2HuV1RUvPHGG0ggfv755yDnnTt3RNrX3d39+vXr2AQdUw+s3J999llYiAwGQ9u2bf2c1q0AACAASURBVL/66isgu+FzrvJIMNaI9vz2zkVjSnuBF198Ecx3JadImF5HoxzwGjraq4XXMNi/TxQbAoEqZw0ks1gs3377rbTguLi49OnTB1ZsqVjOudlsnjVrFk4EIKOHDRsGpgpgsSh1peNRilNV4jU459euXRs2bBiOT8ZY/fr133///dLS0kOHDsF4Vh5uUsqscemrNFjIycmZM2eOyKeAzjl27FjpexfUAhtK+HwaFxeHduwgW7NmzdauXStxQ9heUSmtsr9U2VuxXeh9SbX5YqQDew3OeXJyMtD0np6e4gErHRMEK01NTQVAWrRoIaGBaaoM6IBa9wJYOxsSm822atUq0ZiFMdazZ0+wA33uuefAtlyJzNdffw14/vzzz8qn9mIcr+o6lgJ7FUF8ZmbmzJkz0WQJBG7ZsuW6deukMaCb13B2L4EC79mzp1evXtKuuHXr1t98843q99faGQ8onmrg3LlzgKF0SgITo+vfIUOGYCQGUGm3t/fDD6tV2mtAmbXTvyi/GNCtIdpsti+//FK0+vfw8JgyZQp+Z/3iiy9wY+/u7g7crkZeA26lkN4dWuw1OOd5eXnixSXwzQD9EIntVfIanPP79+9//vnnoo6M6+38+fOVip4Wpw367DUqzXtFsxeDwbBlyxax75ydepxzu7yGWO7DDl+7du3QoUPR0dHx8fFoUe9UpWIvTps2DfLabLbLly/v37//6NGj+oq1J0N2dvbJkyejoqIOHTqUnJwsnkGylwVMVGJjYw8ePIgmsg4Si48qKiouXry4b9++uLg48diFmMZBuKysLCEh4cCBAzExMYmJiaqrsDJ7Tk7OyZMn9+7dGxMTc+3aNY1tVJajMcZqtV64cCE6OvrQoUMSheGghNLS0kuXLh04cGD37t2xsbEpKSla5MzMzDx+/HhUVNTp06fRPt9BLZUuWs6ePRsdHb1nz54jR45IZh0OMkqPCgsLjx07FhUVde7cOSWXabVaMzIytHxblniNyuvcKyoqrly5EhsbGxMTUyV6V65c2b9/P4xDabsAt7vdunVLPKsltUL1Z3FxcXx8/NmzZzWC42x6qNRsNp87dy46Ojo2Nvby5cta+lpV2tqMtFqtd+/elex60POlqrcXB+I5NRTLy8uTk5NPnTqVmprqLFZ37typvM94//79ly5dUvJ3JSUlN2/elJwsVFRU3Lx5My4u7vLly8os0Chnp16lrUppaWlmZqZUIOhRyluiELoVK1bAexpPfuEjjQH0jzB//nzHWXQ0ykGB+tqrWmBoaCjeiKSaoDqR6enpR44ciYqKOnnypJZhbDabT506FRUVdeLECSUXWR1JlHnv3bt39OjRffv2xcfHS6NUmbhGYmw2W2JiYkxMTHR09Pnz552qNCMj4+jRo9HR0RcuXHB2nuoW3tvbW+mpTndpjjPqmCCoki1atMhx4U491Q61jgUQFqta2JDYbDbYLB05cgRPCzrAoaKiAo7kVH4JUP1+4zhvlau6s0uBg+o45xaLJT4+fv/+/QcOHHDwsdBxIVU+1beXyMnJiYuL27t379GjR8Xj8/aqq50Nqr3a62Z87fSv1PZqaohlZWVnzpyJioo6c+aMcuteWlp69erVlJQUaZciyWDvZ2lp6ZkzZ2JjY8+dO6f6RdZeRnCWdPDgwePHjycnJ2s/XyYWmJ6efvTo0b179x4/flzLYiLmrcFwTk7OqVOn4uPjxRPlYvlOTb06wWuI0usLi6NWlZ3SVyzlIgTqIALIayg/V9ZBaUkkJQJAk/v6+taaGqOU4fGNSUtLA85i5MiRqq0oKSmBwxHdunVTTaAl0mazwUnJJk2aOKsMaClfe5oq22uvqKCgIKU/ZnuJKf7pQeD69euMMWcvP65NfODQqKenp7Mb/doU8nGpa9euXbBg2vMW9Lg0hOQkBPQhQBqiPtwe01zEazymHUdiP70IEK9Rx/v+7NmzEyZMqFSq586dqxT16NGjsMscMWKE8inFwPXPI0eOrPQrKfmIAXAWLFgAACrvBYAEeO28vRsKNIK8e/fu2tEHfv311+q0V7U5MMzsmRCrZqHIpwQBmEHg4q4ONjk2NhYM/pV3NNRBaeu4SFartWPHjoyxZs2a4X0idVxmEo8QqFkEiNeoWTzreGnEa9TxDiLxCAEZAeI1ZETq2O9bt26BR0Cj0QhuSlDA9PR0dDmmqrRjyqc5gBc9tmrVSrx3g3O+f/9+OITi5eWlepzhxx9/BKWoR48e1TeHAZ+XRqOxyuNd1emv6rTXXr0DBw50d3fX7sDFXjkU/4QhkJ2d3aBBg/bt2zt72LB2cDh16hRckebj42PPtU3tSPJk1PLNN98AOVtNkvfJQINa8XQiQLzGU9XvxGs8Vd1NjX0SECBeo+734tKlS2E3Cf7S58yZM3fu3HHjxqH3xClTptT9VjwqCSsqKtAnloeHR1hY2H/+858PP/zw+eefR1Sl21sjIiLefvttdITm5+eHF7JUpxXZ2dngpX/AgAHVZ0nsSaKjvfaKgnibzZaVlaXDGZPjYunpE4BASUlJVlaW5PHnkbfru+++i4iIEH2+kh5e/U65cuUKuPSm1031waQSHl8EiNd4fPtOh+TEa+gAjbIQAo8SAeI1HiX6mutes2YN3viI2ji4rZ43b17d/FiquXEPPaHZbH777bdVb0Fr1qyZUufB64QYYwEBAadPn64pEY8dOwbWN9LtmzVVPpTjbHtrtnYqjRB4tAiEhobiIunp6blx48ZHK88TUHtRURGcQOnatSudQHkCOpSaoBsB4jV0Q/c4ZnxCeI2FCxdO+b+/9evXP449QTITAhoRKCgogMFuz7+AxnIo2cNG4MGDB3/88cfcuXNnzJjx+uuvf/TRR9u2baOv6Nphv3379oYNG957771p06a99dZb8+fPj4qKUr3R6fPPP582bVpERMSmTZuKi4u1V6El5Y4dO8LDw6dNm/awj3Vob68WsSkNIfC4IPDLL7+8/vrrM2fOXL58OR0/qZFe2759e3h4+PTp07Vc+lYjNVIhhEDdRIA0xLrZLw9JqieE13hI6FCxhAAhQAgQAoQAIUAIEAKEACFACBAChAAhUJcRIF6jLvcOyUYIEAKEACFACBAChAAhQAgQAoQAIUAIEAKOECBewxE69IwQIAQIAUKAECAECAFCgBAgBAgBQoAQIATqMgLEa9Tl3iHZCAFCgBAgBAgBQoAQIAQIAUKAECAECAFCwBECxGs4QoeeEQKEACFACBAChAAhQAgQAoQAIUAIEAKEQF1GgHiNutw7JBshQAgQAoQAIUAIEAKEACFACBAChAAhQAg4QoB4DUfo0DNCgBAgBAgBQoAQIAQIAUKAECAECAFCgBCoywgQr1GXe4dkIwQIAUKAECAECAFCgBAgBAgBQoAQIAQIAUcIEK/hCB16RggQAoQAIUAIEAKEACFACBAChAAhQAgQAnUZAeI16nLvkGyEACFACBAChAAhQAgQAoQAIUAIEAKEACHgCAHiNRyhQ88IAUKAECAECAFCgBAgBAgBQoAQIAQIAUKgLiNAvEZd7h2SjRAgBAgBQoAQIAQIAUKAECAECAFCgBAgBBwhQLyGI3ToGSFACBAChAAhQAgQAoQAIUAIEAKEACFACNRlBIjXqMu9Q7IRAoQAIUAIEAKEACFACBAChAAhQAgQAoSAIwSI13CEDj0jBAgBQoAQIAQIAUKAECAECAFCgBAgBAiBuowA8Rp1uXdINkKAECAECAFCgBAgBAgBQoAQIAQIAUKAEHCEAPEajtChZ4QAIUAIEAKEACFACBAChAAhQAgQAoQAIVCXEXjseY0bN24k/PtXVlZWl4HWIltKSgq0paKiQkt6SkMIEAKEACFACBAChAAhQAgQAoQAIUAIPOUIPPa8xvjx49m/f6mpqY97X/bu3RvaUlJS8ri3heQnBAgBQoAQIAQIAUKAECAECAFCgBAgBGoBAeI1agFkrVUQr6EVKUpHCBAChAAhQAgQAoQAIUAIEAKEACFACPyLAPEadWggEK9RhzqjVkTZuXNnWFjY9u3ba6U2qoQQIAQIAUKAECAECAFCgBAgBAiBJxAB4jXqUKcSr1GHOqNWRJk6dSpjLDIyslZqo0oIAUKAECAECAFCgBAgBAgBQoAQeAIRIF6jDnUq8Rp1qDNqRZQ2bdoQr1ErSFMlhAAhQAgQAoQAIUAIEAKEACHwxCKgwmvk5uampqZeu3YtNzdXY7uzsrIuXrx4+fLlnJwcjVkgWXFx8dWrVxMSEu7evVtlxgcPHiQnJycmJubl5WHiavoNzc/PT05OTkhIuHXrlsZbSKxWa1paWnx8/MWLF+/du4eSOA5YrdabN2/Gx8dfvXrVYrGoJkZeo7S0FBJYLBbIlZ6erlE81ZIh0mazZWRkJCQkZGVlKUsrLS1NTU1NSEjQ2Ik6oHN2aDmbXkfXVFRUZGdnp6amms1mB9ApH5nN5tTU1Pj4+PT0dH138eTm5oKb2CrtNXJzc5OSkhISEjIyMmw2m1IYiiEECAFCgBAgBAgBQoAQIAQIAULgqUXg//EaKSkpr7/+uslkAl0L/jdp0mTGjBlXrlxRBSg3N/ejjz4KCgoSs7Rr127JkiVKLTE7O9v0798XX3zBOT9//vzIkSNdXV0xb7t27ew5Grh69eqoUaPc3d0xcc+ePf/++2/OuT5ew2KxfP/99926dTMYDFimyWR6++23b9++rdpYzvmhQ4dCQ0O9vLwwC2MsODg4MjJS2V4sJCMjY8aMGQ0aNMBcXl5eEyZMSE5OxjQQQF7DZrPl5+e/88479erVw1z+/v6RkZHl5eVSLns/d+7cCYBHR0fbbLYVK1YEBARgaW3btv3zzz8h7/3799944w2j0YhPe/fufe7cOdWSdUDn7NByNr2+rnnw4MHcuXObN2+Ore7Zs+eOHTs453FxcQDdDz/8oAQhOjp6yJAhHh4emNHb2zssLOzs2bPKxKoxx44dM5lMjRo1ghK8vb2hujlz5ojpHzx4sGjRovbt22NFjDE/P7+JEycmJCSIKSlMCBAChAAhQAgQAoQAIUAIEAKEwFOLwP/yGnv37vX09ET1ycXFRWQcvLy8du/eLWF0/vz5Jk2aQBYXF5eAgAD8yRjr0KGDRBAUFRVB4pkzZ8bGxgI7YDAY3NzcsF7G2I8//ihVdO7cOR8fH6yoefPmqBB+/fXXEyZMgEfa73nNyclBBoEx1rhx44CAAGyvr6/vkSNHJBk4519++SXKaTAYfH19XVxcMCYkJCQ/P1+Z6/Dhwyg8JoaAp6cnaNGYC6Ryd3fPyspq164dJBP1Z8bY5MmTMb3jwO7du6GEbdu2RUREKEtzcXGJiorKycmBugwGg8gc+fj43LhxQ6pCB3TODi1n0+vrmry8vJCQEMCEMebu7o7j/7PPPvv777/h0dq1a0UErFbrm2++ibnq1asXFBSEfJDBYFi5cqWY3l44JiYGCxED4eHhmCUtLQ1OqUCCRo0aBQYGYge5uLhIsmFGChAChAAhQAgQAoQAIUAIEAKEACHwVCHwX17jwYMHDRs2ZIx5enp+++23d+7csdlsVqv1xo0bixYtAr26fv364umPrKwsIBcMBsO8efPwxEpGRsYbb7wBmliPHj2sViuiaTabIX748OH+/v7du3ePiYkBA/6MjIx33nkHnvr7+4tW/RaLpXXr1vDo9ddfx3MfKSkpY8eOdXd379y5MzzVyGvYbLaBAwdClrCwsGvXroGEhYWFK1euhMbWq1cvIyMDJQdzAMji4+Ozffv24uJiznlZWdmpU6f69OkDj2bMmCFm4ZzfvHkTSA2j0bhy5co7d+6Ul5ffvHlz4cKFUJGXl1dSUhLmAl7Dz89vxIgR/v7+mzZtKigo4Jzfv39/9erVSHDEx8djFgeBqKgoEGzixIkuLi6RkZHZ2dmc87t376Jy3qdPn0mTJvn7+2/btq2kpIRznpSUNGDAAMg4e/ZssXwd0Dk7tJxNr7trJk+eDG0MCQk5evRoRUWF1WqNi4vr1asXY2zKlCnwdMOGDSIC8+bNg/hOnTodPnwYzvJYLJadO3eiLcw///wjZlENwxmWH374AXFO/fcPh3dJSUmHDh3g6aRJk65fvw7lmM3mDRs2gBWPwWA4ePCgavkUSQgQAoQAIUAIEAKEACFACBAChMDTg8B/eY1//vkHNKiFCxcqW75161Z4um7dOnz66quvQqTqB2qkNjZu3IhZSkpKIAtjLCQkpPIUAD6CQPfu3SHBsWPH8NEvv/wCkUOHDpVcQthstqFDh2KZGnmNTZs2QZawsDCpQM45Nnbq1KkoA+d83LhxkEsEARIUFhbCGRMPDw/pNMrEiRMhl2SXwTn/5ptv4NGkSZOwIrQi8fb2FvkOSPDRRx9BFtVuwkIwEB0dDekZY0uWLMF4zrnVasXTQy4uLidPnhSfpqenQ8YOHTqI8Tqgc3ZoOZteX9ekpaXB+aOGDRsilQAtLS4u7tmzJ+Im8hopKSlg1BMcHHz//n0RmUoxrl27BoYbQUFBGl1gYGOV/jWWL18OMowfP16qiHO+c+dOeNqtWzflU4ohBAgBQoAQIAQIAUKAECAECAFC4KlC4L+8xtq1a0FN+u2335SNt1qtp06dyszMRBYgNzcXjPZbt26tqsJlZWXB6ZK+fftigSKvsX//fozHwOeffw5iiEdRxowZA5F79+7FlBg4fvw4PGWMaeQ1evTowRhzcXFRHrKAYsEAxMvLC2wlIPLPP/9cunTpe++9p+pTE8/CnD59GmXLycmBUwOdO3fGSAyYzWaj0VivXr2QkBAEFnmNzz77DFNi4PDhw9BYjUdRkNdo2LChaAIDBSIzFRoailVgoGXLlnA6A2M45zqgc3ZoOZuec66ja77++mtA8uOPPxYbCOG4uDgcVCKv8eGHH0L8zz//rMzFOcfDPgcOHFBNIEU64DXwFBLaE0l5u3btCsJcvHhRekQ/CQFCgBAgBAgBQoAQIAQIAUKAEHiqEPgvr7Fr1y7QkYYMGYI3cThAAb0PfPjhh/aS9e3bF+gDOLLBOUdew9vbWzyfgiWsW7cOxPj6668xEsz7DQaD0r6Dc26z2erXrw+5tPAa9+/fh8Q9evTAKqTAp59+Cmmio6OlR/Z+vvvuu5Bl3759mAZRev/99zFSDChBQF7j/PnzYkoIX716FWoZOXKk8qkyBnmNcePGKZ9+8sknUNq3336rfNq/f394CodT4CwMxDgFnbNDy9n0SsmlGNWumTRpErQlJiZGSg8/0VWnyGt06dIFhrRIeInZDxw4AMV+8sknYry9sD1eIysrC8pp27atvbzYfaqeTe3lonhCgBAgBAgBQoAQIAQIAUKAECAEnjwE/strlJaW4qmEli1bLl68+OLFi2hEoGzz/PnzQe9av359uZ0/PIqCJgzIa4SEhCjL5Jz/+uuvUOzSpUshQXFxMcQ0bdpUNQvnHBwiaLTXOHToEBQ4efJkO4KXoxjLli1TrbSwsDApKenEiROxsbH79+/fu3cvGpXs2bMHs0RGRkJd2jVP5DVUXZDeunULChw2bBjW4iCAvMYHH3ygTIbiwbUyUoIhQ4ZAXUgn6YPO2aHlbHpJbI1dgydNJC8qWNpbb70FzUdew2KxwCGUgIAAeyMnIyMDcg0fPhyLchCwx2sgP6JKSEGBW7ZsgboiIiIcVEGPCAFCgBAgBAgBQoAQIAQIAUKAEHjiEfgvr8E5v3DhAjo+BH2pcePGEydO3LJli1LHnjVrFqTR8h8vUkFeo3fv3qqwIqGAvMbt27ehik6dOqlmqZT8pZdegjRa7DV+//13LTJDGokOyM7OnjdvXtu2bcWrYaXSRF4DPaH+8ccf9oSX4pHXQCsJMYFuXkP1VAvyGqpmKUpeQzd0Tg0tZ4ci4ONs16AnWskfCqKNd98gr3Hv3j2prx387N69OxblIGCP19i+fTsUPmvWLHvZ9+7dC2k0HkqyVw7FEwKEACFACBAChAAhQAgQAoQAIfC4I/C/vAYcNIiMjGzVqpWksBmNxg8++EDUAMPDw6U0Dn5u3boVMNLBa6SkpEDJDhRFtJXQwmts3rzZgajSozfeeAN79/Tp03BlDKQJDg7u06fPsGHDRo0aNW7cOPSGIPIaiNKuXbuwHMeBusxr6IbOqaEF+Ny/f1/jUOSc6+ia5s2bQz+qeofhnK9evRoSIK9x48YNaXg4+NmmTRvHHQ1P7fEaGzZsgMLtnWDinMfGxkKasLAwLXVRGkKAECAECAFCgBAgBAgBQoAQIASeVAT+H6+BLbx8+fKqVatGjBjh7e2Nylvv3r3RiAD9I65evTq1qr+ioiIoWQevgYb9Duw1XnzxRRBSC69R6WMSEk+ZMqUqwVPxpozi4mLUhF977TXl4QX0KCnyGmjV8vvvvyO2jgN1mdfQB53U3iqHlrPp9XUNeEVljNnzJrN48WIYJ8hr5OTkQEybNm2qHDk3b96UGqL60x6vsW3bNqhLi73GlClTVAunSEKAECAECAFCgBAgBAgBQoAQIASeEgRUeA1sudls3rx5s8lkAi1rxYoV8AiPMKxfvx4TVxnQwWvk5+dD1c2bN7dXPnhz1OhfA68UEW9XtVcyxqMvA3t+E15//XWQU+Q1PvvsM4hcvXo1FuU4UJd5DX3Q2WuvvaHlbHp9XYNjJjMzU7VGPEOEvEZ5eTn412jWrJlqFh2R9niN/fv3w8hRveQVKkLzmdmzZ+uomrIQAoQAIUAIEAKEACFACBAChAAh8MQg4IjXgEbGx8eDlvXcc89BDN704ZTPQh28Bue8QYMGjDGDwSAehEH0y8rKjEYjiKfFXiMvLw8SOzAAwcIxMHv2bMi1bds2jBQD3bp1gwQir/Hbb79B5JtvvikmxnBqaur169fz8vLQRWtd5jX0QYeNVQ0oh5ZqMoxUptfXNXh26dixY1i4GOjUqRP0HfIanHNkQ1Tv+hWzawzb4zXwPpT27dvbK+rjjz8GCcVLke0lpnhCgBAgBAgBQoAQIAQIAUKAECAEnmAE/str3Lt3Lzo6+ty5c/ba6evryxjr2rUrJMjOznZ3d2eMBQYGKi8rhTRnzpzJysoSC9THazz//POgvx04cEAsDcJRUVHwVKO9Bue8a9eukOXq1avKAjnnKSkpycnJ4qPp06dDlqioKDEewkeOHEEZRF7j9u3bLi4uDlCCsy0uLi5450hd5jX0Qefs0HI2vb6uQYOjhQsXKjv01KlT2KEir4FXxq5bt06Zi3NeUFBw4sQJezNCmcUer8E5R48taWlpyoyc85CQEBDyypUrqgkokhAgBAgBQoAQIAQIAUKAECAECIGnBIH/sVgsfn5+jLEuXbqUlZUpm52eng4alOih8OWXX4bIr776Spnlxo0bPj4+BoNh+vTp+FQfr/H1119DRSNGjMCiIGCxWJAI0M5rrFmzBgoMDQ1Vuo0sKSmBS0A7duyIzhfmzZsHWfCiFpQkKyurRYsW6IhEMugYNmwYZFyzZg1mgcAff/wBj1544QV8hM1BVyb4iHP+aO9D4Zw7C52zQ8vZ9JxzfV1z9uxZAD8wMLCwsFAE+cGDBz169ABCijEm8hqJiYlwFU5AQEBeXp6YC8Lgd8bPz+/SpUvKp8oYZOXmzJkjPV2+fDlIGB4eLj2qZD3QYKp///7i05KSkjX//mm/WljMTmFCgBAgBAgBQoAQIAQIAUKAECAEHkcE/muvgTbtgwYNiouLw2MRnPNz586h+f2OHTuwhWlpaT4+PowxFxeXyMhIVA7Ly8v/+OMP9LJ59OhRzKKP18jLy6tfvz7oeBEREbm5uVBgUlLS8OHDXV1dgYbQzmtYLBY8NjJ+/HjRxWNcXFy/fv2grgULFqDkaJHRoEGDEydOQHxZWdm2bduaNWtmMpnWrl2rqoVevHgRDFvc3d2XL19eUFDAOX/w4MHatWsBPYPBcOTIEayojvMaOqBzdmg5m1531wwcOBC6rHfv3nFxcVartbS09NChQz169PD09MTjLSKvwTlHvxtdunQ5efIkdlx6ejpajohEFSZQDVy8eBFkCA4OTklJsVqtt27dgpRms/mZZ56Bpx9++KE4v7Zu3VqvXj3GmJub29mzZ8WS0bmpp6enGE9hQoAQIAQIAUKAECAECAFCgBAgBJ5gBP7La5jN5v79+4MSxRgzGo0tW7Zs27YtEgqMsXfeeUdCISYmBvQrxpiHh0f79u3btm2L3i5cXV0lIwV9vAbnfPv27fCdnDHm6uoaGBiIV65GRkaiCqrdIP/mzZto588Ya9myZadOncCRB4AQHh4uma6MGDEC8QkMDGzXrh201MfHJy4u7vbt2x4eHpCga9eur776KmK1bds2Nzc3eGQwGMA0Bn9+8803mJJzXsd5Dc65s9A5O7ScTc8519c1qamp6BAX6Dmw0fDw8Pj1119/+OEH6COJ1ygpKUHfHIwxk8kUEhLStGlTHJ89evS4c+eO2KcOwhaLBW9mgepMJhOmv3LlSmBgIMR7eXl17dq1e/fuOCU9PDzwBmXMQrwGQkEBQoAQIAQIAUKAECAECAFCgBB4ehD4X7+hZWVly5Yta926NehR+L/SoKBv376ipYYITXp6enh4OLIbkMvDw2P8+PFo14DpdfManPPo6Gh05Qi1BAcHg8fE+fPnQ0x8fDzWVWWgqKho/vz5aFeC7e3Xr98vv/yizF5cXDxz5kwwvoDE7u7uY8eORU8c69evx9MoAwcOFEuIj48fPnw4shuQvV+/focOHRKTPRa8BufcWeicHVrOptfdNZmZmTNnzkSOzGg0vvzyy+BlBg1wfvrpJ6mPbDbbli1b0L0Fjpw2bdosXrxY1butVIL48/jx40heMMZatWolPs3JyZkzZw5KCHV5eXmNHTv24sWLYkoIE6+hxIRiCAFCgBAgBAgBQoAQIAQIAULgH1Ku/wAAAudJREFUiUfgf3kNbGdmZuaxY8f27t27b9++U6dOwdEJfKoasFgsCQkJBw4ciI2NTUpKQi+YqomrE3n9+vXY2NiYmJjk5GTxsEx1yrx27dqhQ4eio6Pj4+OrvOeisLDw2LFjUVFR586dy8/Pl+q1Wq0ZGRl4ZEB6WlBQcOrUqaioqMOHD9+9e1d6+jj+dAo6zrmzQ8up9NXpmry8PKnrly1bBiSCPUYPmnP8+PGoqKjTp0/j+REd/VheXp6cnHzq1KnU1FSlw5fKY2I2my0xMTEmJiY6Ovr8+fOqvld01EtZCAFCgBAgBAgBQoAQIAQIAUKAEHgyEJB5jSejVdQKQqA6CLz66qvAa5w/f7465VBeQoAQIAQIAUKAECAECAFCgBAgBAiBh40A8RoPG2Eqv84hkJ+f/9prr/Xt23fQoEFK4QoKCsANiq+vb3l5uTIBxRAChAAhQAgQAoQAIUAIEAKEACFACNQdBIjXqDt9QZLUHgLoruXLL78UzzQVFxePHj0ajDU++OCD2hOIaiIECAFCgBAgBAgBQoAQIAQIAUKAENCFAPEaumCjTI85AseOHUMvsG3btn3zzTfnzZs3ffr0Jk2aAKnRvn37oqKix7yVJD4hQAgQAoQAIUAIEAKEACFACBACTz4CxGs8+X1MLVRF4PDhw23atAEWQ/xvMBjGjx+fm5urmosiCQFCgBAgBAgBQoAQIAQIAUKAECAE6hQCxGvUqe4gYWoVAavVGhsbu3DhwjfffHPatGnvvvvu2rVrU1NTa1UIqowQIAQIAUKAECAECAFCgBAgBAgBQqAaCBCvUQ3wKCsh8P+1Y8c0AAAACMP8u0YEx54KICQ9R4AAAQIECBAgQIAAAQIEUgFdI+V3ToAAAQIECBAgQIAAAQIECBwCusaBZ0qAAAECBAgQIECAAAECBAikArpGyu+cAAECBAgQIECAAAECBAgQOAR0jQPPlAABAgQIECBAgAABAgQIEEgFBpBCsz2mN8ejAAAAAElFTkSuQmCC;" vertex="1" parent="KGChQR1K5hRhyjWdONPX-30">
          <mxGeometry x="310" y="650" width="667" height="42.7" as="geometry" />
        </mxCell>
        <mxCell id="KGChQR1K5hRhyjWdONPX-125" value="&lt;font style=&quot;font-size: 15px;&quot;&gt;Reads the Event&lt;/font&gt;&lt;div&gt;&lt;font style=&quot;font-size: 15px;&quot;&gt;(Essentailly the message in the partition of the topic)&lt;/font&gt;&lt;br&gt;&lt;/div&gt;" style="text;html=1;align=center;verticalAlign=middle;resizable=0;points=[];autosize=1;strokeColor=none;fillColor=none;" vertex="1" parent="KGChQR1K5hRhyjWdONPX-30">
          <mxGeometry x="2460" y="505" width="370" height="50" as="geometry" />
        </mxCell>
        <mxCell id="KGChQR1K5hRhyjWdONPX-126" value="" style="shape=image;verticalLabelPosition=bottom;labelBackgroundColor=default;verticalAlign=top;aspect=fixed;imageAspect=0;image=data:image/png,iVBORw0KGgoAAAANSUhEUgAABGwAAAAnCAIAAADVQkm3AAAAAXNSR0IArs4c6QAAIABJREFUeAHtXfdfVUfTf/+B5SLgtQCKggW7UezR2Fsk9l6CXTHGbowaYyNPbDHRJGoSk1ijGGuCAoL42BARLyLSEQUEBUSQDvfue9/M55l3nj3nHi4HolEPP+jec7bMzpYz35nZ2f/h2p/GAY0DGgc0Dmgc0DigcUDjgMYBjQMaBzQOWM2B/7E6p5ZR44DGAY0DGgc0Dmgc0DigcUDjgMYBjQMaB7gGorRJoHFA44DGAY0DGgc0Dmgc0DigcUDjgMaBKnBAA1FVYJaWVeOAxgGNAxoHNA5oHNA4oHFA44DGAY0D/ywQ9fjx46SkpGfPnsHAxMXFRUZGRkVFvc3jlJaWFvnXX1FR0dvMB63vChwoKCiASQL/lpaWKmR+s19lZmYiK2JiYqrUWSwYGRmJu1CVanhpmV8jUl8aT6Ch+Ph4ZE56erqVrWORf/7QW9mjKmVLSkpCDqSmplaprJZZ48AbyYHU1FRYFK9K9EpMTAQCTCbTG8nhN6NT/wWiTCZT+V9/RqNRuXsVFRVW5lSuB99+//33rq6u7D9/d+/e5Zy/8847jDEHBwfM9hYmPv74Y+BKWFjYW9h9rcvWcCA4OPg/S+f//n/48KE1pd7IPBs2bEBWtGjRwvo+lpeXY0HG2KFDh6wv+5JzvkakvmTOcM47deqE47hixQprCND42b9/f2TanDlzrGGalkfjwJvNAW9vb1gUERERr6SnvXv3BgKKi4tfCQFao9Zw4L9A1KFDh2DMvL29FQqfP3/ezs6OMVa7du1Lly4p5LTy1YkTJ3AHh0RkZKQGooB7Goiycha9zdk0EIWjr4EoZMXbmdBAlIpx10CUCqZpRd5sDmgg6s0e35rqXZVBVHBwsIODAxiILl68WCN0eHp6AnZaunRpWlpaenp6SUmJBqKAtxqIqpE59mZX8raBqKtXr7b46+/TTz8VRrZSEDVx4kQom5aWRsu+RuaI14hUyuGXk9ZAlAo+ayBKBdO0Im82B/7880+fv/4eP378t/Z0y5Yt48ePj46OFlrRLFECQ/6ZP6sGoq5du6bX6xlj9vb2Fy5cqKkuubu7M8ZsbW0F31PNnY9zroGomppmb3A9bxuI+uijj0DtInU9Ki0tLfjPn7CfcM7T0tJsbGygrNTp8T/l/u//8vLyf/KEeY1Ifcls1ECUCoZrIEoF07QiGgdqhAPNmzdnjP373/8WatNAlMCQf+bPKoCoW7du1atXjzFmZ2f3xx9/1GB/XFxcGGOurq5CnRqI0kCUMCW0n7IceKtAVFlZWYMGDSyBKFn+4MNvvvkGCr7lJ8eQIW9eQgNRKsZUA1EqmKYV0ThQfQ48fvwYPkkaiKo+M19JDdaCqMjISCcnJ8ZYrVq1Tp8+bQ2tjx8/vnv3rsFgePTokXJ0kYYNGzLGmjVrJlRbHRBVUVHx4MEDg8EQFRX19OlToWbVP58+fXr37t1Hjx5JFdVGozE1NdVgMFgZ3Sg3N/f+/ft37txJTEwsKyuzRFI1LVHPnz+PjY2NjIxMS0tTHgUkICcnJykpKSEhIScnBx+qSJhMpoyMjPj4+OTk5IKCAhU1WF+ksLAwOjraUjAuFUxQbjo3Nxe4ar2hv7S0NDEx8c6dOzExMXl5ecr141uTyZSenh4ZGRkdHa0QL04BRD158sRgMKSkpFg5+ti0pYTRaHz48GFoaGhkZGRhYaGlbPR5fn5+TEwMTHXw1KVvldNFRUUGg+H+/ftI/4ULFxAISS1RyrX17NkTy0otUcpl6duioqLk5GSDwZCYmJifn09fWZkuKytLTk6OiIiwNGmtrEc529OnT6OiosLCwu7du6eOTtn6pYMiZMvIyIiKirp//77CpBWKqJgkhYWFsbGx9+/ff/HiBdZWsyDq2bNnUVFRiYmJryriZXl5OXxWYmJi1H3IYA+5fft2YmIiLiJkFyReIYh6JUtJxfwUOEZ/WrlL0yKQzszMvHfvXlRUVHp6eqXRvKTFOec5OTmwPVoTe8BkMj169MhgMNy6dSsuLq6qW7EsAVY+rKioSElJiYyMzM3NlRYpKSlJSEi4c+eOldtFUVFRUlKSwWB4+PChguwkbYhznpWVdfv27UePHsm+Vffw2bNn9+7di46OVrHHnj59ulIQhSNVVlYGI2jlB72iogJ2j4SEhOrLYOXl5enp6Sp4bjKZUlNTo6OjLc3S9PT0u3fvRkdHP3nyRN0QVKlUdnZ2dHR0SkpKVSePbCtWgaiYmBgwFtna2p44cUK2InyYlJTk7e0NuAjlFScnJ29vbwFdBAcHu/71Bw42Op0Ofrq6ut6/f1/5TFRGRkaXLl1cXV2bNWsmIPjLly+PHj26du3a2DpjrEWLFj4+PlL3HiRbmsjKygJ6Nm3axDk/f/58jx49sM4GDRp88cUX8E0yGo1bt25t0qQJvjUfujh+/Li0Ts55Xl7e5s2b27Rpg5nhgNnIkSNv3LghLaIAosrLyydNmgRE7ty5k5YtKyvbt29f9+7d0XkJbH2LFi2yJLQlJiZ6e3vTGImMscaNG8+fPz8uLo5WXmk6ODh4zJgxdevWpX1s167dxo0bhV0yPj4e6P/4449lq/32228hw/nz5zFDRkYGPPTx8TGZTJ999hlEOhGisalgAjYhmygoKNi6dSuV0hhjzZs3X7169fPnz2WLGI3GI0eO9O/fv1atWsgNGxubbt267d+/X+HDGRsbO2vWLGEddejQ4auvvpLuRAKISktLMxqNe/fubdWqFTbq5ua2c+dOhRYF+tPT04HJ8C/AmG+++aZFixZYp16vX7hwoSVM+OLFiy+//LJDhw6YHzyBPT09ZQPSrFixAlv87LPPOOcHDhyoU6cOFA8LC+vTp4+rqyudV7Vr14YigwcPBvp37NiBlfTs2RMenj59Gh5SSlxcXOAhTK2Kigos6OrqKrvRlZaW/vjjj3379hVGs0uXLj4+PrLywcqVK7Fa6NTz589XrlwJVn2gx8PD49y5cwL/FX5WSmpaWtqyZcuaNWtG+8sY8/Dw2LFjh5XQFwiodFAonampqYsXL27atCltt2vXrvv27auoqKA5MV3VSQIF4+Pjx40bB6ueMWZjY+Pp6RkeHm7eqDt37oytq4vOd+TIEc75kSNHunTpglU5OjouX76cCiL+/v44sq6urrJTmnMOkxZyzpw5EzteaSIwMHD06NF0tjPG3N3dFy5cmJiYKC1+8uRJpGfgwIGcc6PR+N1334G3PHSkUaNG27Ztk24CsiBqw4YNWGHz5s1lBcTHjx+7ublhth9++EFKmOyTV7KUVMxPWeLxYZV2aSwVExMzb948Nzc3nF2MMUdHx/Hjx1++fBmzYULYirOzsznn/v7+6O7FGNPr9d7e3pb0nmFhYdOmTaN7DijEBw8e7OvrK4XW48aNwzFdvnw5UoKJwYMHYwYQkOCVLKl79+6l0tH777+P99YUFBSsWLECDonAmY5x48ZZElGMRuPx48cHDBhAt9/69et7eXklJCQgbZjo1asXEvnnn38ajcbFixfrdDorYz6vWrUKikOwaKj2jz/+gIeBgYGc899//50q5nQ63ZAhQ+7cuYM0KCTgU4WD4uzsDDXjpwfH12g0Pn/+fMmSJZiZMebi4uLj4yPV5kOLsbGx06dPB8sHTDNbW9u+ffueOHFCOtwKRMKrhw8fTp8+HVu3tbWdMGEChH/7+uuvgWwcU845sq6wsNBgMOBGKsS8TU1N/fjjj4WF4O7uvnLlyszMTIEqdbLikSNHgDw4f7R379527drhuqtXr97cuXMzMjKEtqr0s3IQlZiYCJ3U6XTHjh1Trj0oKAiFHsZY3bp1IQoFEO3o6GgwGLCG8+fPY2eEhHJ0vry8vK5du8K38+jRo1gh5/zLL7/EqmxsbOrXrw9rBh526dLFkrBLK4H0ixcvoNRHH3108uRJQCP42YZX69atM5lMU6ZMgZ/29vaQgH+lJrvU1FQKnxwcHCi7dDrdzz//LFCiAKLmzJkDDS1YsICWys7OxuXHGGvUqFGzZs1sbW0hc/369a9cuULzc84vXLhAR0qn02F+CMPo5+cnFLH0c+PGjZQJAsfc3d0fPHiAZaOjoyHzhx9+iA9pAgf01KlT+Dw7OxtKLV68eO/evdgcBVEqmID1yyaio6MpfsBGIdGkSZPY2Fih4IsXL95//30hJ/05YsQIWQ33t99+S/lPizDG2rVrl5SURNsSQFROTs706dOFUvDTetPN8+fPaQ2XLl3CeU6fM8Y6d+4sXVYxMTFUehOKMMZ8fHxoFzjnS5cuxWxeXl43b96kizcsLIyuHcwJiU6dOkFtsoElfvvtNyE//QlTq9JoDQkJCQIgpJUwxho2bBgSEiJ0atmyZZjtww8/zMnJsVTJL7/8IpS19FOZVH9/f7qrYOuYeOedd1JSUixVLjyvdFAw/++//y6orrBFxtjAgQOpvQhKqZgknPOrV6+i1EWbcHBw8PPz69atGz5UB6J8fX1XrlyJldBEt27dEEuUlpY2atQI38qGtI2NjcUMjDFfX19kl0LixYsX48aNowWFtK2t7a5du4Qazpw5g9lcXV1NJtO0adPwCU1IsZwsiIqMjKSlfvvtN6FFzvkPP/yAeXQ6nSXxVyj4SpaSivkpkC38rOouzTk3mUw+Pj50W0PuYcLLy0vQ9j579gzfMsbi4uLoV4++6tixo3SV+fj4UF0qzQ/psWPHoq0D+ig7H2j3qSaRrjIpqWvXrpW22Lhx40ePHpWWlvbr10/6tm3bttJePH/+fNiwYdLM8MTe3v7333+nFAr6lJ9++mnHjh1Y3JqLc2Sj8/n5+UElx48f37p1K6Rr1apFx1Sv11NEIVCFP+mnCgmjt2uAFGdnZ5eZmQluWaCFpJmnT5+OFWLi4MGDiDMdHBzc3d0dHR2x1JQpU2SlDiwuJCIiIurXr4/F9Xo9dFav1/v5+S1fvhxeUfkHvxoPHz6kYgAFUYGBgfid0ul0TZo0cXV1xYnaoEGDmzdvUkrUyYpHjhwB8g4ePIiyNGAH7FHTpk2pUEobtSZdCYh69OgRsMDGxubw4cPKNebm5jo7OwNlmzdvBsOc0WhMTk6ePXs2PG/Xrh2qJMEmm5SUBKXc3NyS/vMHYyzrzldcXDxo0CCobd++fZSky5cvw/O6dev6+vqCwrW0tBR02PBq/vz5tIhCuqioCIp88MEHjo6OkydPBv1fYWHhvn37QMY1f8u3b9+u0+m+/PJL0A89ffp00aJFULBLly5C/YMHD4ZXEyZMiI+Ph7dZWVnbtm0DDGNnZycMJw68cE/UmjVroCovLy+qWTQajQMHDoRX48ePRw1Nfn7+rl27AObVq1ePWgULCgrgkImDg8N33333+PFjo9FYUVHx8OHDLVu2QBFHR0fBiCR0DX6GhoZC0y1btjx16hTo5ktKSgwGw9y5c+EVaEkhv7qFgfh25syZzZs3d3V13bx586FDhw4cOADVqmCCbHfwYUZGBhWYGjRoMHv27CVLluDWxhhr2rSpYJPx8vKCLsO/3bt3nzp1Kv38MMbWrFmDrUDixx9/pKXs7Ow8PDzAFIzP3d3dqd1DAFHffvst5pQm/P39hRZlf+L8hxrGjh3LGNPpdB4eHm3bthWqnT17Nq2kqKiodevWmEen073//vuTJk0SbBRCcBr6uR09evSIESOwBsbYqwVRqampwhA4Ojp26dKlcePGlEg7Ozth6//ss88ww8iRIy3JtaBLttJfSwFEpaamUttFvXr1Bg4cOGrUqF69euFnlTHWpUsX3IfpwEnTlQ4KFAkODsbvH+D8RYsWzZ07lzJt1KhRtH51k+TZs2eCedbR0bFnz54wtRo1atSyZUtkOBXvaNNCWuAnCk/u7u7CjGWMzZs3D4vjJswYa9CggVQrvG3bNiTGyclJakPGqjBRVlZGRVjQmnt4eFCrMtT59ddfYynOeWBgILal1+spvMHnmKCGfc45bZHqWXr16oVFxo4dS5uD9AcffIAZhg8fLs0gffJKlpKK+SmlnD5RsUtzzulqAkmuTZs2HTt2pGuTMTZmzBhqLiguLkYmm5U1P//8s6CapG+FgKVnz56lb5s1a/b+++8PHz68Y8eO9PnixYtp7yzNB8xDv2J0lQmkfv/993RboC0uXboUQQh9DumNGzdiW2a+GY1GlJ3gWP6ECROWLVtGH9ra2gp773vvvYc1f/HFF3iS1kpLFO4D9J4of39/qHPGjBk2NjZTp069d+8eyEt3795F0VR2sdAecc6fPXuWlJSEctGxY8dA/kUACSDKyclp1KhRLi4uBw4cAAEjNzd3z549qLKnlgnOeVBQEPDcycnp8OHDuOdERETgsNIhE6gSfpaUlOCnfNKkSSADFxcXnzhxokmTJs7OzqNGjQKGUMXuqlWr4OG6desYY+PGjfvpp59++eUXxJbx8fGgcatVq9aWLVvQgvrkyRPcVF1cXLKyspAedbLi8ePHgRLYqaZOnWowGIqLi8vKyq5cuYIatyFDhmBDVU0ogaj09HRgn42NjTVa0j179gC5Xl5eUjpQixAcHCy8tf5MlNFonDhxIrSyfft2oZ5JkybBq59++kl4lZ+fD1DN3t5eUPMIOfEn3Q5GjBhBgQrnfMaMGdCWWbL86quvsBQseJx2VCq6d+8eFGnZsqWg+KE2tA0bNtDaZEEUSsljxowR3DoPHDgArYwfP55uxFDnsWPH4C1VRp47dw4e/utf/6JNC0WkXJVmXrFiBVR17do16dsFCxbAWwSQ6hYGyveNGzdu0qSJVP2pgglSaukTaoRp3749ru2KioqZM2dCpxhjdG/CrsHblStXQoUmkwn3TbDyUfeq1NRUqmXv168f2pp9fX3pt3bZsmVIoQCiGjVq5O7ufurUqbS0tNu3b+MVAkDJhAkTsKBCoqysDPsFiQ4dOiAmv3XrFsUPNjY21MVIUJRiHJr8/HzqbUXhNOf8888/xxZbt25tY2Pj7OxstuRs37598eLFSUlJL168EPSRXl5ez//6ww8PVe+hZbKsrOz58+cCl6KioqAsrCBBkqY6M845KibADWb//v0gMZtMJj8/P6qoa9myJV2S69evx04BDh86dOjNmzefPHkSFBQkwNFvv/1WYUTwlQKpPj4+2NyYMWPoPpOamkqbO3nyJFaokKh0UMzOG6WlpdR1cOrUqQgncnJy6IhTr0V1k4SCUsaYt7c3SAkmk+nXX3/V/eWrgxyg61GhjwI/AQSiD09oaCh1ctbpdMnJyVBbUlISlRHBw4c2RMU4Sx7LND/nfNOmTUg/Y2zRokVo+4qOjqbCa61ataj2V5jeLi4uLVq0OHfuXGZmpsFgEFQS48ePp+2idMUYoyDql19+QWIcHBwEJVFeXh5Kctbb2V7+UlI3Pyl/hLS6XfrSpUvITMZY//79UWGanZ09efJk+pb6pAhbcaNGjfR6/XfffZeampqcnIxCJxR3dnamssqQIUOw2m3btlGR4NKlS2g6trW1pQ5UluYD8oHOQ7rKBFJdXFzc3d2Dg4MzMzN//vln+v1ydnZ2cnLq2LHj9evXMzIydu3aRZdSy5YtsS3OOd0rHBwcwHEXMuzfvx872K1bN1qqb9+++Aq2vnbt2m3YsOFf//qXNYtRFkRRVQXVp0C7T58+BZY6ODjgHkhJkqZRZBKOpXDO0Z+oTp06MTExQlkcdyq2VVRUgBapVq1at27dEooUFxfDbqzT6fBTLuQRfh48eBB4OGjQIDqvOOdxcXHUXZCCKKStcePG1NsTK0fotWfPHnyICXQE+OSTT/AhClRV8lry9fXFOTB16lQ6/+FIIYoxdFJho9YkLIKop0+fopZ90aJF1tR18+bNXbt2rVmzJjQ0VJp/37590JkdO3YIb60HUYgoPv/8c6ESzvmpU6e2b9++cuVKMAoJGaZOnQoESOeWkBN+UhAldXJFMd3Z2VlqG503bx60RVnx8OHDPXv2bNiwQdamFxMTA0VGjBhB6cEuoyXq+PHjsN0MHToU1QxY5N133wWLgaVz87CKateujV9E1FmiMy7WxjmvqKgICwvLyMgQ5h/Ng2lUtMseEMzOzjYYDNSEom5h0KGRhXYqmIBdkCYePXpEnesEt4H8/HzU/Ts6OuKI/Pbbb+3bt2/atGm9evV0Oh3FGNhrGHHqA4a7DxjuBXz4ySefQBHwlcWJJ8hPDg4OdEcrLi6mJnVpGExplznngmSp0+ngpCJmPnnyJBLDGNuyZQu+Wr58eZs2bVxdXfV6vRAwhn4Oa9WqRaV8in/gCJ/sHB4+fDi2SwU+aJ1WgiAKXoWFhWFBaXQ+ob8URP373/+mBaXqG7pTm4/JUccnSg+YgGiXY2JiqNw/bdo05KFCQoFU3OXMfry//vqrUMkff/zh5eX16aef7t69W9BfCjnxp0C/q6urdFCot6S9vb1wAVdISAhyjxorVEwSk8kE4YChwvbt2wuSCrqRQAYq3mGPpAmBnzqdTrizBdVMUO22bduwkqFDh2LvBKHq8ePHVC7EDRzLShN5eXkUkFN2QeaHDx9Sv2vqQyjdBFBG55yXlJRQb+TGjRvT1i0JzYWFhXgQwmxsh9NiWBC1vIwxK+1sr2QpqZuf2E1pQt0uTc0mjRs3xu8v1F9eXk6RSbt27fCDK8xP8xlv4cT1hx9+iJOQMUahNXWgQPCPPdqyZcucOXPWr1+/d+9eGiTJ0nzAgpRUusqkpFIzDrp+AbW2traUJMEFnUpxVPsjGM0452j/AYcFJJL2wvxqyJAh+HXGPAoJZRCl1+upJIP1DBgwAHpHv/j4VpqwBkQJinWoBJcS9ejDMzLCXoTtmoVkIE9WhMZsmBgzZgzkDwgIwIeYoLZEKnKgqsvd3Z2qFKFgeno6fPXc3d1lHSKys7NB4nJxcUHkhlKTOhBFlV9IP+cctZxWMoSWhbQ8iJo4cSIeBQM/k9u3b0sLV+kJfofWrl0rFLQSRG3evBmGc8mSJUIN1vzEySo7G6Q1oKTeoEED6VtUSMjq9VHykOompVXBEzyC8t5779E8AogKDg4GU37v3r3pKWcokpubCyx69913aSU0japlpO3PP/+EUsOGDaMSHi1lZRqlfNllL61E3cLAoWGM0a0W6lfHBClt+ITquhhjaPTADKNHjwYGMsasuYEaLWlQisrc9GsxevRobAIS9+7dW7BgwcqVKzdt2rRz5040ggvy00cffSQUXL16NVLIGBNETyEz/BQ+h56enkK2iooKqoiSUivkh5/oDgH0UIEbVw28Epx1sbaXD6LQQRf8QKQTwGg0UmFl6tSpSK3QKempGOoxNWDAACyokBCGhuI9dJw2T8UePXrQD5tChQqvBPplB4W6rfbo0UOozRzjBAVx6WWAQmb4aWmSJCcn02lMVbBQMC4ujmag4p1sQ/BQ4Kd0qhuNRuoLNGbMGKztxIkT2KKzszOVGFBvyBjr0KEDFlFI0NoYY0FBQdLM6HABgX8wg7AJSHXtVPQXNgEqbgqKCTr5acc55xSxW6lppbU5ODi8nKVU4/NTxS795MkTnCeMMVmJDX15ICcaH4T52aFDB8RXMPrCeqExTqj6bM6cOdLDqzh/aEJhPkA2K0FU3759abV44AI6KMhOglYOFRkJCQmUddLj2V9//TVmWLduHbZIe2F2KkN+YgblhDKIEpTdWBVONqnmHfPQBMqlCpYo2ari4+Oh13RVIkwV/HWxxcLCQrAH9u7dGx8qJCAiSK1atWQduDIzM5Hz9FuDIGrp0qXSylHnuHDhQulbeIJWOIxqpk5WxLa6du0q2xbOyZEjR8pmqPShPIgCvtSpUwdDF7i5udFTNJXWCwGdw8LCQkJCgoKC/P39Md6A4LPLObcGRP30009A1ezZs4UdRJYYCJh748aNS5cuXbx48cKFCxMmTIAaLE0voR6U1KVigTnmEqoBZGPXYDgES21BsNE7d+5cvnw5ODg4ICAAdxAB/1AQFRERAUaPLl26yGpBcEJMnz693MIfquXQJFhSUoJbbatWrbZu3RoVFWUNkwWOcc6joqLQZN+vX7/9+/crTxt1CwOHRrByAD3qmCDtCz7Bq11BofCb5I/6y0nNFJzz4uLihw8f3r17NyIi4ubNm9euXcOtxxxmB31lc3Jy6HNp6AUkSUgI8tOff/4pZDh06BCtWVCCCpnhp/DllgqsnHMaNqN169ay9eTl5SUmJhoMhtu3b4eGhn7//feUErrzCvI6+jEK1b58EEU1Sn369BHogZ/onwAh1DCP0Cmp1Eh9O7t3744FFRLC0FAQhVZlYLKNjU3Xrl2XLl167NgxilcVKhdeCfTLDgqNd/Tuu+9K1sdv1NlP1iBj5SRBdQ/0TlYdRtGOOhAlO9XRHZ0xRqe6EF6CkkS3BdxsBfYKP2kYEhsbG1nBZefOnXQFYYwQYROQypqHDx+mBekmQMVNAUTR8BL29vZYqqSkBLExY8xK/45XspSqPz/pMKnbpWnYD0u6ttu3b9MBOnjwILQrrPdVq1ZRejjnjx49ogXRfZpzjr4hkMHe3n7QoEGff/65n58fDqVQm8IZOcxpJYgSsGJqaiqlUzgHYTAY6FucUdTgyRjbunWrsMPQVUONt3RWt2/fHom3MqEMoqg7Pa0QS8ludDQnpK0BUbLQNy0tDdhFu4xGufj4eAsCYDksB71eX6mMV1BQAE3QHU/oAjqs0U85giiUbWgp1OPL+vJBTvwsYng2dbIigihLpjlkY7t27SiR1qctgqiOHTsCcF+8eDHwsUuXLlIJQGiprKxs7969ffr0sf7gozUg6syZM2D+0+v1qH0XmoafWVlZ69evb9++PfWjoCvTHEzMErARKkRJvX///sIrCqIgbLGQQQFEnT9/fsyYMfTzI5BnCUQdPXoUtd2WYgP8/vvvQm0KP+lefPfuXSroQEy/adOmHT58WHYBC/2lP3/77TcrbgtnAAAedUlEQVT0tIbW27Ztu2jRIn9/f6qmhSLqFgYOjSy+Vc0E2guaHj9+vAIbhVfUClRWVrZnz553330XgaWQGX7iRoOn5uA5dYun9EjTgvyExzcxp3C82JoxFb7c1FyG1c6aNQt75OzsjM/hOo61a9fi4UDMJiTozkvl9fr169PaaPrlgygql1vyJUBlB/hhIsG0U7I2bdQdMsYEn36sREgIQ0NBVGFhoaXof2AP2bhxoywQEprAn5R+S4NCQz8J4yv9ST2RsrKyqjRJ0IkaqpXOc3N8he7du2Oj6kBUVac6NfPOnTsXWJeXl4cfQVtbW+orhbyVJqiVyZLbLYoF0E08TC9sAvfu3RPqV9gEqLgpgCjOOQ3ijL7o1PphpZ2Nc/5KlpLq+SkwEH6q26UFKxPq12kTVK/PGEOvUWG9S0VPdL6AKUFPHkZFRWEMNFwXkLC1tR0wYMC+ffukWF15PnDOrQRRe/fupR0U6BSOZSYmJlIKEYTgCXD61lKaisK0F+PGjaOUWJNGOEQ9EtEFSVbwM3/4sBTSr9yWNSBK1gsRpX8KooR4IZa4BM8rleexCcE9ivYItUv0U44gSqrP5ZwvXLgQCBBORtBqcVNFKUidrIi7pdQDDppDtyBL+y2lSjYtD6L69euHh93Ly8tR3zxixAhZF0aoOjs7m37AXFxcevbs6enpOXr06IkTJ6KraFUtUTqdjnqBT5o0SbYnnPNbt27RPbpFixZ9+vQZPnz42LFjJ02ahIj5VYEoo9FInW30en23bt2GDBkyatSo8ePHY8AMSyCKxhto1aqVrBpJMDgoLyEhMHpubq6Pj49U6tXr9atWrZLus5ZGgXMeHx+/cOFCDNWIZLi5ue3fv58WVLcwEETJmqSrwwRKG6Zxm8COKCTwWEtubi4czVLIDK8QRN24cYNmFk4gID3ShCA/SU+toDMt1K8CRJ05c0baLrXR0aCxBoOBhmWjnRLSdOel8rq7u7u0OXjy8kEUxcCWFFp4FhY6iG6xtFPCGS3oDn5EawREcc4fP35MbSACw8GaikpuS0zG55R+S4NCTwxKmxOe4FVCKiYJPVDHGJM9G92nTx9sUR2Ikp3qGBRHGtorMTERdXZOTk5wUpGqcix5/iCTMUEHrlWrVvicJv744w/sILVpVGcToOKmFETR8BLo9ILaVXOUOSvtbJzzV7KU1M1PynOaVrdLb9myhY6arINGXl4ezYOeaQKIokoTIAzPAkBxCqLMR4ZCQ0OpLY42AenmzZsL5zWU54P1IEogVaBTkMSSkpIobQhCUCVN31pK08N+tBezZs2ig2hNGuHQawSi6LlHSyzC58KJaylPENYKIaBoTtT70E85gig8M0KLYFQ2WYgFOdFzDYMtqZMVEUR9+eWXlAZMG41GYIijoyM+rFJCHkTR46pm4Pjs2TN0AlY4j4RXW/Tu3ZtOOyAIT7xVFURBD0eNGoWRjr7//ntpJwsLCzEc7ezZs6Wb1KeffgpVCUtXWhU8QUm9pixRu3fvBgLc3NzOnj0rnEtBy6klEMUYa9u2LcaCkwWTeGpwxowZEC5T4V8aOZAy4f79+7t37x41ahTVYPXu3VtWHUILCuny8vJr165t2rSpX79+9DNGHSDVLQwcGlkQVSNMoH2hlqiGDRv+oviHwSfRNxpC2c6dO/fkyZOhoaEGgyEqKgpmAvyLIErwZxAAJyVJSFdHfhKqwp/Cl1t6mIdzjrMRQjxD2ZKSEhpmum7duuvXr79w4UJ4eLjBYBCMCXTnpfK6LN6A+l8+iKLqANnQo5xzayxRsp2qcRAFXLpx48bKlSs7deqE8j2dcjY2NjhRccRlE9YMCtX09+vXT3F9/AJHHdRNEirNM8akxhbzJaRwhSB0Vh2Isn6qI8doeAlwE5g/fz4yXDZgD5alCVSlma+LcXNzo68wjWIB1G/JElUlTQoVN6UgioaXsLOzAxUMqtust7Nxzl/JUlIxP5Hb0oS6XVpwY8b4tLR+Ky1RAjLhnAvgRABRnPOysrLTp0/PmjVL8DfBKeri4kJjQSnPB8453eHpKhO+GgKpAp2CJGYJRAmWqB07dijsMFTzWGkvKPOl6dcRRKGFMDw8XEH2g1eCCCrlALpfWnJi55yj3od+ypVBFOperbFEoXSkTlbE3dLS4Qi0RFnab6VsEZ5YBaI457GxsRg1CKEhrQu9chs3bixrJcSjOCpA1Keffmo0GlNSUmA3tLe3l4I0dPi2pPbDJSEsXdoLmkZJvaZAFF70gSoW2hxaTi2BqGHDhuXm5paWlqJzhdSsjye1LIl6tMVK00VFRYcOHcLwvsK1JJUWpxkyMzM3b96M8XBx+CpdGOg+Sy/bxaGRBVE1ywTOOVVCN2zYkPbLUjonJ4fiRuF4Jd5zBd8w3CZwDsBzS8te2uhLAFGC/zrQQOPnoh+FYPWiA2dWYeJlhdBHuvNaI69zzl8+iPLw8EBpQ3Y34JyPHDkS81CwVGmn/iYQhZPEbBENCgrasGEDDTXOGBs2bBjmUUhUSr85LCqq2BhjkydPVqgNX6mbJKdPn0YmW4q7QIOdUPEOm5YmBMlv586d0jzojgHKLCEDfqoZY3BaGqMIOjs7o1lSKCX9uWTJEuygra2tbMGvvvoK89Agk9XZBCoVN6mOwNfXl8q7aJuSdkf65JUsJRXzU0o5PlG3S+OZZxg7WRVGeHg4HVlEIML8xOdIkgBOpCAKc5pvZ0lNTT158uSSJUvc3Nxoc1RVj35Dsiu6oqKCWhTpKlMmVaBTkMTopKJx9vBeFqAWA07QTsmmK53VsqXwIUqMKK7Q29j+me58GAFS1kqPXbMyge6XCifKcEXTT7kyiILLoxhjgrcnpQrDMaBfgDpZEXdmqrunDWVkZMC8euedd+hz69PWgijOeUBAAMiFOp1OmP2cczw3Sc+EUDrQ3aWqIIq6CaGRoXXr1oI/Gx4upD73lAB0NZQST7NhGiV1WbEJJXXZtYQGaGwLb/JGWRMbggQ6aVgCUQi9Hjx4AIBWCiaxlU6dOgn1q/6JirdBgwaprgQK7tq1C+br5s2b4UlsbCw8seSyjPYcKovj0MiCqBpngnBYn2rsLDEEg1tA74RD3jToMw0swTlHyApXLgr1p6Sk9OjRY9CgQaNGjYJr/iBDdeQnoQn8KXwOJ06ciK8gUVFRQfXKePMMRtGEvgsqFeEaHLrzWiOvvxIQRVG0Xq+XmmTLy8shOg50mcacrbRTfzeIoqNGfYqsVAdUSr9weL1jx460RUtpdZPk/v37wGH4VxrERchAxTtLlEij+UuN/EJ0PpzqWCcNL9G8eXO8r4IxJo3IjKWkCUFevHr1qjQPenzABd+YoTqbQKXiJn4FGGMzZ86kgQcV1MlIGyZeyVKiwRWsnJ9IsGxCxS6dnp5Op+4XX3whrRl9VSAnxsgWtuJqgihst7i4mMaVpeoPNC/ArQxYBBLChVd0lSmTqg5EoZAAbLF+vlU6q4V+CT9fRxCFJ2ypvCT0q0o/QSdl6dqrrKws9HSgn3JlEIXARiGkJ/qd4SrAaVAlWRHboifHKAeuX78O88qa+5FpQUxXAURxzlEIrlu3bmRkJNbCOT9y5AiQsmbNGvoc0s+fP0d5qzoginOOrth0zXPO8Wom2aALV65cAfJeVWAJNIz26tVLyh/zgS50CKkURHHO0eFeCibxDmZZhwHOeWJiIr1HgnP+9OnTwMBAqm4RKATMZs2p9wcPHpw6dcrSKWr8EuO2i1o92ZOLpaWleLSGbgrKIMoM+FUwQegy/Zn031dqSr1JN27cuHbt2m+++ebo0aPgRxoQEIDzTXoNJbWlCPoYDEoD9/DSCxA55/Qrq9Ppnj17BnRWR36iPaVp4XPo4OAguFAj7IeeoqFy7dq1tO80jEFubq6g/qR3T1kjrwsgSrrxKVQi3BMlXJQk9JdKKsJoSq8mQzM7dBwDCnHOFegBbtcgiMrKyvL19fXx8fHy8kI9BR1TKsk5OTnRV5bSldLPOf/111/piAvxHvLy8hYuXLhx48Y9e/acOHECTleqmyTl5eX4HTHv5J07dxYCTNXIPVG1a9cWdjDBfIpTnTINT0IzxtBfhTFWpTscc3Jy6NlXqUPBgwcP0J5vvm6BmrirswlYI26iB0SjRo3Qw7lKdjZQxdKp8nKWkor5SUdWmla3S6NcaL7oqUWLFoKZsby8nIaE6dy5M7arsDVBHgGcoCUqLi7uwIEDa9eunTBhwtmzZ7FCTFDQTgOO04hBjDG6S5tMJuqAIFwxr0yqQCeqmIEeS5Yok8mE0YMZY1J13pEjR8w6+u3btx84cIBGA7dmViMrpInXEUShhV+6dWAHQ0JCMOQBPrSUQNPWtWvXpHl27NiBy9l6EIX3RLVs2RKvgaKVZ2VlgcHGzc0Nd3h1siKCKL1eL3uwf9u2bdAF6x1/KKmc86qBKLPAja7ezZo1o18a3MGlgK+srGzs2LF4wEZqqrImxDnSXVJSgiIytQbinVlS9WRmZmbLli2RAEumKmwCEiip14glqqioCKaFk5OTdCy3b9/u4OAAGQRTFfpRoCUKyMPnApjEs9ejR4+WTtDi4mL4Fnp4eMAmXlZWBsqGrl274uWtlBUpKSkwyaT6V5qNc44RWqVXlEBOvP0aPUKNRiOMi729fVZWllChj48PLtEqgaiqMkFoV/qTwh4nJycqGNFDPg4ODhBIWjj1hBdw5efnUwELeoeQ0owQDAYDqnYYY56enmjJCQ0NpUEd6S6Jqw8qrNJxCGln4YnwOWSMDRgwAGNjxsfHU/d6W1tbPIUoeP/jjWEpKSn00D+Qit97a/AGEIYCnBl/1qtXD9uFtwpCPw3WzBhbuXIl7bvQXwqiOOc9evTAqVivXj16P3JwcDC6OjPGPDw86LpToAdar0EQlZKSgpPHwcFBevEIvRtxyJAhtPuW0pXSzzkvKiqi2KZHjx5ora2oqED1FoU9qicJSjYwHKtXr0ZuHz16lN5czBiz5MIhdLasrAwHFxIDBw7EqZ6YmEhlODrVaT14CJsxBjs5Y0yF3QNdNoCSr7/+GsWI5ORkGiK8du3adKVXZxOwRtz8+eefkUvYwSrZ2YBdL38pqZifdGSlaXW7tKB1mjZtGsqyL168EC7MpefolLcmhTNReMaBMdamTRtBC1ZaWkotUVSIxA8ojHinTp0MBoPJZEpNTQV8RZ1m6SpTJlUdiOKcb9++Heee+fwtPS1sMBjomTcqJ1gzq6WDi09wq6H65RqPzoe3t0lRLt6VJPV9MB9IRlBBRe6ysjK42Umn0+FpSeyR2fUanLns7e2lV7HTbJjGCxWk9p/Y2FgnJyfccq0HUea7cPBGEOE7C+2iPQ2FB865OlkRQZR5/kihQUlJSZs2bWBqCWYhX1/fvX/94bcMeSIkqgyiSktL0V+2R48euAsUFBSghPfjjz/ivn/lypXevXvrdDr0xGvfvr2gg6kSiILgb3BdkoODAyoe0Nbk7Ox848YN6Gdpaenx48ebNGni6uqKTlnSg7MCU+BnzYIozjnqb+bNm4c4KiEhAUL2bdmyBcJT6nQ6etM8giUBRBUXF+MRagomy8rK0HFx8uTJjx49wt6Fhob269cPZgx1J0Ct8JAhQ0JDQ3HszKcGIyIisBV0TsUKpQlUti1evJguqrKysnPnzsFmp9fr6ZU1Y8eOBZKGDx+Oz7Ozs4EqvDCbbo44NLLufHCOtqpMkPaFPklISEAQDkLSkCFDvLy8sBXoAh4cMhqNVPBijLm6uvbq1Qvmbb169ag4W7t27WXLluE1plSlzRhzcnLy9PTs0aMHyscQgJ6Ch+rIT7SbNC18DkH0qVu3rqen54ABA6hPvKART0xMxI0V2NKuXbtu3bpBke7du6MiBq5UWrNmDcTwsUZeNw8uRoiByuvWrdu7d+9WrVpB4FCFSvLy8qSE9ezZE0IJC/0VNve4uDgYO2iUMda1a9eRI0cKIWX1er1gh1GgB7hdgyCKc46u5IwxnU7Xp0+fWbNmLViwYMqUKRgJALogqIHp0NN0pfRDZqrSZozVrVt37NixU6ZMoaugVq1auDOrniTJycnUFANTCAfC1dWVBiJTCINE+4hni4EzEFSzTp06w4YNGzhwoDDVFerEHR4nCW4ItDnldFFREUVK2MH33nsPoQvUL4hB1dkErBE36SceO0jVScr9wrevZClVdX4itZYSKnZpGv8aGOjo6Ojp6Tl06FD6cWGMzZgxg7arvDUpgKjS0lK6HPR6vaen57y//saOHUtDGTs6OlKIlZWVJdxTAvsJkN2/f396zzJdEcqkqgZRxcXFwpHOrl27enl5DR06lC4K4XieNbOa8llIvxwQheqk0aNHP3v2rLS0FN1PVIAozjmevmvQoIGvry9GjzB//r766iu4d6Fhw4ayF40KHICocgiY58yZk5iYaDKZ8vPzjxw54urq2r59e/QupvKesjsf5zwmJgZibuv1+kOHDiGR+fn5aA5xd3cXzuyokBURRHXo0MHW1va7775D9JGTk4OBfKQXrGOIDkHwlrKoyiAKboDBQIrjxo1DRSBiVgjV1alTJ+Q+eEAhWe7u7n369EEgUVUQxTlH/5k2bdrk5+dDxxDdMsaaN2/+zjvvgGtE3bp1Q0ND09PT8evbrVu3SkNeoqReI5YoiDSK32O9Xu/h4YGuTVOmTDEajeiL4uTk1K9fP3CItwSiOOdxcXGw+VIwCVfvYTx3xlirVq06depEVcVz5syhRqeioiK63ej1+latWrVv354qeOhGKZ1G+CQhIYH6izs5ObVr165NmzYYpL5WrVpC8Kvbt28jW2xsbBo3btysWTMQdr29vfGsHS2FQ2MJRKlgAnbBUiIkJIQyBMUITHzyySe0rHAIHrM5ODicOXMmKytLEMoHDx4MxcvLy/EiBSxFE02bNr179y5tqzryE62HpqWfQzpJKD29e/cuKCigZfGAIs0GqzI+Ph6VefgWlKBWyut3796lH06sBDZi5UomT56M+TEB6i5pf2mPzDcLh4eH44LFsjTh5uYWGhoqlFKmx2zGqVkQVVBQgEouShtN63Q6WYc0gXL4WSn9WGrnzp0U59MWwTeVKtc55+omiTnCG168LjRhZ2fn5+dHI0DMnz8fyVNICKGl/fz88M5KoYn33ntPmOq0WvxgQylbW1vqy0pzKqefPHnSt29foWn6087O7scffxQqqc4mQJe2gpIRP0ZAjIeHh0CDlT9fyVKq6vxU7ouKXRpO3wk8pMMK6QULFtCvs/TMnqDfUQBRIK1i1GJpW/DE0dGRmtah44IxCsu6uro+ePAAAQZjjN6VoryLqgZREA8DBUgkhiYGDx6MXhvQBStntaWBxj7+rZao+Ph44XOGVxGqA1GC4a5+/fqdO3du0aIFXlvn4uJy/fp1S72WPj937hylEKU1kEPQglolEAVhFFAgd3Z27tmzZ+fOnfGJVMgBXyds3UpZEffkHTt2wJGZunXr9ujRo1u3bsgQNzc3vLIcu4+T7W8BUWZjXFRUFIqAVHbcvXs3FdYZY3369EGV582bN1ExWbt27eqAKM45+iVPmTIFel5YWPjRRx8haxhjdnZ2EydOxCNA+/fvR5WPQuR7qA0l9ZoCUZzzoKAgqhlijLVu3Xr37t2gRH/y5AkKQLa2tkFBQTR0suxYor2egknO+YsXLzZv3izdPfv163f06FGcKJgoLS3dsWMHWjZxb7Kxsenbt681NiisKjMzc8mSJXiWCatycHCYOHGiYDOFUsHBwRjjBfI3adJkx44dRqMRJYMDBw5gEzg0CiBKBROwfkuJtLS0jz/+WJjhOp1uyJAhMFhCwbNnz2JIRujXkCFDUHd79uxZvD3ZHGWLuueZIzX7+/sPHDiQbl6gk163bp3wqTDfholcglaokw+QhK7SkEHFPVFmv/Pi4uKVK1eiwRkMDitWrJCKlUaj8csvv6RObvb29jNmzEAd26ZNm3Cd2tnZgSnVenn92LFjVI0KmoJKLVGgV6Nh9ODSJLABKn/+gY25ubkbN27ETQyYaT7z1rJly82bN8vq9irtVM2CKBC59u3bJ5gugdQ6dep4eXnJrkFh6uLPSunHnIAzR48ejRoTaFSv13t5eUlvF1U3SaC5M2fOCCurf//+gGBp2H28tI0SKU3jgVUg2GAwlJaWrl69mk7gOnXqLF++XDrVaW2lpaV0cxg1ahR9W6V0eXn5r7/+2r17dwGXNmjQYN68eXjYmtZZnU3ASnEzIiIC57zZIC8bxpCSpJB+JUspPDzc+vmpQDy+qtIujaVCQkI++OADlBeBpQ4ODsOHD5eCmWqCKM652TF13bp1qPimI9ikSZNPPvnEksPSkSNHqAhha2s7depU8G1BJzTGGF1lyrtodUAU57ywsHDbtm00ujr0pWPHjj/88IP0ClMrZzWOi5B4OSCKc/7DDz9Qux+qflSDKM75tWvXPD09EXIAoxo0aLB06VLqnSR02dLPiIgIunAaNWq0fPly0BBh1BaKQyq1REFD0dHREyZMEL4XDRs2XLFihaULeKoqK1IQBbs6mnbApWjMmDFSeYnehCYreFNG/Zclir5QnS4rKzP7gJk3lxs3blADMVaYkZFhiUGYpzqJ/Pz8a9eu+fv7R0RESIXFioqK1NRUNF5VpyHVZePi4i5evBgSEpKQkEB956DC58+fp6WlSXcEdc0lJCRcvnw5MDDQYDBkZ2dXWklGRsa1a9cuXLgQEBAQFhYmmFMrLY4ZjEZjUlJSSEiIn59fUFBQZGQkWlExj5BITk4ODg6+ePHivXv3aqr70ERVmSAQJvw0Go3379+/dOnShQsXbt68qcwik8l0//79wMDAq1ev0jOEUKfRaHz48GFMTIylSvLy8m7duhUQEHDlyhWq6RFI+jt+Cp/Dw4cPQytFRUV37twJCAi4desW6kFkCSgtLQ0PD/f39w8PD5euxJKSkvj4+MTExEonhmzlJSUl4eHhly5dioiIsCQEyBYEpWZISMj169djY2PLysosZVN4npKScvXq1QsXLly/fp36VSoUefmv8vLyIiIiLl686OfnFxISEhcXV7PLylKPYIZcvHgxMDCw0oWvepKYTKbo6OjAwMDr169LV5Yl2qr03PqpDtWmp6dTqeXkyZNVak42c1ZW1s2bN/39/S9fvhwbG4t+H7KZ/+6HKJGA/KHOziYQ+fKXUpXmp0Ct7E91uzSSERQUZDAYZM+9yDan+mFGRsaNGzcCAgIuXLhw9epVazYuk8kUFRUVEBAQGhqKpwRVE1BTBWHOnD9//sqVK3/T2q8pUq2sp7Cw0GAw3L59u2a78+LFi/Dw8ICAgKtXryYnJ6v72GEXzAdcnzx5IuhwR4wYAQgNw1xhfisTRUVFERERgYGBly5dun//vjVbnPWyIm5ZeCF4SUlJZGQkiGTSc/hW0kyz1TyIorVraY0DGgdeUw4IIErqQ/Ka9ksjW+PA38SBVatWoZq/efPm1RRZ/iYiVVdrMpkwQJ9gf1Bdp1ZQ44DGgdeaA+CXUb9+fWvAz8vvKYIoaVSJmiJGA1E1xUmtHo0DbxQHNBD1Rg2n1pm/mQPBwcHooWo+A4YBSP/mZl9e9TRWqo2NjXBDwMujQ2tJ44DGgZfFgdu3b0+dOrV79+7r1q2Ttnn16lVQG1XHdVlabQ0+0UBUDTJTq0rjgMaBKnBAA1FVYJaW9a3kgNn1eubMmUuWLBkxYgQN/Ni2bVshNsBryp4bN27Mnz9/0aJFNC45Y2z27NmvaY80sjUOaBywngNpaWlweE+v1wsHv1NSUtq2bQsgys/Pz/o6X2ZODUS9TG5rbWkc0Djw/xzQQNT/80JLaRyQ40BmZib672HCwcGh0rPIcpX9E5+hCIK9gzAqsjFU/okd0GjSOKBxoHocoJd0DRgwwHwt2Lp16yZNmoQBIYSI/NVrrYZL4w6mufPVMGe16jQOaBxQ5oAGopT5o73VOCAFUS4uLhcvXnxjOIMiCIKobt260WsM35ieah3ROKBxwBIH9u7dK3u/i16vX79+/cuJV2SJNuXnuINpIEqZUdpbjQMaB2qYA0ajcQb5u3btWg03oFWnceA150BRUdGmTZsWLlw4e/bspUuXHjx4UAhd9Zr37/+uIly7dq23t/ecOXNWr159/vz5f+bx8dedzxr9Ggf+4RwoKCgwhxtdt27d/Pnzvb2916xZc/z48X9OwEZL3AsLCwMpBm9aspRT9XMtsIRq1mkFNQ5oHNA4oHFA44DGAY0DGgc0DmgceBs5oIGot3HUtT5rHNA4oHFA44DGAY0DGgc0Dmgc0DigmgMaiFLNOq2gxgGNAxoHNA5oHNA4oHFA44DGAY0DbyMHNBD1No661meNAxoHNA5oHNA4oHFA44DGAY0DGgdUc+B/AWnDvpO8I/pAAAAAAElFTkSuQmCC;" vertex="1" parent="KGChQR1K5hRhyjWdONPX-30">
          <mxGeometry x="2330" y="604.93" width="672" height="23.15" as="geometry" />
        </mxCell>
      </root>
    </mxGraphModel>
  </diagram>
  <diagram name="Copy of Page-1" id="HSta2g8WWJIa29BhDyZO">
    <mxGraphModel grid="1" page="1" gridSize="10" guides="1" tooltips="1" connect="1" arrows="1" fold="1" pageScale="1" pageWidth="827" pageHeight="1169" math="0" shadow="0">
      <root>
        <mxCell id="Byup_jZ3va1kW8f9-2pt-0" />
        <mxCell id="Byup_jZ3va1kW8f9-2pt-1" parent="Byup_jZ3va1kW8f9-2pt-0" />
        <mxCell id="Byup_jZ3va1kW8f9-2pt-2" value="Kafka Client&lt;div&gt;(essentially app or service)&lt;/div&gt;" style="whiteSpace=wrap;html=1;aspect=fixed;" vertex="1" parent="Byup_jZ3va1kW8f9-2pt-1">
          <mxGeometry x="650" y="113" width="80" height="80" as="geometry" />
        </mxCell>
        <mxCell id="Byup_jZ3va1kW8f9-2pt-3" value="Kafka Client&lt;div&gt;(essentially app or service)&lt;/div&gt;" style="whiteSpace=wrap;html=1;aspect=fixed;" vertex="1" parent="Byup_jZ3va1kW8f9-2pt-1">
          <mxGeometry x="652" y="225" width="80" height="80" as="geometry" />
        </mxCell>
        <mxCell id="Byup_jZ3va1kW8f9-2pt-4" value="Kafka Client&lt;div&gt;(essentially app or service)&lt;/div&gt;" style="whiteSpace=wrap;html=1;aspect=fixed;" vertex="1" parent="Byup_jZ3va1kW8f9-2pt-1">
          <mxGeometry x="652" y="335" width="80" height="80" as="geometry" />
        </mxCell>
        <mxCell id="Byup_jZ3va1kW8f9-2pt-5" value="Kafka Client&lt;div&gt;(essentially app or service)&lt;/div&gt;" style="whiteSpace=wrap;html=1;aspect=fixed;" vertex="1" parent="Byup_jZ3va1kW8f9-2pt-1">
          <mxGeometry x="652" y="435" width="80" height="80" as="geometry" />
        </mxCell>
        <mxCell id="Byup_jZ3va1kW8f9-2pt-6" value="Manage" style="whiteSpace=wrap;html=1;aspect=fixed;" vertex="1" parent="Byup_jZ3va1kW8f9-2pt-1">
          <mxGeometry x="291" y="491" width="60" height="60" as="geometry" />
        </mxCell>
        <mxCell id="Byup_jZ3va1kW8f9-2pt-7" value="Store" style="whiteSpace=wrap;html=1;aspect=fixed;" vertex="1" parent="Byup_jZ3va1kW8f9-2pt-1">
          <mxGeometry x="201" y="491" width="60" height="60" as="geometry" />
        </mxCell>
        <mxCell id="Byup_jZ3va1kW8f9-2pt-8" value="topic1&lt;div&gt;(essentially msg)&lt;/div&gt;" style="shape=process;whiteSpace=wrap;html=1;backgroundOutline=1;" vertex="1" parent="Byup_jZ3va1kW8f9-2pt-1">
          <mxGeometry x="161" y="606" width="80" height="40" as="geometry" />
        </mxCell>
        <mxCell id="Byup_jZ3va1kW8f9-2pt-9" value="topic2" style="shape=process;whiteSpace=wrap;html=1;backgroundOutline=1;" vertex="1" parent="Byup_jZ3va1kW8f9-2pt-1">
          <mxGeometry x="271" y="606" width="80" height="40" as="geometry" />
        </mxCell>
        <mxCell id="Byup_jZ3va1kW8f9-2pt-10" value="topic n" style="shape=process;whiteSpace=wrap;html=1;backgroundOutline=1;" vertex="1" parent="Byup_jZ3va1kW8f9-2pt-1">
          <mxGeometry x="421" y="606" width="80" height="40" as="geometry" />
        </mxCell>
        <mxCell id="Byup_jZ3va1kW8f9-2pt-11" value="Replicate" style="whiteSpace=wrap;html=1;aspect=fixed;" vertex="1" parent="Byup_jZ3va1kW8f9-2pt-1">
          <mxGeometry x="391" y="491" width="60" height="60" as="geometry" />
        </mxCell>
        <mxCell id="Byup_jZ3va1kW8f9-2pt-12" value="Cluster (essentially  ser of machines)" style="swimlane;startSize=0;" vertex="1" parent="Byup_jZ3va1kW8f9-2pt-1">
          <mxGeometry y="30" width="800" height="640" as="geometry">
            <mxRectangle x="320" y="21" width="50" height="40" as="alternateBounds" />
          </mxGeometry>
        </mxCell>
        <mxCell id="Byup_jZ3va1kW8f9-2pt-13" value="Serves (essentially reads and writes)" style="text;html=1;align=center;verticalAlign=middle;whiteSpace=wrap;rounded=0;" vertex="1" parent="Byup_jZ3va1kW8f9-2pt-12">
          <mxGeometry x="316" y="195" width="60" height="30" as="geometry" />
        </mxCell>
        <mxCell id="Byup_jZ3va1kW8f9-2pt-14" value="Broker ( essentially a server)&lt;br&gt;( essentially a node)&lt;div&gt;(Really a Computer)&lt;/div&gt;" style="verticalLabelPosition=bottom;verticalAlign=top;html=1;shape=mxgraph.basic.heart" vertex="1" parent="Byup_jZ3va1kW8f9-2pt-12">
          <mxGeometry x="66" y="115" width="130" height="110" as="geometry" />
        </mxCell>
        <mxCell id="Byup_jZ3va1kW8f9-2pt-15" value="Server" style="swimlane;whiteSpace=wrap;html=1;" vertex="1" parent="Byup_jZ3va1kW8f9-2pt-12">
          <mxGeometry x="31" y="50" width="489" height="580" as="geometry" />
        </mxCell>
        <mxCell id="Byup_jZ3va1kW8f9-2pt-16" value="Broker 2" style="verticalLabelPosition=bottom;verticalAlign=top;html=1;shape=mxgraph.basic.heart" vertex="1" parent="Byup_jZ3va1kW8f9-2pt-15">
          <mxGeometry x="99" y="280" width="90" height="70" as="geometry" />
        </mxCell>
        <mxCell id="Byup_jZ3va1kW8f9-2pt-17" value="Broker n" style="verticalLabelPosition=bottom;verticalAlign=top;html=1;shape=mxgraph.basic.heart" vertex="1" parent="Byup_jZ3va1kW8f9-2pt-15">
          <mxGeometry x="331" y="262.5" width="89" height="65" as="geometry" />
        </mxCell>
        <mxCell id="Byup_jZ3va1kW8f9-2pt-18" value="Client" style="swimlane;whiteSpace=wrap;html=1;" vertex="1" parent="Byup_jZ3va1kW8f9-2pt-12">
          <mxGeometry x="580" y="50" width="210" height="520" as="geometry" />
        </mxCell>
        <mxCell id="Byup_jZ3va1kW8f9-2pt-19" style="edgeStyle=orthogonalEdgeStyle;rounded=0;orthogonalLoop=1;jettySize=auto;html=1;exitX=0.93;exitY=0.5;exitDx=0;exitDy=0;exitPerimeter=0;entryX=0.03;entryY=0.431;entryDx=0;entryDy=0;entryPerimeter=0;" edge="1" parent="Byup_jZ3va1kW8f9-2pt-1" source="Byup_jZ3va1kW8f9-2pt-14">
          <mxGeometry relative="1" as="geometry">
            <mxPoint x="507.20000000000005" y="279.64" as="targetPoint" />
          </mxGeometry>
        </mxCell>
      </root>
    </mxGraphModel>
  </diagram>
</mxfile>
